<?xml version="1.0" encoding="utf-8"?>
<!-- Generator: Adobe Illustrator 16.0.0, SVG Export Plug-In . SVG Version: 6.00 Build 0)  -->
<!DOCTYPE svg PUBLIC "-//W3C//DTD SVG 1.1//EN" "http://www.w3.org/Graphics/SVG/1.1/DTD/svg11.dtd">
<svg version="1.1" id="Layer_1" xmlns="http://www.w3.org/2000/svg" xmlns:xlink="http://www.w3.org/1999/xlink" x="0px" y="0px"
	 width="3000px" height="3000px" viewBox="0 0 3000 3000" enable-background="new 0 0 3000 3000" xml:space="preserve">
<path fill="#F1D1D1" d="M590.84,496.306c29.749-62.776,77.763-100.535,143.425-113.551c77.545-47.142,194.378-56.534,350.377-27.856
	l1.673-2.181c-28.144-19.835-61.863-37.724-101.154-53.665c-105.979-51.748-249.025-32.251-428.516,58.749
	c-75.496,49.132-115.504,91.085-120.775,125.911c-67.509,47.5-109.541,123.503-125.826,227.39
	c-11.711,56.404-6.81,113.091,14.96,169.455c16.219,42.315,41.69,84.274,76.586,126.313c23.335-37.905,58.794-70.192,106.805-97.039
	l2.073-3.106c-18.528-13.486-32.093-29.188-40.833-46.794l-18.562-16.776c-5.417-3.441-9.645-9.637-12.104-19.072
	c-13.097-34.416,3.451-51.614,50.259-51.337l1.051,0.093c0.437-0.173,0.744-0.04,1.185-0.218c0.306,0.132,1.05,0.092,1.49-0.079
	c38.495-4.049,74.84-17.401,108.549-40.625c-5.32-7.039-10.945-14.2-16.611-22.107C541.386,652.392,543.468,581.271,590.84,496.306"
	/>
<path fill="#F1D1D1" d="M734.257,382.76c-65.664,13.015-113.676,50.774-143.424,113.551c-47.37,84.958-49.452,156.08-5.947,213.499
	c5.665,7.913,11.289,15.076,16.608,22.112c7.238,9.318,13.998,18.067,19.928,25.368c10.77,13.763,19.271,24.36,26.081,31.311
	c1.268,1.273,2.532,2.553,3.799,3.827c1.744,1.85,3.93,3.522,6.112,5.199c4.412,4.094,9.086,7.576,14.029,10.442
	c0.173,0.438,0.173,0.438,0.306,0.132c15.466,12.159,29.042,25.32,40.599,39.785c13.892,21.664,33.398,42.119,58.826,61.508
	c51.974-150.994,61.222-279.757,28.302-386.786c56.216,35.638,123.007,46.031,201.125,31.139
	c-17.651-24.75-27.95-57.222-30.765-97.733C903.199,407.596,824.717,383.041,734.257,382.76"/>
<path fill="#F49A8A" d="M1160.637,429.668c-17.243-28.205-41.814-53.768-74.327-76.951l-1.673,2.181
	c-155.994-28.676-272.832-19.286-350.38,27.862c49.26-9.574,108.672-5.651,177.979,12.383
	c169.083,43.804,316.766,133.639,442.875,269.047c23.062-2.014,49.818,3.4,81.15,15.886c-31.333-12.485-58.09-17.899-81.15-15.886
	c-10.565,0.878-20.307,3.207-28.913,7.114c-15.793,80.093-19.112,164.141-9.915,252.882c1.651,13.813,1.561,25.778-0.409,36.2
	c-0.627,2.281-0.941,4.688-1.564,6.962c-1.645,5.475-3.9,10.68-6.462,15.756c-18.089,19.076-20.145,38.925-5.414,59.497
	c-10.831,12.401-20.877,25.51-30.269,39.63c-25.042,36.799-46.029,79.35-63.313,126.792
	c-32.038,108.343-20.547,170.798,34.172,187.236c1.44,1.718,2.746,3.737,4.188,5.452c16.527,20.624,38.075,34.69,64.34,42.074
	c36.334,11.018,70.146,27.853,101.694,49.89c11.729,14.904,25.665,26.401,42.109,34.618c14.32,34.947,42.149,46.278,83.135,33.12
	c1.053,0.094,1.929-0.254,3.116-0.469c23.967,0.93,45.866,4.964,66.303,12.364l3.465-10.503
	c-15.326-4.094-31.953-10.209-49.281-18.081c-17.383-3.532-18.392-13.794-3.07-31.526c9.884-27.002,58.847-61.076,147.633-102.265
	c14.138-6.605,29.064-12.506,44.507-17.089l-1.383-3.513l-18.013-77.641l-21.318-91.819c-32.903-24.804-62.54-55.474-88.6-91.868
	c-53.793-59.691-113.786-115.154-179.847-166.704c-51.727-30.054-61.177-66.164-28.09-108.935
	c-5.585-60.987,4.022-117.571,28.781-170.501c4.286-9.056,8.881-17.979,14.088-26.635c-48.236-37.274-91.998-85.703-130.805-144.718
	C1270.958,503.312,1215.802,476.133,1160.637,429.668"/>
<path fill="#F1D1D1" d="M1086.314,352.719c32.515,23.185,57.086,48.747,74.328,76.952c-0.03-90.587,11.387-160.583,33.939-210.1
	c-75.616-7.669-145.321,18.872-209.423,79.485C1024.451,314.996,1058.171,332.884,1086.314,352.719"/>
<path fill="#F1D1D1" d="M1000.607,553.849c9.064,12.661,20.109,23.266,33.268,31.513c3.4,37.488,47.816,65.107,132.987,83.459
	l112.023,52.916c11.36-24.541,27.034-41.393,47.319-50.429c8.604-3.91,18.345-6.238,28.91-7.115
	c-126.108-135.407-273.793-225.242-442.881-269.049c-69.306-18.035-128.713-21.954-177.972-12.38
	c90.46,0.282,168.937,24.833,235.58,73.352C972.658,496.626,982.956,529.096,1000.607,553.849"/>
<path fill="#FBAEA4" d="M1033.875,585.36c-13.158-8.246-24.204-18.852-33.268-31.513c-78.119,14.893-144.914,4.497-201.125-31.139
	c32.914,107.026,23.672,235.793-28.301,386.786c7.816,6.3,16.076,12.423,24.909,18.069c4.329,2.602,8.961,5.34,13.465,8.38
	c8.216,5.378,16.605,11.202,25.437,16.849c73.699-103.751,161.131-134.255,262.417-91.81l5.454,6.727
	c51.866-38.264,101.088-62.042,147.539-71.014c6.241-25.31,15.632-50.343,28.485-74.961l-112.022-52.917
	C1081.691,650.468,1037.275,622.848,1033.875,585.36"/>
<path fill="#F1D1D1" d="M1278.886,721.729c-12.851,24.62-22.243,49.653-28.483,74.962c-5.523,21.975-8.462,44.71-8.864,67.457
	c-9.545,19.508-10.27,36.29-2.442,50.964c10.176,19.325,35.978,34.499,76.779,45.274c1.971-10.422,2.062-22.389,0.41-36.201
	c-9.197-88.741-5.879-172.79,9.917-252.887C1305.918,680.335,1290.249,697.189,1278.886,721.729"/>
<path fill="#F1D1D1" d="M451.072,843.156l18.562,16.775c8.74,17.608,22.305,33.309,40.833,46.795
	c22.726,16.396,52.909,29.843,90.866,40.47c27.808,5.503,49.576,18.213,65.452,37.824c7.483,13.792,16.771,25.093,28.002,33.597
	c9.829,7.535,21.068,13.496,33.982,17.273c-64.097-124.905-135.539-198.426-214.337-220.573c-4.871,1.165-9.128,2.595-12.905,4.596
	c-4.094,4.408-8.498,8.688-13.506,12.698c-2.859,2.399-6.027,4.665-9.19,6.932C466.926,846.028,457.721,847.125,451.072,843.156"/>
<path fill="#FBAEA4" d="M438.968,824.086c2.459,9.435,6.687,15.63,12.104,19.071c6.648,3.968,15.854,2.871,27.759-3.613
	c3.164-2.268,6.332-4.533,9.19-6.932c5.009-4.011,9.413-8.291,13.507-12.698c3.776-2.001,8.034-3.432,12.905-4.596
	c18.77-3.867,45.713-0.558,80.861,10.674c60.642,23.736,118.862,52.235,174.65,85.507l1.237-2.008
	c-25.428-19.39-44.94-39.845-58.831-61.51c-11.557-14.465-25.133-27.625-40.594-39.781c-0.132,0.305-0.132,0.305-0.305-0.132
	c-4.942-2.867-9.619-6.35-14.03-10.443c-2.181-1.677-4.367-3.35-6.111-5.199c-1.267-1.274-2.531-2.553-3.798-3.827
	c-6.81-6.951-15.312-17.549-26.081-31.31c-29.617,18.81-72.105,23.681-127.427,15.351c-0.439,0.171-0.745,0.039-1.05-0.093
	c-0.439,0.171-1.185,0.212-1.491,0.08c-0.44,0.178-0.748,0.045-1.185,0.218c-0.307-0.133-0.307-0.133-0.745,0.04l-0.306-0.133
	C442.419,772.47,425.871,789.669,438.968,824.086"/>
<path fill="#FBAEA4" d="M601.327,947.193c-37.957-10.626-68.141-24.073-90.865-40.469l-2.074,3.105
	c-25.012,51.002-35.367,96.717-30.619,136.971c3.215,28.675,3.336,52.735,0.232,72.489
	c82.959-84.82,155.279-118.233,216.787-100.672c-11.231-8.505-20.519-19.806-28.002-33.597
	C650.909,965.409,629.134,952.698,601.327,947.193"/>
<path fill="#FBAEA4" d="M477.768,1046.8c-4.747-40.253,5.607-85.967,30.619-136.971c-48.011,26.848-83.469,59.134-106.805,97.039
	c-9.046,14.997-15.948,30.922-21.185,47.205c-7.944,24.208-12.213,50.003-12.19,77.657c-0.136,11.222,0.65,22.837,2.047,34.721
	c-36.384,12.605-57.371,44.248-63.273,94.799c49.066-4.929,89.623-31.361,122.425-79.354c26.194-7.562,42.539-28.489,48.593-62.61
	C481.104,1099.535,480.983,1075.476,477.768,1046.8"/>
<path fill="#F1D1D1" d="M401.588,1006.871c-34.896-42.039-60.366-83.997-76.585-126.313
	c-45.878,63.057-102.302,110.996-169.268,143.818c-72.23,65.098-102.273,147.015-90.492,244.884l7.704,4.065l0.741-0.044
	c28.274-54.317,60.572-75.97,96.771-64.647c44.497-90.932,114.48-142.452,209.943-154.559
	C385.64,1037.793,392.542,1021.867,401.588,1006.871"/>
<path fill="#F1D1D1" d="M492.95,772.551c0.306,0.132,0.611,0.265,1.051,0.091c55.323,8.331,97.811,3.459,127.427-15.351
	c-5.931-7.301-12.69-16.05-19.929-25.369C567.791,755.148,531.446,768.501,492.95,772.551"/>
<path fill="#FBAEA4" d="M595.286,825.994c-35.148-11.231-62.092-14.54-80.861-10.674c78.798,22.149,150.246,95.672,214.336,220.575
	c7.75,2.268,16.203,3.75,24.922,4.615c3.765,0.541,7.226,0.951,10.952,0.747c5.522-0.154,11.046-0.308,16.264-0.589
	c5.352-0.595,10.782,0.305,15.988,2.561c15.751,6.46,32.024,25.155,48.642,55.641c6.277-2.737,12.597-4.728,19.531-6.455l-1.471-5
	c8.722-31.874,25.434-57.008,50.445-75.271l-4.229-6.194c-26.79-19.61-51.521-37.243-74.818-53.158
	c-8.831-5.646-17.221-11.47-25.437-16.849c-4.505-3.04-9.137-5.779-13.465-8.38c-8.215-5.378-16.87-10.586-25.218-15.66
	c-0.308-0.133-0.613-0.266-0.922-0.399C714.154,878.233,655.934,849.733,595.286,825.994"/>
<path fill="#EFBDA4" d="M73.688,1273.281l-0.746,0.042l-7.696-4.063l0.47,3.113c-2.51,3.277-4.235,7.258-5.177,11.946
	c-6.024,26.492,12.104,73.635,54.867,142.004c9.833-25.206,14.469-55.209,13.772-89.703c9.582-48.961,23.381-91.725,41.282-127.987
	C134.261,1197.312,101.957,1218.962,73.688,1273.281"/>
<path fill="#F1D1D1" d="M295.877,1536.183c7.984,9.279,16.538,18.081,24.92,26.44c-4.53-115.461-45.137-229.098-121.952-340.591
	c-43.276,80.553-24.611,167.576,55.871,261.388C267.57,1502.452,281.39,1520.083,295.877,1536.183"/>
<path fill="#F1D1D1" d="M320.797,1562.624c-8.382-8.359-16.937-17.162-24.92-26.44c-110.859,124.021-119.448,275.626-26.381,454.556
	l6.564,13.395l2.389,5.397l0.612,0.266l16.64,36.314c27.234,38.724,61.11,59.589,101.771,62.293
	c35.934,1.021,69.848,14.266,101.566,39.286c32.482,19.9,65.803,38.703,99.216,56.459c0.173,0.437,0.786,0.702,1.399,0.969
	c21.559,11.528,43.691,22.572,65.65,33.183C476.819,2050.392,361.941,1825.268,320.797,1562.624"/>
<path fill="#F1D1D1" d="M295.877,1536.183c-14.486-16.101-28.307-33.731-41.16-52.762c-80.482-93.812-99.146-180.836-55.871-261.389
	c53.275-39.844,109.63-69.989,169.362-90.303c-0.024-27.654,4.246-53.449,12.19-77.657
	c-95.463,12.106-165.441,63.628-209.94,154.567c-17.9,36.262-31.697,79.019-41.279,127.98c0.697,34.494-3.944,64.494-13.772,89.703
	c-4.605,11.465-10.301,22.09-17.264,31.444c-16.345,42.751-15.423,84.259,2.207,125.001c0.48,0.57,0.828,1.449,1.172,2.326
	c26.871,53.843,33.595,102.957,20.315,147.032c-3.514,45.04,10.513,99.137,41.941,162.596
	c2.744,58.304,37.005,94.249,102.913,107.532l2.807-11.516C176.429,1811.808,185.017,1660.204,295.877,1536.183"/>
<path fill="#FBAEA4" d="M370.255,1166.451c-1.396-11.884-2.182-23.5-2.047-34.722c-59.733,20.315-116.087,50.459-169.367,90.301
	l108.138,39.226C312.88,1210.704,333.87,1179.057,370.255,1166.451"/>
<path fill="#FBAEA4" d="M306.988,1261.255l-108.14-39.228c76.817,111.503,117.425,225.139,121.956,340.596
	c30.471,29.574,63.466,53.329,99.109,70.96c11.985,5.919,24.236,11.229,36.751,15.927c15.404,5.582,31.512,10.382,48.153,13.955
	c32.535,7.188,66.795,10.397,102.781,9.621l0.285-5.698c-33.35-98.477-43.016-190.338-29.17-276.006
	c24.326,10.178,50.442,1.125,78.301-27.907C546.907,1291.016,430.382,1256.887,306.988,1261.255"/>
<path fill="#F38A77" d="M429.406,1181.897c-32.803,47.992-73.362,74.43-122.428,79.36c123.396-4.367,239.926,29.765,350.028,102.22
	c-27.86,29.033-53.975,38.085-78.296,27.912c-13.848,85.659-4.183,177.52,29.164,276.001l-0.283,5.701
	c47.336-0.952,97.728-8.943,151.039-23.67c-1.184-32.528-14.309-59.315-39.517-80.062c-17.833-11.729-32.658-31.249-43.725-58.592
	c-0.48-0.573-0.829-1.449-1.171-2.326c0.437-0.176,1.051,0.09,1.488-0.084c11.994-29.359,13.916-59.811,5.325-91.183
	c44.883,19.817,91.427,9.792,140.104-29.498c20.671-29.238,51.809-44.847,93.847-46.999c-32.674-37.081-35.808-75.179-9.09-114.165
	c-12.793-1.541-25.453-3.39-38.723-5.502c-2.257-16.62-3.074-31.525-2.49-45.461c-29.451-0.031-54.565-10.915-74.858-32.079
	c15.465-20.573,33.932-35.489,55.708-44.602c-16.617-30.485-32.89-49.179-48.642-55.64c-5.207-2.256-10.637-3.157-15.987-2.562
	c-5.217,0.282-10.741,0.435-16.264,0.589c-3.726,0.204-7.187-0.206-10.952-0.747c-8.719-0.864-17.172-2.347-24.922-4.615
	c-12.908-3.775-24.147-9.736-33.976-17.271c-61.507-17.561-133.825,15.846-216.784,100.665
	C471.945,1153.408,455.601,1174.336,429.406,1181.897"/>
<path fill="#F38A77" d="M607.591,1673.09c-35.986,0.775-70.248-2.436-102.783-9.621c55.586,18.632,108.08,43.563,158.092,75.06
	l-1.809,2.491c-13.038,59.464,13.27,111.245,78.041,155.685c1.749-0.698,3.505-1.39,5.269-2.081
	c26.506-9.978,60.153-17.947,100.936-23.919c31.137-4.694,66.521-8.277,106.02-10.44c-0.502-6.401-0.694-12.67-0.888-18.938
	c-2.031-17.979-5.033-34.556-9.31-49.869c-7.135-23.828-17.219-44.206-30.563-61.265c-24.336,3.275-52.309-5.208-84.039-25.145
	c-21.206-13.189-43.746-31.689-67.928-55.627C705.318,1664.147,654.927,1672.139,607.591,1673.09"/>
<path fill="#FBAEA4" d="M504.814,1663.47c-16.641-3.574-32.75-8.374-48.153-13.955c-12.516-4.699-24.766-10.008-36.751-15.927
	c-35.65-17.635-68.645-41.39-99.108-70.962c41.136,262.647,156.021,487.768,344.505,675.675
	c32.851,15.688,66.404,30.597,100.187,44.143c40.599,17.96,78.208,27.711,112.826,29.254
	c-65.354-19.595-120.4-74.732-165.876-165.376l3.573-5.729c-3.24-1.765-6.512-4.278-9.791-6.79
	c-3.583-2.643-7.168-5.287-10.486-8.544c-50.673-40.877-55.193-104.314-13.694-189.999c11.28-15.118,30.311-27.97,57.087-38.557
	c-64.772-44.439-91.073-96.218-78.035-155.682l1.808-2.491C612.895,1707.033,560.399,1682.102,504.814,1663.47"/>
<path fill="#FBAEA4" d="M675.706,1508.352l-0.315,2.409c11.064,27.349,25.889,46.868,43.723,58.598
	c25.206,20.746,38.332,47.533,39.516,80.061c24.182,23.938,46.724,42.437,67.927,55.627c27.421,1.336,54.866-10.781,82.317-36.353
	c38.591-70.582,80.017-116.652,124.589-138.079l5.208,2.258l13.141-30.321c0.375-94.046-42.795-148.042-129.511-161.977
	c-2.542-0.012-5.082-0.021-7.321,0.103c-42.039,2.151-73.174,17.753-93.844,46.993c-8.465,11.972-15.447,26.407-20.378,42.825
	C796.967,1478.689,755.489,1504.73,675.706,1508.352"/>
<path fill="#FBB1BE" d="M950.476,1841.328c0.192,6.268,0.386,12.536,0.887,18.938c0.457,5.656,1.224,11.445,2.734,17.19
	c1.42,6.8,3.41,13.119,6.014,19.703c3.297,8.344,7.034,16.51,11.954,24.461l107.71,198.01c-3.513-9.525-4.125-20.704-2.144-33.67
	c-0.172-0.439-0.04-0.744,0.094-1.053c4.081-53.888,14.342-98.551,30.96-133.545c13-27.474,29.743-49.319,50.53-65.407
	c13.63-10.464,29.177-18.643,46.51-24.227c8.426-56.372,32.172-97.736,71.503-124.7c-39.331,26.964-63.077,68.328-71.503,124.7
	c-17.333,5.584-32.88,13.763-46.51,24.227c-20.788,16.089-37.531,37.934-50.53,65.407l93.626,115.51
	c1.595-25.5,16.437-54.717,44.399-87.344c10.832-12.403,24.033-25.234,39.294-38.627c14.691-12.913,31.271-26.83,49.782-40.996
	c-15.751-137.416-63.6-205.806-144.282-205.121c9.892-7.718,20.92-13.851,33.383-18.272c-14.926-5.012-28.849-8.136-42.387-9.637
	c-47.05-4.75-89.671,0.426-128.435,15.997c-10.097,3.991-19.711,8.552-28.85,13.688c-16.476,10.323-28.176,20.529-34.965,30.318
	c-7.4,9.525-16.406,25.268-27.014,47.226c-3.357,6.911-6.371,14.699-8.292,23.329
	C951.917,1810.302,950.323,1824.89,950.476,1841.328"/>
<path fill="#EB612A" d="M941.166,1791.46c4.276,15.313,7.278,31.89,9.311,49.868c-0.152-16.438,1.441-31.025,4.471-43.896
	c1.921-8.629,4.934-16.417,8.291-23.329c10.608-21.957,19.614-37.699,27.014-47.226c6.791-9.79,18.489-19.995,34.965-30.318
	c9.139-5.135,18.754-9.695,28.849-13.687c-23.59-7.68-44.662-21.174-63.036-40.052l-19.245,44.407
	c-17.285,25.612-37.587,39.73-61.183,42.965C923.947,1747.252,934.031,1767.631,941.166,1791.46"/>
<path fill="#F38A77" d="M971.786,1687.229l66.893-154.354l-5.209-2.258c-44.572,21.428-85.998,67.497-124.59,138.079
	c-27.452,25.571-54.893,37.69-82.322,36.35c31.736,19.939,59.708,28.423,84.045,25.147
	C934.198,1726.96,954.5,1712.841,971.786,1687.229"/>
<path fill="#D54020" d="M1112.608,1447.055l-69.558-63.609c-70.837-62.349-83.784-110.521-38.861-144.528
	c0.715-3.329,2.35-6.259,4.727-9.229c-31.12,2.156-65.565,1.051-103.02-3.177c-26.718,38.987-23.584,77.084,9.09,114.166
	c2.239-0.124,4.781-0.114,7.321-0.104c86.714,13.936,129.887,67.932,129.509,161.983l-60.786,140.262
	c18.374,18.876,39.445,32.371,63.036,40.051c48.524-77.55,113.955-130.315,195.979-158.428
	C1198.432,1510.079,1152.473,1484.34,1112.608,1447.055"/>
<path fill="#FBAEA4" d="M1043.047,1383.446l69.562,63.61c39.865,37.284,85.823,63.024,137.43,77.386
	c8.055,2.4,16.07,4.056,24.39,5.842c54.127,11.087,114.48,10.326,180.931-1.987c-16.447-8.218-30.383-19.714-42.111-34.619
	c-31.554-22.04-65.365-38.875-101.7-49.893c-26.265-7.383-47.813-21.449-64.334-42.071c-26.452,27.461-78.986,12.699-157.735-43.983
	c-36.944-33.109-65.58-72.801-85.29-118.811C959.261,1272.923,972.213,1321.098,1043.047,1383.446"/>
<path fill="#FBAEA4" d="M864.679,1175.548c-0.584,13.938,0.232,28.842,2.489,45.462c13.27,2.113,25.93,3.961,38.723,5.502
	c37.456,4.227,71.9,5.332,103.026,3.179c90.392-6.299,152.675-40.058,187.417-101.758c14.792-38.329,39.966-53.608,75.829-45.704
	c9.391-14.121,19.439-27.229,30.27-39.63c-14.731-20.572-12.676-40.421,5.414-59.496c2.563-5.078,4.818-10.282,6.462-15.756
	c-28.962-12.914-64.588-13.802-107.457-2.184c-23.476,8.016-46.984,12.741-70.048,14.754
	c-30.766,98.699-107.835,135.51-231.37,109.983C879.943,1107.59,866.548,1135.981,864.679,1175.548"/>
<path fill="#F78368" d="M909.804,1005.949l4.229,6.194c34.903-25.977,86.274-37.91,154.375-36.406
	c-17.523-55.252-10.908-87.307,19.677-96.604c5.012-4.017,9.892-7.721,14.772-11.423l-5.458-6.72
	c-101.284-42.451-188.713-11.947-262.414,91.803C858.282,968.708,883.014,986.34,909.804,1005.949"/>
<path fill="#F56757" d="M1004.189,1238.919c19.713,46.01,48.346,85.702,85.29,118.81c78.744,56.681,131.276,71.444,157.729,43.981
	c-1.442-1.715-2.748-3.734-4.188-5.452c-54.718-16.438-66.204-78.891-34.166-187.233c17.284-47.44,38.272-89.993,63.314-126.792
	c-35.862-7.904-61.038,7.374-75.83,45.704c-34.74,61.701-97.026,95.458-187.423,101.755
	C1006.539,1232.66,1004.903,1235.59,1004.189,1238.919"/>
<path fill="#F5EFFB" d="M506.313,2365.101c2.288,8.995,5.32,17.948,9.709,27.124l14.179,48.708
	c13.651-48.288,8.054-73.993-16.519-77.732L506.313,2365.101"/>
<path fill="#F1D1D1" d="M602.025,2507.709c-24.164-7.195-41.935-34.181-52.744-81.424
	C590.974,2434.164,608.613,2461.455,602.025,2507.709 M510.103,2295.08c-8.771,22.753-10.046,45.847-3.962,69.581l7.543-1.459
	c24.572,3.738,30.168,29.443,16.518,77.731l2.072,7.808c26.121,64.796,78.468,114.401,157.477,148.642
	c36.191,13.865,58.65,30.874,67.337,50.273c57.219,4.796,97.633,13.944,122.125,27.105c83.332,6.646,165.672-2.052,246.893-25.783
	c48.704-14.18,96.952-34.014,144.911-59.063c-33.765-5.176-71.082-12.255-112.106-21.666c-45.904-8.251-76.999-24.637-93.108-48.716
	c-104.161,17.063-201.06-16.197-290.13-100.269c83.782,25.756,176.018,20.257,276.973-17.113
	c-1.337-5.308-1.663-11.269-0.673-17.753l-0.193-6.269c-260.965,3.682-411.667-53.992-452.12-173.017
	c-0.613-0.266-1.227-0.532-1.399-0.97c-33.414-17.755-66.734-36.558-99.217-56.458c-31.72-25.021-65.632-38.266-101.566-39.288
	c-40.656-2.7-74.538-23.569-101.771-62.291l-16.641-36.314c-18.223,41.213-14.776,76.903,10.614,106.456
	c31.544,35.496,44.411,60.354,39.092,75.146l31.851,13.804c11.952,2.636,21.744,9.423,29.408,21.113
	c9.005,16.997,20.723,23.533,35.639,20.173c13.141,2.42,24.993,8.647,35.386,18.245
	C477.179,2275.354,493.576,2285.37,510.103,2295.08c56.668,32.924,114.364,60.113,173.057,80.816
	c27.575,17.772,56.447,31.738,86.123,41.326c-29.675-9.589-58.549-23.555-86.123-41.326
	C624.468,2355.193,566.771,2328.004,510.103,2295.08z"/>
<path fill="#F5EFFB" d="M549.278,2426.281c10.812,47.247,28.583,74.229,52.746,81.428
	C608.611,2461.453,590.974,2434.164,549.278,2426.281"/>
<path fill="#FBAEA4" d="M765.494,2282.443c-33.782-13.546-67.337-28.453-100.19-44.145c-21.956-10.609-44.088-21.653-65.65-33.183
	c40.456,119.027,191.164,176.702,452.123,173.02l2.389-5.512c3.697-14.406,12.222-30.718,24.83-48.9l-1.459-7.542
	c-58.393,14.71-116.196,12.939-172.788-5.036c-8.768,0.929-17.576,1.112-26.427,0.552
	C843.701,2310.155,806.092,2300.403,765.494,2282.443"/>
<path fill="#FBAEA4" d="M716.017,2140.594c1.223,0.529,2.449,1.062,3.235,1.766c0.612,0.266,1.226,0.531,2.144,0.93
	c3.234,1.767,6.473,3.531,9.84,4.99c55.086,23.146,126.905,5.159,215.457-53.957c-16.026-123.346-83.208-189.929-202.291-199.701
	c-1.759,0.693-3.515,1.386-5.27,2.081c-26.776,10.579-45.804,23.431-57.087,38.549c-41.498,85.692-36.979,149.13,13.695,190.007
	c3.317,3.257,6.899,5.899,10.486,8.544C709.501,2136.313,712.777,2138.829,716.017,2140.594"/>
<path fill="#F67B73" d="M721.396,2143.289c-0.918-0.398-1.532-0.664-2.144-0.93l-6.808,3.963
	c45.476,90.644,100.52,145.78,165.87,165.374c8.852,0.56,17.659,0.376,26.428-0.552c46.299-3.581,86.613-23.582,120.814-59.688
	c-138.832,8.953-238.276-24.321-297.881-99.989C725.579,2148.739,723.488,2146.014,721.396,2143.289"/>
<path fill="#FBA295" d="M731.236,2148.279l-3.562,3.185c59.604,75.669,159.049,108.942,297.881,99.99
	c54.229-3.416,149.199-24.466,284.171-63.1l-0.564-2.063c-24.387,5.075-48.548,8.789-72.623,11.453l-20.343,2.46
	c-167.753,5.149-257.59-30.145-269.505-105.882C858.14,2153.438,786.322,2171.426,731.236,2148.279"/>
<path fill="#F38A77" d="M845.343,1870.705c-40.784,5.971-74.43,13.94-100.941,23.917c119.082,9.771,186.265,76.355,202.288,199.708
	c33.47,89.799,137.904,113.232,313.47,70.732c15.926-4.011,32.728-8.369,50.241-13.514c-8.782-7.443-16.55-15.537-23.441-23.98
	c-25.715,8.136-49.141,14.353-70.286,18.648c-79.66,16.771-125.291,7.908-136.898-26.587l-107.709-198.01
	c-4.921-7.951-8.658-16.117-11.955-24.461c-2.604-6.584-4.593-12.902-6.014-19.703c-1.51-5.745-2.277-11.534-2.734-17.189
	C911.866,1862.429,876.481,1866.011,845.343,1870.705"/>
<path fill="#F06357" d="M1077.634,2085.955c-1.981,12.966-1.369,24.143,2.143,33.67c11.606,34.494,57.237,43.355,136.898,26.587
	c21.145-4.296,44.572-10.515,70.28-18.652c-31.829-38.168-45.358-85.865-40.304-143.697c-0.079-1.49-0.162-2.979,0.062-4.339
	c-27.961,32.626-42.804,61.844-44.399,87.344l-93.632-115.513c-16.618,34.994-26.879,79.657-30.954,133.548
	C1077.593,2085.21,1077.461,2085.515,1077.634,2085.955"/>
<path fill="#F1D1D1" d="M1051.969,2384.404c-0.99,6.484-0.666,12.445,0.673,17.753c1.728,6.933,4.902,13.037,10.004,18.886
	c12.608,14.56,35.749,24.953,69.429,31.178l17.713-12.33c41.235-8.686,73.475-4.17,96.669,12.791
	c14.209,8.343,23.805,8.863,29.23,1.393c0.664-1.531,1.282-3.812,1.906-6.088c-6.807-39.689,7.004-74.082,41-103.002
	c-87.887,27.392-176.377,38.515-265.634,32.937c-0.306-0.133-0.306-0.133,0,0C1052.339,2380.2,1052.152,2382.302,1051.969,2384.404"
	/>
<path fill="#F1D1D1" d="M1051.775,2378.136l0.194,6.268c0.183-2.102,0.37-4.204,0.992-6.483
	C1052.522,2378.097,1052.213,2377.963,1051.775,2378.136"/>
<path fill="#FBAEA4" d="M1051.775,2378.136c0.438-0.174,0.746-0.04,1.184-0.215c-0.305-0.133-0.305-0.133,0,0
	c0.358-1.664,0.714-3.328,1.205-5.297L1051.775,2378.136"/>
<path fill="#EFA9A9" d="M1062.647,2421.043c-5.103-5.849-8.277-11.952-10.004-18.886c-100.955,37.37-193.19,42.87-276.966,17.114
	c89.063,84.069,185.963,117.33,290.124,100.268C1049.068,2495.19,1048.016,2462.36,1062.647,2421.043"/>
<path fill="#FBAEA4" d="M1078.994,2323.723c-12.607,18.183-21.133,34.495-24.83,48.9c-0.49,1.969-0.847,3.633-1.205,5.297
	c89.258,5.579,177.747-5.545,265.635-32.936c12.138-10.386,26.421-19.837,43.723-28.71l191.7-119.173
	c-18.065,46.736-5.755,47.706,37.248,3.044l3.878-49.247c-78.045,73.491-177.501,108.231-298.393,103.493
	c-69.557,32.064-137.256,51.47-203.25,58.522c-2.674,0.294-5.042,0.726-7.279,0.847
	C1083.711,2317.039,1081.201,2320.317,1078.994,2323.723"/>
<path fill="#F67B73" d="M1092.387,2306.249c5.197-6.114,10.263-11.924,15.808-17.162c4.572-3.837,9.757-7.408,15.425-10.41
	c59.397-34.647,126.229-56.247,200.337-65.24c29.49-21.043,82.875-34.286,160.21-38.967l21.092-2.502
	c7.34-37.924,28.03-50.417,62.556-36.912l30.334-22.141c2.893-86.415-1.46-149.416-12.78-189.608
	c-47.335,110.079-84.284,175.191-110.879,194.586c-27.031,19.569-44.479,31.288-52.478,35.463
	c-8.163,3.737-18.128,7.419-29.447,10.884c-11.445,3.768-26.015,8.005-43.698,12.709c-12.069,3.502-23.387,6.963-34.577,10.109
	c-0.438,0.173-1.18,0.216-1.618,0.389c-0.133,0.308-0.133,0.308-0.444,0.173c-0.875,0.346-1.75,0.694-2.5,0.735
	c-134.971,38.634-229.942,59.684-284.171,63.1c-34.201,36.106-74.515,56.106-120.814,59.688
	c56.598,17.977,114.401,19.748,172.793,5.038c2.808-0.603,5.747-1.513,8.688-2.419
	C1088.335,2311.402,1090.276,2308.605,1092.387,2306.249"/>
<path fill="#F67B73" d="M1108.194,2289.087c-5.545,5.238-10.61,11.048-15.808,17.162l1.114,6.667
	c65.993-7.052,133.692-26.458,203.25-58.522c2.121-15.813,11.25-29.317,27.206-40.957c-74.108,8.992-140.939,30.593-200.337,65.24
	C1117.952,2281.678,1112.766,2285.25,1108.194,2289.087"/>
<path fill="#F67B73" d="M1321.807,2136.112l-11.411,15.429c4.807,3.173,9.837,4.991,15.267,5.888
	c4.687,0.941,9.774,0.96,14.95-0.067c105.893-23.593,183.596-108.869,233.14-255.094l3.029-1.959
	c-7.565-15.286-17.208-24.921-28.458-28.342c-7.749-2.269-14.131-6.852-19.407-13.138l-2.766,1.348
	c-11.291,17.658-21.37,38.392-30.099,61.893c-3.503,9.757-6.83,19.958-9.982,30.595l-1.726,3.983
	c-21.12,64.686-69.476,120.852-144.746,168.624C1333.976,2129.019,1328.046,2132.635,1321.807,2136.112"/>
<path fill="#F38A77" d="M1310.396,2151.541l11.411-15.429c8.825-35.463,20.566-66.752,35.66-94.041
	c-9.05-37.023-30.334-62.618-63.238-76.515c-15.182,3.972-30.546,10.046-45.827,17.608c-0.438,0.176-1.316,0.52-1.758,0.694
	c-5.055,57.833,8.469,105.527,40.31,143.7C1293.846,2136.003,1301.615,2144.097,1310.396,2151.541"/>
<path fill="#E14C45" d="M1313.586,2185.297c11.67-2.58,23.338-5.161,35.275-8.357c17.677-4.706,32.246-8.943,43.704-12.706
	c11.32-3.465,21.284-7.146,29.448-10.885c7.998-4.174,25.446-15.892,52.478-35.462c26.594-19.396,63.542-84.501,110.877-194.581
	c-2.55-8.381-5.191-15.711-8.101-22.426l-3.513,1.385c-49.547,146.231-127.249,231.502-233.141,255.095
	c-5.177,1.027-10.264,1.009-14.949,0.068c-5.43-0.897-10.462-2.715-15.268-5.889c-17.512,5.144-34.315,9.502-50.242,13.514
	c-175.568,42.504-279.996,19.074-313.469-70.734c11.92,75.74,101.758,111.035,269.5,105.88l20.348-2.459
	c24.074-2.663,48.236-6.377,72.624-11.451C1310.477,2185.768,1311.967,2185.689,1313.586,2185.297"/>
<path fill="#FCE7F4" d="M1321.807,2136.112c6.239-3.479,12.168-7.093,17.792-10.841c75.269-47.773,123.625-103.938,144.746-168.624
	l1.727-3.983c3.153-10.637,6.479-20.837,9.983-30.596c-29.628,10.443-55.723,25.324-78.455,44.207
	c-7.999,6.718-15.526,14.006-22.572,21.865c-14.088,15.721-26.56,33.597-37.562,53.932
	C1342.374,2069.361,1330.632,2100.649,1321.807,2136.112"/>
<path fill="#F1D1D1" d="M879.214,2674.76c15.738,9.006,24.245,19.602,25.815,31.923c19.04,39.172,110.857,94.243,275.177,165.815
	c25.507,9.965,50.522,13.529,75.604,10.215c43.885-14.815,82.061-13.913,114.687,3.135c6.259,2.351,12.033,4.125,17.33,5.329
	c3.155,0.277,6.444,0.246,9.866-0.09c2.538,0.01,4.906-0.42,7.233-1.594c1.188-0.213,2.679-0.295,3.993-0.816l7.044-7.86
	c8.333-0.754,17.1-1.683,26.135-3.224c6.054-1.378,12.414-2.625,19.039-4.482c24.833-7.789,44.039-20.203,58.221-36.974
	c8.111-23.767,31.787-25.512,71.328-5.103c3.102,2.071,6.774,3.663,10.851,4.34c7.268,1.692,14.667,3.08,22.032,3.726
	c23.794,0.492,44.065-6.001,60.817-19.478c4.788-2.652,9.577-5.307,14.411-7.215c10.488-4.905,20.229-7.231,28.907-7.108
	c127.314-74.694,209.742-169.202,247.546-284.144c4.083-12.782,7.557-25.828,10.721-39.001
	c-28.736,29.374-58.701,36.395-90.328,21.237c-10.115,9.076-15.992,21.805-18.215,38.669c1.522,25.032-10.45,38.396-36.189,40.701
	c-22.929,1.706-38.588,16.018-46.675,43.071c-19.854,11.402-39.872,19.822-59.925,24.959l-69.951,11.153
	c-46.627,8.532-85.396,4.825-116.621-11.254c-147.297,53.658-288.161,53-421.961-1.713
	C1044.889,2672.713,962.545,2681.408,879.214,2674.76"/>
<path fill="#EBBBB1" d="M1654.373,2266.052c8.993-2.289,18.256-5.188,27.472-8.83c15.976-5.811,31.916-12.361,48.156-18.784
	c62.58-31.083,105.417-67.811,128.684-109.742c28.96-52.563,27.103-113.757-6.186-183.841l-46.812-128.69
	c-27.243-47.094-29.123-70.463-5.635-70.103c-2.836-2.687-5.367-5.239-8.204-7.922c-45.981,22.998-78.47,57.666-97.762,103.872
	c0.604,2.806,1.338,5.309,2.072,7.808c0.603,2.808,1.378,6.054,2.285,8.993l-0.133,0.306c-11.994,18.447-5.991,40.694,18.008,66.735
	l36.268,59.009c34.25,103.968,9.409,177.226-74.252,219.182c-20.389,12.628-40.897,23.02-61.185,32.054l-36.312,49.378
	c13.659-7.175,28.798-11.893,46.163-14.187C1636.211,2270.184,1645.382,2268.34,1654.373,2266.052"/>
<path fill="#D68577" d="M1681.845,2257.221c-9.217,3.644-18.479,6.542-27.473,8.829l-79.781,200.053
	c179.664-79.645,301.197-210.683,364.26-393.974c-15.836,24.787-42.469,43.438-80.163,56.56
	c-23.271,41.938-66.106,78.665-128.688,109.748C1713.761,2244.86,1697.82,2251.411,1681.845,2257.221"/>
<path fill="#F49A8A" d="M1602.974,2241.958c4.828-1.912,9.351-3.953,14.177-5.861c20.286-9.035,40.797-19.426,61.184-32.055
	c83.661-41.955,108.502-115.212,74.254-219.181l-36.268-59.01c-23.999-26.04-30.001-48.288-18.01-66.734
	c-14.116,1.522-29.943,23.767-48.08,66.467c4.363,14.262,8.865,28.217,13.501,41.867
	C1720.49,2053.891,1700.4,2145.579,1602.974,2241.958"/>
<path fill="#F1D1D1" d="M1543.898,2544.482c-7.385,15.351-27.895,25.741-61.399,30.867c15.547,35.473,37.403,60.591,65.568,75.34
	c31.229,16.08,70,19.789,116.625,11.256l69.946-11.156c20.051-5.137,40.07-13.556,59.925-24.959
	c8.087-27.054,23.745-41.365,46.675-43.07c25.738-2.306,37.711-15.669,36.188-40.702c2.224-16.864,8.101-29.592,18.216-38.669
	c31.625,15.158,61.592,8.138,90.329-21.237c12.239-35.801,28.831-63.169,49.771-82.106c19.354-72.367,18.955-136.929-1.19-193.679
	c69.203-11.114,138.298-48.835,207.277-113.15c4.734-33.598,4.452-71.554-0.988-113.564
	c-12.839-43.395-17.879-86.324-14.993-129.088c-90.215,102.41-183.548,172.551-280.287,210.285c-1.5,2.625-2.866,4.942-4.366,7.568
	c-0.842,1.088-1.373,2.313-2.342,3.713c-63.065,183.296-184.6,314.334-364.264,393.98l-29.579,74.121
	C1544.345,2541.762,1543.987,2543.427,1543.898,2544.482"/>
<path fill="#DAA59B" d="M1548.061,2650.687c-28.166-14.751-50.021-39.867-65.568-75.341
	c-36.129,25.448-106.576,30.206-211.479,14.574c-47.959,25.05-96.207,44.884-144.912,59.064
	C1259.903,2703.695,1400.759,2704.352,1548.061,2650.687"/>
<path fill="#C07E50" d="M2047.744,2389.97c-4.178,2.917-8.177,6.276-12.003,10.074c-20.94,18.937-37.531,46.305-49.771,82.106
	c-3.168,13.179-6.641,26.225-10.725,39.007c164.988-80.191,272.04-205.502,321.155-375.919c-21.388-0.176-43.427-1.361-66.426-3.687
	c-11.038,30.501-27.882,55.942-50.535,76.313c-9.239,8.729-18.994,16.139-29.717,22.405c-3.335,1.829-6.943,4.267-10.506,7.454
	c-4.319,5.766-6.981,14.435-7.86,25.696C2126.67,2305.22,2098.9,2344.114,2047.744,2389.97"/>
<path fill="#D3AB9B" d="M2035.741,2400.045c3.826-3.798,7.825-7.157,12.003-10.074c51.157-45.856,78.926-84.75,83.612-116.551
	c0.88-11.261,3.542-19.93,7.861-25.695c3.563-3.189,7.17-5.626,10.505-7.455c10.724-6.267,20.477-13.671,29.714-22.398
	c22.658-20.377,39.501-45.818,50.538-76.318c5.316-14.794,9.063-30.996,11.854-48.339c-68.984,64.32-138.077,102.041-207.278,113.15
	C2054.697,2263.115,2055.095,2327.677,2035.741,2400.045"/>
<path fill="#D2AB8D" d="M1975.248,2521.152c-37.803,114.94-120.23,209.443-247.545,284.139c-8.679-0.124-18.418,2.203-28.908,7.113
	c75.222,126.09,205.78,159.753,392.274,101.248c39.198-35.032,80.113-52.225,122.181-51.094
	c18.207-3.385,34.258-7.697,47.871-13.076c31.25-76.311,25.098-158.643-18.153-246.868c56.196-2.931,104.298,12.825,144.438,46.953
	l3.795,3.828c8.795-6.01,18.716-10.443,29.642-12.984l15.702-2.651l12.859,5.573c32.126,10.646,60.54-2.866,85.194-41.292
	c54.444-67.708,77.966-129.542,70.567-185.495c-16.242-37.231-16.896-70.982-1.385-101.729
	c5.257-10.455,12.485-20.417,21.375-30.024c2.475-4.022,4.637-8.177,6.668-12.028c34.332-69.153,21.192-147.957-39.717-236.561
	l-42.664,37.166c-64.139,48.956-148.343,72.85-253.039,71.859C2247.285,2315.655,2140.235,2440.96,1975.248,2521.152"/>
<path fill="#FBE0DF" d="M1562.103,1544.728c17.321,7.868,33.954,13.986,49.274,18.078c45.929,11.537,82.464,4.454,109.744-21.558
	c14.08-13.178,35.282-43.642,63.478-91.081c11.07-27.217,33.449-55.346,67.44-84.269l-4.354-5.888l4.486,5.583
	c20.136-17.101,44.442-34.576,72.614-52.564c-15.733-11.549-27.645-24.349-36.08-39.28c-10.621,35.412-25.894,62.258-45.513,80.675
	c-12.099,11.128-25.852,19.355-41.122,24.376c-2.195,0.868-3.952,1.563-6.016,2.125c-15.181,3.973-30.185,8.383-44.886,12.926
	c-15.449,4.58-30.373,10.475-44.512,17.08c-88.786,41.189-137.75,75.264-147.633,102.265
	C1543.703,1530.93,1544.712,1541.192,1562.103,1544.728"/>
<path fill="#F38A77" d="M1274.429,1530.282c-8.32-1.786-16.335-3.44-24.39-5.842c-82.028,28.112-147.455,80.88-195.979,158.429
	c38.759-15.573,81.384-20.747,128.435-15.997l19.93-29.198C1221.26,1596.726,1245.159,1560.885,1274.429,1530.282"/>
<path fill="#FBB1BE" d="M1202.427,1637.669l-19.929,29.197c13.535,1.5,27.461,4.624,42.388,9.637
	c25.501-9.317,55.576-11.563,90.527-6.603l-26.06-47.308l-11.668,13.497c-11.588,4.072-20.163,0.356-25.114-10.884
	C1234.369,1639.507,1217.564,1643.866,1202.427,1637.669"/>
<path fill="#EC5948" d="M1315.413,1669.9c17.039,2.656,35.343,6.585,54.957,12.538c-28.359-21.019-51.654-58.762-69.448-113.399
	c56.565,3.778,105.036,26.24,145.415,67.383c25.673-8.881,59.302-11.771,101.317-8.839c-42.015-2.932-75.644-0.042-101.317,8.839
	c-29.496,10.136-47.974,27.593-56.313,52.715c-2.4,8.055-4.015,16.814-4.669,26.718c-5.433,31.841-2.931,52.932,7.68,63.712
	c0.477,0.572,1.398,0.971,2.313,1.367c2.36,2.113,5.423,3.44,9.056,4.288c8.36,2.532,19.1,2.093,32.792-1.794
	c39.067-4.533,85.539,22.52,139.473,81.904l59.441,61.775c10.464,13.629,19.88,27.166,27.624,40.346
	c-4.634-13.65-9.136-27.606-13.501-41.867c-19.773-63.497-34.975-130.836-46.039-201.839c-4.788-30.083-9-60.648-12.072-92.172
	c-2.06,0.56-3.818,1.255-5.708,2.255c-34.229,10.993-49.158-13.3-44.798-72.891c-1.181,0.217-2.063,0.563-3.109,0.472
	c-40.993,13.156-68.822,1.824-83.141-33.121c-66.449,12.312-126.803,13.074-180.929,1.986
	c-29.271,30.604-53.169,66.445-72.006,107.394c15.137,6.195,31.943,1.838,50.145-12.464c4.951,11.241,13.526,14.958,25.114,10.884
	l11.668-13.497L1315.413,1669.9"/>
<path fill="#FBB1BE" d="M1370.37,1682.438c-19.613-5.953-37.917-9.882-54.957-12.538c-34.951-4.961-65.027-2.716-90.527,6.603
	c-12.468,4.42-23.492,10.556-33.385,18.272c80.688-0.681,128.538,67.709,144.289,205.124
	c-18.511,14.166-35.091,28.083-49.782,40.995c-15.261,13.394-28.463,26.224-39.295,38.628l1.695,3.645
	c15.282-7.563,30.647-13.637,45.828-17.608c10.886-3.286,21.672-5.522,32.201-7.145c32.012-5.043,62.505-2.38,91.174,7.864
	c22.736-18.888,48.822-33.765,78.444-44.21c8.727-23.501,18.807-44.233,30.098-61.893l2.898-1.657c-3.36-4-6.144-8.48-8.403-14.188
	c-36.098-23.286-74.848-42.989-116.248-59.11c-3.632-0.849-6.695-2.176-9.055-4.288c-0.915-0.396-1.836-0.796-2.313-1.367
	c-10.61-10.78-13.112-31.872-7.679-63.713c0.652-9.902,2.269-18.663,4.668-26.718
	C1383.454,1686.656,1376.758,1684.482,1370.37,1682.438"/>
<path fill="#DB3F36" d="M1326.433,1958.423c-10.529,1.622-21.314,3.856-32.2,7.143c32.902,13.896,54.188,39.491,63.244,76.518
	c10.994-20.337,23.466-38.213,37.554-53.933c7.046-7.861,14.574-15.149,22.578-21.865
	C1388.939,1956.043,1358.446,1953.379,1326.433,1958.423"/>
<path fill="#F49A8A" d="M1586.407,1633.836c1.89-1,3.648-1.695,5.709-2.255c11.93-3.196,22.491-1.532,32.281,5.256l0.61,0.265
	c8.073,8.228,16.728,13.436,26.102,15.316c13.619,2.988,28.802-0.979,45.236-12.047c-24.326-32.006-53.643-54.168-88.438-67.064
	c-20.437-7.401-42.336-11.435-66.303-12.364C1537.244,1620.533,1552.18,1644.827,1586.407,1633.836"/>
<path fill="#E36A49" d="M1734.565,1694.043c-26.188-16.806-54.003-30.679-83.456-41.624c-9.375-1.882-18.029-7.088-26.102-15.316
	l-0.61-0.265c-9.791-6.789-20.352-8.452-32.282-5.256c3.072,31.523,7.283,62.088,12.072,92.171
	c44.174,23.146,74.125,62.319,89.896,118.266c19.292-46.207,51.781-80.875,97.762-103.872c-6.767-6.208-13.673-12.11-20.705-17.705
	C1759.257,1710.925,1747.113,1702.024,1734.565,1694.043"/>
<path fill="#D1412A" d="M1604.188,1723.752c11.063,71.002,26.266,138.342,46.038,201.84c18.138-42.704,33.966-64.946,48.083-66.469
	l0.132-0.305c-0.907-2.939-1.683-6.187-2.284-8.992c-0.734-2.501-1.47-5.004-2.073-7.81
	C1678.313,1786.071,1648.361,1746.899,1604.188,1723.752"/>
<path fill="#EBBBB1" d="M2037.983,1919.749c-0.438,0.177-0.876,0.349-1.009,0.654c-29.288,24.779-51.302,48.703-65.898,71.479
	c-4.127,22.951-12.59,45.839-25.525,68.97c96.747-37.738,190.08-107.88,280.295-210.289c12.039-72.263-2.173-124.256-42.89-155.362
	c-22.775-14.599-43.514-35.588-62.206-62.969c-6.357,33.983-8.665,62.814-6.617,86.619c-0.048,1.798,0.206,3.72,0.464,5.65
	c-0.694,30.983-5.772,61.159-15.967,90.572c-1.421,4.112-3.279,8.401-4.698,12.515
	C2081.183,1859.531,2062.52,1890.006,2037.983,1919.749"/>
<path fill="#EE5A50" d="M1858.759,1545.969l-6.138-0.117c-22.354,12.138-41.561,24.552-57.472,36.937
	c-47.486,36.532-67.577,73.665-60.585,111.254c12.549,7.982,24.692,16.883,36.576,26.398c58.52-23.383,89.624-64.108,92.882-121.991
	C1860.847,1581.432,1858.992,1563.891,1858.759,1545.969"/>
<path fill="#C07E50" d="M2604.641,2024.906l-12.535,11.3c60.909,88.604,74.046,167.415,39.717,236.561l3.54,1.9
	c44.864-40.572,41.489-137.708-10.609-291.973C2627.03,1994.227,2620.183,2008.358,2604.641,2024.906"/>
<path fill="#A68560" d="M2391.201,2653.396l-3.795-3.828c-40.141-34.129-88.242-49.884-144.439-46.953
	c43.252,88.227,49.404,170.558,18.156,246.862c36.296-14.094,57.118-35.263,62.884-63.686l12.729-48.684
	C2349.348,2697.1,2367.56,2669.341,2391.201,2653.396"/>
<path fill="none" stroke="#333333" stroke-width="8" stroke-linecap="round" stroke-linejoin="round" stroke-miterlimit="10" d="
	M734.257,382.76c-65.664,13.015-113.676,50.774-143.424,113.551c-47.37,84.958-49.452,156.08-5.947,213.499
	c5.665,7.913,11.289,15.076,16.608,22.112"/>
<path fill="none" stroke="#333333" stroke-width="8" stroke-linecap="round" stroke-linejoin="round" stroke-miterlimit="10" d="
	M324.995,880.561c-21.77-56.363-26.672-113.049-14.961-169.455c16.287-103.886,58.319-179.89,125.827-227.389
	c5.27-34.826,45.278-76.778,120.774-125.91c179.489-91.002,322.531-110.499,428.513-58.743"/>
<path fill="none" stroke="#333333" stroke-width="8" stroke-linecap="round" stroke-linejoin="round" stroke-miterlimit="10" d="
	M985.148,299.064c39.293,15.935,73.013,33.823,101.158,53.658c32.514,23.185,57.085,48.747,74.319,76.956"/>
<path fill="none" stroke="#333333" stroke-width="8" stroke-linecap="round" stroke-linejoin="round" stroke-miterlimit="10" d="
	M1278.88,721.734l-112.029-52.919c-85.165-18.351-129.581-45.969-132.981-83.457c-13.159-8.246-24.205-18.852-33.269-31.513
	c-17.65-24.751-27.95-57.222-30.765-97.733c-66.643-48.519-145.126-73.074-235.58-73.353"/>
<path fill="none" stroke="#333333" stroke-width="8" stroke-linecap="round" stroke-linejoin="round" stroke-miterlimit="10" d="
	M1250.395,796.695c6.24-25.31,15.633-50.342,28.486-74.96"/>
<path fill="none" stroke="#333333" stroke-width="8" stroke-linecap="round" stroke-linejoin="round" stroke-miterlimit="10" d="
	M1436.26,680.075c-31.333-12.486-58.089-17.9-81.151-15.886"/>
<path fill="none" stroke="#333333" stroke-width="8" stroke-linecap="round" stroke-linejoin="round" stroke-miterlimit="10" d="
	M1160.637,429.668c55.166,46.464,110.322,73.644,165.338,81.84c38.808,59.015,82.569,107.445,130.804,144.718
	c-5.208,8.656-9.8,17.58-14.089,26.635c-24.757,52.931-34.362,109.516-28.78,170.502c-33.088,42.771-23.637,78.881,28.092,108.937
	c66.057,51.548,126.052,107.011,179.845,166.701c26.058,36.395,55.695,67.066,88.6,91.869"/>
<path fill="none" stroke="#333333" stroke-width="8" stroke-linecap="round" stroke-linejoin="round" stroke-miterlimit="10" d="
	M1355.109,664.189c-10.564,0.878-20.306,3.207-28.909,7.116c-20.286,9.035-35.959,25.888-47.32,50.43"/>
<path fill="none" stroke="#333333" stroke-width="8" stroke-linecap="round" stroke-linejoin="round" stroke-miterlimit="10" d="
	M734.257,382.76c49.26-9.574,108.672-5.651,177.979,12.383c169.083,43.804,316.766,133.639,442.875,269.047"/>
<path fill="none" stroke="#333333" stroke-width="8" stroke-linecap="round" stroke-linejoin="round" stroke-miterlimit="10" d="
	M1931.544,464.741c-33.507-49.441-75.153-89.315-124.34-119.362c-41.45-44.522-88.583-72.586-140.779-83.931
	c-47.438-17.284-83.873-46.53-109.913-88.011c-1.482,19.365-30.108,20.786-85.265,4.52c-0.48-0.57-0.828-1.452-1.305-2.021
	c-0.789-0.706-1.134-1.579-1.614-2.156c-47.336-64.53-116.319-74.056-207.272-28.709c-27.93,14.084-50.033,39.064-66.481,74.503"/>
<path fill="none" stroke="#333333" stroke-width="8" stroke-linecap="round" stroke-linejoin="round" stroke-miterlimit="10" d="
	M985.153,299.052c64.101-60.612,133.808-87.152,209.424-79.484c-22.554,49.517-33.97,119.513-33.947,210.098"/>
<path fill="none" stroke="#333333" stroke-width="8" stroke-linecap="round" stroke-linejoin="round" stroke-miterlimit="10" d="
	M1826.336,350.755c26.173-2.477,52.799-18.583,80.006-48.626c41.101,35.268,65.382,77.444,72.683,126.08"/>
<path fill="none" stroke="#333333" stroke-width="8" stroke-linecap="round" stroke-linejoin="round" stroke-miterlimit="10" d="
	M1979.025,428.21c-16.263,11.502-32.045,23.577-47.481,36.53"/>
<path fill="none" stroke="#333333" stroke-width="8" stroke-linecap="round" stroke-linejoin="round" stroke-miterlimit="10" d="
	M2537.664,1017.705c17.157-47.131,24.287-97.158,21.383-150.07c20.839-37.166,27.506-81.929,20.267-134.901
	c7.989-34.372-3.916-60.628-36.183-79.342c-27.667-19.266-38.092-43.066-32.014-71.353l-3.502-22.974
	c9.646-12.191,8.028-22.719-4.82-30.83c-8.414-11.653-9.271-27.301-2.574-46.95c20.93-27.308,17.012-44.288-11.894-50.626
	c-13.491-0.759-23.429-4.696-29.359-11.998c-4.785-8.255-8.083-16.599-10.062-25.462c-2.463-9.431-5.534-19.132-9.177-28.348
	c-35.923-69.04-106.24-86.419-211.525-51.653c-88.959,21.47-172.216,59.962-249.179,115.01"/>
<path fill="none" stroke="#333333" stroke-width="8" stroke-linecap="round" stroke-linejoin="round" stroke-miterlimit="10" d="
	M1931.544,464.741c158.109,242.039,150.276,456.54-24.129,643.24c-0.705,0.789-1.846,1.75-2.548,2.534"/>
<path fill="none" stroke="#333333" stroke-width="8" stroke-linecap="round" stroke-linejoin="round" stroke-miterlimit="10" d="
	M1892.652,1095.038c-33.445-193.107-95.201-354.459-184.696-484.557c37.227,125.636,75.808,240.568,115.449,344.684
	C1847.605,1017.675,1870.78,1064.095,1892.652,1095.038z"/>
<path fill="none" stroke="#333333" stroke-width="8" stroke-linecap="round" stroke-linejoin="round" stroke-miterlimit="10" d="
	M1892.652,1095.038c3.752,5.627,8.065,10.773,12.214,15.477"/>
<path fill="none" stroke="#333333" stroke-width="8" stroke-linecap="round" stroke-linejoin="round" stroke-miterlimit="10" d="
	M2742.291,1418.499c-9.108-98.167-76.354-160.412-201.281-186.904c30.556-12.586,58.172-35.176,83.113-68.383
	c3.743-5.292,7.75-11.194,11.763-17.09c-16.718-48.711-49.413-91.619-98.225-128.411"/>
<path fill="none" stroke="#333333" stroke-width="8" stroke-linecap="round" stroke-linejoin="round" stroke-miterlimit="10" d="
	M1774.56,1264.301c7.457-207.759-84.147-422.787-274.993-645.548c-95.492-97.769-208.664-160.64-338.936-189.088"/>
<path fill="none" stroke="#333333" stroke-width="8" stroke-linecap="round" stroke-linejoin="round" stroke-miterlimit="10" d="
	M451.059,843.158l18.56,16.774c8.739,17.608,22.305,33.309,40.834,46.795c22.725,16.396,52.91,29.842,90.865,40.469
	c27.808,5.503,49.576,18.213,65.452,37.824c7.484,13.792,16.771,25.092,28.002,33.597c9.829,7.534,21.069,13.496,33.983,17.274
	c7.749,2.267,16.202,3.75,24.922,4.616c3.766,0.541,7.226,0.95,10.952,0.746c5.522-0.154,11.046-0.308,16.262-0.59
	c5.354-0.594,10.783,0.305,15.989,2.561c15.75,6.459,32.024,25.155,48.642,55.641"/>
<path fill="none" stroke="#333333" stroke-width="8" stroke-linecap="round" stroke-linejoin="round" stroke-miterlimit="10" d="
	M492.939,772.546c-0.44,0.171-1.186,0.209-1.49,0.077c-0.44,0.179-0.748,0.045-1.186,0.22c-0.307-0.133-0.307-0.133-0.744,0.039
	l-0.305-0.132c-46.808-0.278-63.355,16.922-50.258,51.338c2.458,9.435,6.688,15.629,12.104,19.072
	c6.646,3.967,15.854,2.87,27.758-3.615c3.165-2.268,6.33-4.532,9.189-6.931c5.009-4.011,9.412-8.292,13.506-12.698
	c3.777-2.001,8.036-3.431,12.906-4.596c18.77-3.867,45.713-0.558,80.861,10.673c60.649,23.74,118.863,52.236,174.651,85.508
	c0.308,0.133,0.613,0.266,0.921,0.399c8.349,5.075,17.004,10.282,25.223,15.662"/>
<path fill="none" stroke="#333333" stroke-width="8" stroke-linecap="round" stroke-linejoin="round" stroke-miterlimit="10" d="
	M306.973,1261.254c49.066-4.929,89.625-31.368,122.428-79.36c26.194-7.562,42.539-28.489,48.594-62.608
	c3.101-19.749,2.981-43.809-0.234-72.485c-4.748-40.254,5.607-85.967,30.619-136.97c-48.011,26.847-83.467,59.134-106.805,97.039"/>
<path fill="none" stroke="#333333" stroke-width="8" stroke-linecap="round" stroke-linejoin="round" stroke-miterlimit="10" d="
	M401.574,1006.873c-34.896-42.04-60.364-83.999-76.585-126.314"/>
<path fill="none" stroke="#333333" stroke-width="8" stroke-linecap="round" stroke-linejoin="round" stroke-miterlimit="10" d="
	M621.413,757.293c-29.616,18.811-72.104,23.68-127.426,15.352c-0.44,0.171-0.744,0.039-1.05-0.093"/>
<path fill="none" stroke="#333333" stroke-width="8" stroke-linecap="round" stroke-linejoin="round" stroke-miterlimit="10" d="
	M796.073,927.565c-8.832-5.646-17.091-11.768-24.909-18.07c-25.428-19.388-44.94-39.844-58.83-61.51
	c-11.559-14.465-25.134-27.624-40.601-39.784c-0.132,0.305-0.132,0.305-0.305-0.132c-4.944-2.865-9.618-6.35-14.028-10.442
	c-2.183-1.677-4.367-3.35-6.114-5.2c-1.266-1.273-2.53-2.553-3.797-3.827c-6.804-6.949-15.306-17.545-26.075-31.308"/>
<path fill="none" stroke="#333333" stroke-width="8" stroke-linecap="round" stroke-linejoin="round" stroke-miterlimit="10" d="
	M601.486,731.925c7.237,9.318,13.997,18.066,19.927,25.369"/>
<path fill="none" stroke="#333333" stroke-width="8" stroke-linecap="round" stroke-linejoin="round" stroke-miterlimit="10" d="
	M601.486,731.925c-33.71,23.224-70.055,36.576-108.55,40.626"/>
<path fill="none" stroke="#333333" stroke-width="8" stroke-linecap="round" stroke-linejoin="round" stroke-miterlimit="10" d="
	M324.989,880.558c-45.878,63.057-102.303,110.996-169.273,143.817C83.487,1089.466,53.441,1171.39,65.23,1269.26l0.471,3.113
	c-2.512,3.277-4.237,7.259-5.177,11.946c-6.024,26.492,12.105,73.635,54.868,142.005"/>
<path fill="none" stroke="#333333" stroke-width="8" stroke-linecap="round" stroke-linejoin="round" stroke-miterlimit="10" d="
	M758.612,1649.42c-53.308,14.729-103.7,22.721-151.036,23.669c-35.988,0.775-70.247-2.435-102.776-9.617
	c-16.64-3.573-32.749-8.373-48.152-13.954c-12.516-4.699-24.765-10.008-36.751-15.927c-35.649-17.635-68.644-41.391-99.114-70.965
	c-8.381-8.36-16.937-17.162-24.918-26.441c-14.487-16.1-28.308-33.731-41.162-52.762c-80.476-93.808-99.146-180.835-55.867-261.394"
	/>
<path fill="none" stroke="#333333" stroke-width="8" stroke-linecap="round" stroke-linejoin="round" stroke-miterlimit="10" d="
	M380.384,1054.074c-95.463,12.105-165.446,63.626-209.945,154.558c-17.899,36.262-31.701,79.025-41.28,127.986
	c0.696,34.496-3.94,64.498-13.772,89.705c-4.606,11.464-10.303,22.089-17.266,31.442c-16.345,42.75-15.417,84.261,2.213,125.004
	c0.481,0.57,0.828,1.449,1.173,2.327c26.873,53.836,33.596,102.95,20.315,147.031c-3.516,45.04,10.512,99.137,41.94,162.596
	c2.746,58.303,37.005,94.249,102.907,107.528c2.888,0.89,6.215,1.604,9.372,1.881"/>
<path fill="none" stroke="#333333" stroke-width="8" stroke-linecap="round" stroke-linejoin="round" stroke-miterlimit="10" d="
	M368.191,1131.731c-0.133,11.222,0.652,22.836,2.048,34.721c-36.384,12.606-57.373,44.253-63.274,94.805l-108.141-39.226"/>
<path fill="none" stroke="#333333" stroke-width="8" stroke-linecap="round" stroke-linejoin="round" stroke-miterlimit="10" d="
	M380.384,1054.074c-7.945,24.207-12.213,50.002-12.192,77.657"/>
<path fill="none" stroke="#333333" stroke-width="8" stroke-linecap="round" stroke-linejoin="round" stroke-miterlimit="10" d="
	M368.191,1131.731c-59.731,20.314-116.086,50.458-169.367,90.301"/>
<line fill="none" stroke="#333333" stroke-width="8" stroke-linecap="round" stroke-linejoin="round" stroke-miterlimit="10" x1="675.692" y1="1508.352" x2="675.376" y2="1510.762"/>
<path fill="none" stroke="#333333" stroke-width="8" stroke-linecap="round" stroke-linejoin="round" stroke-miterlimit="10" d="
	M675.692,1508.352c-0.437,0.174-1.05-0.092-1.489,0.083c0.345,0.877,0.693,1.753,1.173,2.327
	c11.064,27.35,25.89,46.869,43.723,58.598c25.205,20.745,38.332,47.533,39.516,80.062"/>
<path fill="none" stroke="#333333" stroke-width="8" stroke-linecap="round" stroke-linejoin="round" stroke-miterlimit="10" d="
	M950.454,1841.325c0.193,6.269,0.386,12.536,0.886,18.939"/>
<path fill="none" stroke="#333333" stroke-width="8" stroke-linecap="round" stroke-linejoin="round" stroke-miterlimit="10" d="
	M910.583,1730.193c13.343,17.059,23.429,37.437,30.562,61.264c4.278,15.314,7.278,31.891,9.309,49.868"/>
<path fill="none" stroke="#333333" stroke-width="8" stroke-linecap="round" stroke-linejoin="round" stroke-miterlimit="10" d="
	M1054.045,1682.87c-10.096,3.99-19.711,8.554-28.847,13.687c-16.479,10.323-28.177,20.53-34.967,30.319
	c-7.402,9.524-16.406,25.268-27.013,47.226c-3.36,6.909-6.371,14.7-8.291,23.328c-3.031,12.872-4.625,27.46-4.473,43.896"/>
<path fill="none" stroke="#333333" stroke-width="8" stroke-linecap="round" stroke-linejoin="round" stroke-miterlimit="10" d="
	M910.583,1730.193c23.59-3.237,43.897-17.354,61.182-42.965l19.245-44.407"/>
<path fill="none" stroke="#333333" stroke-width="8" stroke-linecap="round" stroke-linejoin="round" stroke-miterlimit="10" d="
	M758.605,1649.417c24.185,23.938,46.727,42.438,67.931,55.629c31.737,19.938,59.709,28.422,84.047,25.147"/>
<path fill="none" stroke="#333333" stroke-width="8" stroke-linecap="round" stroke-linejoin="round" stroke-miterlimit="10" d="
	M821.11,1387.672c-8.462,11.975-15.445,26.409-20.378,42.825c-3.79,48.197-45.266,74.237-125.048,77.858"/>
<path fill="none" stroke="#333333" stroke-width="8" stroke-linecap="round" stroke-linejoin="round" stroke-miterlimit="10" d="
	M1004.168,1238.917c-44.929,34.004-31.977,82.18,38.858,144.527l69.563,63.609c39.859,37.282,85.813,63.021,137.431,77.386"/>
<path fill="none" stroke="#333333" stroke-width="8" stroke-linecap="round" stroke-linejoin="round" stroke-miterlimit="10" d="
	M914.96,1340.677c2.238-0.124,4.778-0.115,7.32-0.103c86.723,13.938,129.894,67.933,129.516,161.985l-60.785,140.263"/>
<path fill="none" stroke="#333333" stroke-width="8" stroke-linecap="round" stroke-linejoin="round" stroke-miterlimit="10" d="
	M914.96,1340.677c-42.038,2.151-73.176,17.759-93.85,46.996c-48.674,39.292-95.218,49.316-140.106,29.499
	c8.597,31.375,6.678,61.819-5.318,91.179"/>
<path fill="none" stroke="#333333" stroke-width="8" stroke-linecap="round" stroke-linejoin="round" stroke-miterlimit="10" d="
	M796.066,927.563c4.33,2.601,8.962,5.341,13.468,8.38c8.215,5.379,16.604,11.204,25.437,16.851
	c23.295,15.915,48.028,33.546,74.818,53.156"/>
<path fill="none" stroke="#333333" stroke-width="8" stroke-linecap="round" stroke-linejoin="round" stroke-miterlimit="10" d="
	M845.512,1098.869c-21.776,9.113-40.244,24.028-55.708,44.609c20.292,21.164,45.405,32.047,74.856,32.079"/>
<path fill="none" stroke="#333333" stroke-width="8" stroke-linecap="round" stroke-linejoin="round" stroke-miterlimit="10" d="
	M864.66,1175.556c-0.583,13.936,0.233,28.841,2.491,45.46c13.269,2.113,25.929,3.961,38.721,5.502"/>
<path fill="none" stroke="#333333" stroke-width="8" stroke-linecap="round" stroke-linejoin="round" stroke-miterlimit="10" d="
	M905.417,1089.906c-2.408-0.316-5.126-0.765-7.4-1.388c-11.486,0.479-22.49,1.532-32.976,3.897
	c-6.934,1.726-13.252,3.718-19.529,6.454"/>
<path fill="none" stroke="#333333" stroke-width="8" stroke-linecap="round" stroke-linejoin="round" stroke-miterlimit="10" d="
	M1068.392,975.738c-68.101-1.504-119.472,10.429-154.374,36.407c-25.013,18.262-41.725,43.396-50.446,75.271"/>
<path fill="none" stroke="#333333" stroke-width="8" stroke-linecap="round" stroke-linejoin="round" stroke-miterlimit="10" d="
	M905.417,1089.906c-25.491,17.691-38.887,46.084-40.757,85.651"/>
<path fill="none" stroke="#333333" stroke-width="8" stroke-linecap="round" stroke-linejoin="round" stroke-miterlimit="10" d="
	M1004.171,1238.926c19.714,46.01,48.346,85.703,85.29,118.811c78.744,56.681,131.277,71.443,157.73,43.981"/>
<path fill="none" stroke="#333333" stroke-width="8" stroke-linecap="round" stroke-linejoin="round" stroke-miterlimit="10" d="
	M1272.151,1082.238c-35.862-7.904-61.037,7.375-75.832,45.711c-34.74,61.701-97.026,95.458-187.422,101.749"/>
<path fill="none" stroke="#333333" stroke-width="8" stroke-linecap="round" stroke-linejoin="round" stroke-miterlimit="10" d="
	M905.879,1226.521c37.456,4.227,71.901,5.333,103.026,3.18"/>
<path fill="none" stroke="#333333" stroke-width="8" stroke-linecap="round" stroke-linejoin="round" stroke-miterlimit="10" d="
	M1008.905,1229.701c-2.377,2.97-4.013,5.899-4.728,9.228"/>
<path fill="none" stroke="#333333" stroke-width="8" stroke-linecap="round" stroke-linejoin="round" stroke-miterlimit="10" d="
	M1250.392,796.702c-46.451,8.972-95.679,32.748-147.547,71.017c-4.88,3.705-9.761,7.408-14.773,11.423"/>
<path fill="none" stroke="#333333" stroke-width="8" stroke-linecap="round" stroke-linejoin="round" stroke-miterlimit="10" d="
	M1068.397,975.74c22.511,4.299,45.471,5.88,68.397,4.178"/>
<path fill="none" stroke="#333333" stroke-width="8" stroke-linecap="round" stroke-linejoin="round" stroke-miterlimit="10" d="
	M1314.3,967.35c-1.645,5.476-3.9,10.68-6.463,15.756c-18.088,19.075-20.144,38.924-5.412,59.496
	c-10.833,12.402-20.879,25.51-30.27,39.63"/>
<path fill="none" stroke="#333333" stroke-width="8" stroke-linecap="round" stroke-linejoin="round" stroke-miterlimit="10" d="
	M1315.863,960.39c-0.625,2.28-0.94,4.687-1.563,6.96"/>
<path fill="none" stroke="#333333" stroke-width="8" stroke-linecap="round" stroke-linejoin="round" stroke-miterlimit="10" d="
	M1239.083,915.114c-7.829-14.675-7.104-31.455,2.441-50.964c0.401-22.746,3.341-45.481,8.864-67.458"/>
<path fill="none" stroke="#333333" stroke-width="8" stroke-linecap="round" stroke-linejoin="round" stroke-miterlimit="10" d="
	M1315.863,960.39c-40.804-10.77-66.603-25.951-76.779-45.275"/>
<path fill="none" stroke="#333333" stroke-width="8" stroke-linecap="round" stroke-linejoin="round" stroke-miterlimit="10" d="
	M1326.187,671.305c-15.795,80.099-19.114,164.147-9.915,252.884c1.653,13.811,1.561,25.777-0.409,36.2"/>
<path fill="none" stroke="#333333" stroke-width="8" stroke-linecap="round" stroke-linejoin="round" stroke-miterlimit="10" d="
	M1136.789,979.917c23.066-2.013,46.573-6.738,70.054-14.751c42.869-11.619,78.499-10.729,107.46,2.185"/>
<path fill="none" stroke="#333333" stroke-width="8" stroke-linecap="round" stroke-linejoin="round" stroke-miterlimit="10" d="
	M1239.083,915.114c-72.052-32.681-122.187-44.588-151.016-35.981c-30.584,9.297-37.199,41.353-19.677,96.605"/>
<path fill="none" stroke="#333333" stroke-width="8" stroke-linecap="round" stroke-linejoin="round" stroke-miterlimit="10" d="
	M1272.153,1082.233c-25.042,36.8-46.032,79.358-63.316,126.799c-32.037,108.337-20.542,170.793,34.176,187.231
	c1.437,1.717,2.744,3.736,4.185,5.452"/>
<path fill="none" stroke="#333333" stroke-width="8" stroke-linecap="round" stroke-linejoin="round" stroke-miterlimit="10" d="
	M1136.789,979.917c-30.768,98.705-107.838,135.516-231.371,109.989"/>
<path fill="none" stroke="#333333" stroke-width="8" stroke-linecap="round" stroke-linejoin="round" stroke-miterlimit="10" d="
	M905.875,1226.511c-26.717,38.987-23.583,77.085,9.091,114.167"/>
<path fill="none" stroke="#333333" stroke-width="8" stroke-linecap="round" stroke-linejoin="round" stroke-miterlimit="10" d="
	M401.567,1006.87c-9.045,14.997-15.947,30.923-21.184,47.204"/>
<path fill="none" stroke="#333333" stroke-width="8" stroke-linecap="round" stroke-linejoin="round" stroke-miterlimit="10" d="
	M510.088,2295.081c-8.77,22.753-10.045,45.847-3.961,69.581c-0.134,0.309-0.134,0.309,0.171,0.44
	c2.29,8.991,5.321,17.947,9.71,27.125l14.178,48.707l2.073,7.808c26.12,64.795,78.468,114.403,157.476,148.643
	c36.191,13.865,58.649,30.874,67.337,50.273c57.22,4.797,97.633,13.944,122.126,27.103"/>
<path fill="none" stroke="#333333" stroke-width="8" stroke-linecap="round" stroke-linejoin="round" stroke-miterlimit="10" d="
	M769.268,2417.223c-29.675-9.589-58.549-23.555-86.128-41.328c-58.69-20.707-116.384-47.892-173.052-80.814"/>
<path fill="none" stroke="#333333" stroke-width="8" stroke-linecap="round" stroke-linejoin="round" stroke-miterlimit="10" d="
	M295.865,1536.178c-110.859,124.021-119.447,275.623-26.383,454.555l6.567,13.394l2.387,5.399l0.614,0.266"/>
<path fill="none" stroke="#333333" stroke-width="8" stroke-linecap="round" stroke-linejoin="round" stroke-miterlimit="10" d="
	M1025.543,2251.45c-34.199,36.106-74.515,56.104-120.811,59.688c-8.771,0.93-17.581,1.112-26.432,0.552
	c-34.617-1.545-72.226-11.293-112.818-29.25c-33.782-13.549-67.339-28.454-100.187-44.146c-21.96-10.608-44.09-21.651-65.65-33.181
	c-0.613-0.266-1.227-0.531-1.399-0.968c-33.415-17.757-66.734-36.562-99.217-56.459c-31.719-25.021-65.632-38.265-101.562-39.284
	c-40.661-2.705-74.543-23.573-101.777-62.296l-16.639-36.314c-18.224,41.214-14.778,76.903,10.612,106.456
	c31.545,35.497,44.417,60.355,39.1,75.143l31.852,13.804c11.947,2.631,21.737,9.42,29.404,21.107
	c9.002,17,20.723,23.532,35.638,20.177c13.141,2.42,24.992,8.646,35.384,18.244c16.127,10.627,32.524,20.641,49.05,30.353"/>
<path fill="none" stroke="#333333" stroke-width="8" stroke-linecap="round" stroke-linejoin="round" stroke-miterlimit="10" d="
	M951.351,1860.26c-39.496,2.163-74.882,5.745-106.02,10.439c-40.783,5.972-74.429,13.94-100.941,23.916
	c-1.757,0.695-3.511,1.388-5.268,2.082c-26.777,10.586-45.807,23.438-57.082,38.56c-41.499,85.685-36.985,149.119,13.689,189.996
	c3.318,3.257,6.903,5.901,10.486,8.544c3.277,2.511,6.552,5.021,9.789,6.79c1.224,0.53,2.45,1.062,3.236,1.765
	c0.612,0.265,1.226,0.531,2.144,0.929"/>
<path fill="none" stroke="#333333" stroke-width="8" stroke-linecap="round" stroke-linejoin="round" stroke-miterlimit="10" d="
	M721.383,2143.283c3.235,1.767,6.474,3.531,9.842,4.991c55.086,23.146,126.904,5.159,215.456-53.957"/>
<path fill="none" stroke="#333333" stroke-width="8" stroke-linecap="round" stroke-linejoin="round" stroke-miterlimit="10" d="
	M1025.543,2251.45c-138.838,8.949-238.276-24.322-297.881-99.99c-2.095-2.726-4.186-5.45-6.28-8.178"/>
<path fill="none" stroke="#333333" stroke-width="8" stroke-linecap="round" stroke-linejoin="round" stroke-miterlimit="10" d="
	M951.351,1860.26c0.458,5.655,1.225,11.445,2.734,17.19c1.42,6.8,3.409,13.119,6.012,19.702c3.298,8.345,7.035,16.511,11.955,24.461
	l107.71,198.01c-3.513-9.524-4.125-20.703-2.144-33.67c-0.166-0.437-0.033-0.741,0.1-1.049
	c4.076-53.891,14.336-98.555,30.955-133.548"/>
<path fill="none" stroke="#333333" stroke-width="8" stroke-linecap="round" stroke-linejoin="round" stroke-miterlimit="10" d="
	M1051.958,2384.399c-0.99,6.481-0.661,12.446,0.677,17.754"/>
<polyline fill="none" stroke="#333333" stroke-width="8" stroke-linecap="round" stroke-linejoin="round" stroke-miterlimit="10" points="
	1054.153,2372.619 1051.764,2378.132 1051.958,2384.399 "/>
<path fill="none" stroke="#333333" stroke-width="8" stroke-linecap="round" stroke-linejoin="round" stroke-miterlimit="10" d="
	M1054.153,2372.619c-0.487,1.97-0.846,3.633-1.206,5.296c-0.305-0.132-0.305-0.132,0,0c-0.622,2.277-0.804,4.38-0.991,6.483"/>
<path fill="none" stroke="#333333" stroke-width="8" stroke-linecap="round" stroke-linejoin="round" stroke-miterlimit="10" d="
	M1052.634,2402.154c1.724,6.931,4.897,13.036,10.003,18.886"/>
<path fill="none" stroke="#333333" stroke-width="8" stroke-linecap="round" stroke-linejoin="round" stroke-miterlimit="10" d="
	M1323.942,2213.438c-74.108,8.992-140.942,30.592-200.337,65.239c-5.667,3.002-10.853,6.573-15.425,10.41
	c-5.546,5.237-10.61,11.047-15.804,17.162c-2.115,2.355-4.052,5.154-6.168,7.512c-2.51,3.278-5.022,6.557-7.227,9.963
	c-12.605,18.177-21.131,34.488-24.827,48.895"/>
<path fill="none" stroke="#333333" stroke-width="8" stroke-linecap="round" stroke-linejoin="round" stroke-miterlimit="10" d="
	M1062.637,2421.039c-14.632,41.313-13.582,74.146,3.149,98.494c16.122,24.085,47.217,40.471,93.115,48.719
	c41.03,9.415,78.334,16.488,112.106,21.664"/>
<path fill="none" stroke="#333333" stroke-width="8" stroke-linecap="round" stroke-linejoin="round" stroke-miterlimit="10" d="
	M1362.309,2316.281c-17.308,8.869-31.585,18.323-43.729,28.705c-33.992,28.922-47.808,63.313-41,103.003
	c-0.619,2.279-1.242,4.556-1.906,6.087"/>
<path fill="none" stroke="#333333" stroke-width="8" stroke-linecap="round" stroke-linejoin="round" stroke-miterlimit="10" d="
	M1275.674,2454.076c-5.419,7.474-15.021,6.95-29.231-1.393c-23.199-16.963-55.438-21.478-96.674-12.794l-17.714,12.331
	c-33.681-6.226-56.82-16.621-69.42-31.175"/>
<path fill="none" stroke="#333333" stroke-width="8" stroke-linecap="round" stroke-linejoin="round" stroke-miterlimit="10" d="
	M1286.938,2127.566c-25.714,8.136-49.141,14.354-70.287,18.65c-79.66,16.77-125.291,7.905-136.898-26.587"/>
<path fill="none" stroke="#333333" stroke-width="8" stroke-linecap="round" stroke-linejoin="round" stroke-miterlimit="10" d="
	M1025.535,2251.454c54.228-3.417,149.198-24.467,284.163-63.104c0.75-0.041,1.625-0.389,2.5-0.735
	c0.311,0.135,0.311,0.135,0.444-0.173c0.438-0.174,1.181-0.217,1.618-0.39c11.193-3.152,22.511-6.614,34.58-10.115"/>
<path fill="none" stroke="#333333" stroke-width="8" stroke-linecap="round" stroke-linejoin="round" stroke-miterlimit="10" d="
	M946.666,2094.319c11.923,75.741,101.757,111.034,269.505,105.882l20.342-2.46c24.075-2.665,48.236-6.379,72.625-11.452
	c1.32-0.522,2.811-0.601,4.436-0.99c11.663-2.585,23.332-5.165,35.268-8.361"/>
<path fill="none" stroke="#333333" stroke-width="8" stroke-linecap="round" stroke-linejoin="round" stroke-miterlimit="10" d="
	M1573.732,1902.264c-49.545,146.231-127.248,231.503-233.138,255.095c-5.178,1.027-10.265,1.009-14.945,0.071
	c-5.437-0.898-10.467-2.717-15.272-5.891"/>
<path fill="none" stroke="#333333" stroke-width="8" stroke-linecap="round" stroke-linejoin="round" stroke-miterlimit="10" d="
	M1286.934,2127.556c6.893,8.444,14.659,16.538,23.443,23.982"/>
<path fill="none" stroke="#333333" stroke-width="8" stroke-linecap="round" stroke-linejoin="round" stroke-miterlimit="10" d="
	M1310.377,2151.539c-17.513,5.144-34.315,9.503-50.243,13.513c-175.568,42.506-279.998,19.075-313.47-70.733"/>
<path fill="none" stroke="#333333" stroke-width="8" stroke-linecap="round" stroke-linejoin="round" stroke-miterlimit="10" d="
	M1357.453,2042.072c-15.101,27.287-26.843,58.575-35.667,94.039c6.24-3.478,12.17-7.094,17.799-10.839
	c75.269-47.773,123.618-103.94,144.741-168.633l1.726-3.983c3.153-10.638,6.485-20.835,9.984-30.595"/>
<path fill="none" stroke="#333333" stroke-width="8" stroke-linecap="round" stroke-linejoin="round" stroke-miterlimit="10" d="
	M1323.931,2213.433c-15.958,11.639-25.086,25.143-27.208,40.957c120.898,4.739,220.356-30.007,298.396-103.501"/>
<path fill="none" stroke="#333333" stroke-width="8" stroke-linecap="round" stroke-linejoin="round" stroke-miterlimit="10" d="
	M1598.124,2112.904l-30.334,22.141c-34.524-13.505-55.215-1.011-62.557,36.912l-21.091,2.503
	c-77.333,4.681-130.726,17.921-160.211,38.974"/>
<path fill="none" stroke="#333333" stroke-width="8" stroke-linecap="round" stroke-linejoin="round" stroke-miterlimit="10" d="
	M1348.84,2176.937c17.683-4.704,32.252-8.94,43.704-12.706c11.321-3.465,21.286-7.146,29.455-10.881
	c7.992-4.178,25.439-15.896,52.471-35.466c26.595-19.396,63.542-84.501,110.883-194.578"/>
<path fill="none" stroke="#333333" stroke-width="8" stroke-linecap="round" stroke-linejoin="round" stroke-miterlimit="10" d="
	M1499.539,2269.895c-56.108,12.79-102.054,28.161-137.235,46.383"/>
<line fill="none" stroke="#333333" stroke-width="8" stroke-linecap="round" stroke-linejoin="round" stroke-miterlimit="10" x1="1499.539" y1="2269.895" x2="1275.669" y2="2454.067"/>
<path fill="none" stroke="#333333" stroke-width="8" stroke-linecap="round" stroke-linejoin="round" stroke-miterlimit="10" d="
	M879.194,2674.757c15.739,9.005,24.246,19.602,25.815,31.924c19.039,39.171,110.857,94.242,275.176,165.815
	c25.508,9.964,50.521,13.528,75.604,10.214c43.892-14.813,82.062-13.913,114.688,3.135c6.258,2.35,12.032,4.125,17.335,5.331
	c3.148,0.274,6.438,0.244,9.859-0.092c2.541,0.011,4.914-0.418,7.24-1.59c1.182-0.217,2.673-0.299,3.992-0.818l7.044-7.86
	c8.328-0.756,17.1-1.684,26.131-3.227c6.052-1.377,12.413-2.624,19.042-4.479c24.828-7.791,44.033-20.205,58.214-36.977
	c8.111-23.767,31.788-25.511,71.329-5.103c3.102,2.071,6.775,3.663,10.853,4.34c7.266,1.693,14.665,3.081,22.029,3.725
	c23.795,0.492,44.067-6.001,60.819-19.478c4.788-2.652,9.576-5.307,14.411-7.214"/>
<path fill="none" stroke="#333333" stroke-width="8" stroke-linecap="round" stroke-linejoin="round" stroke-miterlimit="10" d="
	M1270.998,2589.922c-47.965,25.047-96.214,44.882-144.917,59.063c-81.22,23.729-163.555,32.424-246.887,25.772"/>
<path fill="none" stroke="#333333" stroke-width="8" stroke-linecap="round" stroke-linejoin="round" stroke-miterlimit="10" d="
	M1602.949,2241.962c-18.873,7.462-37.831,13.435-56.569,18.047l-5.131,1.777c-14.517,2.44-28.418,5.144-41.713,8.114"/>
<path fill="none" stroke="#333333" stroke-width="8" stroke-linecap="round" stroke-linejoin="round" stroke-miterlimit="10" d="
	M1595.124,2150.898l-3.88,49.246c-43,44.664-55.313,43.693-37.24-3.04l-191.7,119.174"/>
<path fill="none" stroke="#333333" stroke-width="8" stroke-linecap="round" stroke-linejoin="round" stroke-miterlimit="10" d="
	M1858.657,2128.69c-23.269,41.938-66.104,78.664-128.686,109.748c-16.241,6.422-32.182,12.976-48.155,18.783
	c-9.218,3.644-18.481,6.543-27.473,8.831"/>
<line fill="none" stroke="#333333" stroke-width="8" stroke-linecap="round" stroke-linejoin="round" stroke-miterlimit="10" x1="1580.812" y1="2285.47" x2="1617.124" y2="2236.093"/>
<path fill="none" stroke="#333333" stroke-width="8" stroke-linecap="round" stroke-linejoin="round" stroke-miterlimit="10" d="
	M1654.347,2266.047c-8.992,2.288-18.162,4.133-27.371,5.237c-17.363,2.293-32.503,7.012-46.163,14.187"/>
<path fill="none" stroke="#333333" stroke-width="8" stroke-linecap="round" stroke-linejoin="round" stroke-miterlimit="10" d="
	M1617.124,2236.093c-4.828,1.907-9.349,3.948-14.178,5.859"/>
<path fill="none" stroke="#333333" stroke-width="8" stroke-linecap="round" stroke-linejoin="round" stroke-miterlimit="10" d="
	M1580.812,2285.47c-21.036,11.619-37.413,29.257-49.125,52.923c-19.938,42.649-16.793,100.034,10.001,171.663
	c4.518,11.414,5.659,21.366,3.297,30.165"/>
<path fill="none" stroke="#333333" stroke-width="8" stroke-linecap="round" stroke-linejoin="round" stroke-miterlimit="10" d="
	M1482.475,2575.339c33.51-5.122,54.015-15.517,61.401-30.87c0.093-1.05,0.445-2.717,1.108-4.248l109.363-274.175"/>
<path fill="none" stroke="#333333" stroke-width="8" stroke-linecap="round" stroke-linejoin="round" stroke-miterlimit="10" d="
	M1985.945,2482.14c-28.74,29.381-58.704,36.401-90.33,21.243c-10.115,9.077-15.994,21.805-18.209,38.673
	c1.516,25.028-10.457,38.392-36.196,40.697c-22.929,1.706-38.588,16.018-46.67,43.063c-19.854,11.402-39.874,19.826-59.926,24.957
	l-69.946,11.161c-46.625,8.532-85.398,4.824-116.625-11.255c-28.164-14.753-50.021-39.867-65.568-75.342"/>
<path fill="none" stroke="#333333" stroke-width="8" stroke-linecap="round" stroke-linejoin="round" stroke-miterlimit="10" d="
	M1985.945,2482.14c12.24-35.801,28.833-63.169,49.772-82.106c3.827-3.797,7.826-7.155,12.003-10.073
	c51.156-45.856,78.922-84.746,83.609-116.545c0.88-11.262,3.542-19.93,7.859-25.696c3.569-3.186,7.17-5.625,10.507-7.455
	c10.724-6.266,20.479-13.677,29.718-22.405c22.658-20.378,39.5-45.817,50.538-76.318"/>
<path fill="none" stroke="#333333" stroke-width="8" stroke-linecap="round" stroke-linejoin="round" stroke-miterlimit="10" d="
	M1698.768,2812.399c10.492-4.91,20.232-7.237,28.909-7.113c127.314-74.694,209.74-169.197,247.544-284.139
	c4.09-12.78,7.556-25.828,10.724-39.008"/>
<path fill="none" stroke="#333333" stroke-width="8" stroke-linecap="round" stroke-linejoin="round" stroke-miterlimit="10" d="
	M1482.475,2575.339c-36.124,25.451-106.578,30.206-211.479,14.571"/>
<path fill="none" stroke="#333333" stroke-width="8" stroke-linecap="round" stroke-linejoin="round" stroke-miterlimit="10" d="
	M775.652,2419.262c83.784,25.759,176.018,20.258,276.969-17.113"/>
<path fill="none" stroke="#333333" stroke-width="8" stroke-linecap="round" stroke-linejoin="round" stroke-miterlimit="10" d="
	M1247.187,1401.709c16.527,20.623,38.076,34.69,64.345,42.075c36.331,11.017,70.142,27.85,101.696,49.89
	c11.724,14.903,25.658,26.399,42.104,34.618"/>
<path fill="none" stroke="#333333" stroke-width="8" stroke-linecap="round" stroke-linejoin="round" stroke-miterlimit="10" d="
	M1888.68,1273.748c-10.623,35.412-25.896,62.258-45.514,80.675c-12.099,11.128-25.852,19.355-41.123,24.376
	c-2.196,0.868-3.953,1.563-6.017,2.126c-15.178,3.972-30.184,8.382-44.884,12.925c-15.449,4.58-30.376,10.481-44.515,17.085
	c-88.783,41.182-137.74,75.26-147.623,102.261c-15.322,17.732-14.313,27.993,3.069,31.527c17.322,7.87,33.954,13.986,49.275,18.079
	c45.929,11.537,82.463,4.452,109.743-21.559"/>
<path fill="none" stroke="#333333" stroke-width="8" stroke-linecap="round" stroke-linejoin="round" stroke-miterlimit="10" d="
	M1924.766,1313.031c-28.166,17.99-52.479,35.462-72.619,52.562c-0.132,0.305-0.132,0.305-0.132,0.305
	c-33.992,28.922-56.372,57.057-67.443,84.275c-28.195,47.431-49.397,77.895-63.478,91.074"/>
<path fill="none" stroke="#333333" stroke-width="8" stroke-linecap="round" stroke-linejoin="round" stroke-miterlimit="10" d="
	M1710.431,1220.87c6.073,4.451,12.149,8.903,18.222,13.353c24.022,10.048,39.235,20.278,45.899,30.082"/>
<line fill="none" stroke="#333333" stroke-width="8" stroke-linecap="round" stroke-linejoin="round" stroke-miterlimit="10" x1="1710.431" y1="1220.87" x2="1731.755" y2="1312.693"/>
<path fill="none" stroke="#333333" stroke-width="8" stroke-linecap="round" stroke-linejoin="round" stroke-miterlimit="10" d="
	M1731.755,1312.693c33.228-12.882,48.929-26.45,46.532-40.22c-0.601-2.811-1.648-5.445-3.735-8.168"/>
<path fill="none" stroke="#333333" stroke-width="8" stroke-linecap="round" stroke-linejoin="round" stroke-miterlimit="10" d="
	M1933.795,1139.427c-3.912,13.225-7.379,26.273-9.801,39.405"/>
<path fill="none" stroke="#333333" stroke-width="8" stroke-linecap="round" stroke-linejoin="round" stroke-miterlimit="10" d="
	M1933.795,1139.427c-32.229,14.772-57.902,34.568-77.371,58.507c8.294,28.697,19.24,53.811,32.258,75.822"/>
<path fill="none" stroke="#333333" stroke-width="8" stroke-linecap="round" stroke-linejoin="round" stroke-miterlimit="10" d="
	M1721.098,1541.254c65.615-43.957,115.793-96.787,150.268-157.875c14.261-26.184,32.108-49.739,53.403-70.336"/>
<line fill="none" stroke="#333333" stroke-width="8" stroke-linecap="round" stroke-linejoin="round" stroke-miterlimit="10" x1="1731.752" y1="1312.699" x2="1749.758" y2="1390.344"/>
<path fill="none" stroke="#333333" stroke-width="8" stroke-linecap="round" stroke-linejoin="round" stroke-miterlimit="10" d="
	M1274.412,1530.289c-8.32-1.787-16.334-3.442-24.389-5.842"/>
<line fill="none" stroke="#333333" stroke-width="8" stroke-linecap="round" stroke-linejoin="round" stroke-miterlimit="10" x1="1202.407" y1="1637.681" x2="1182.479" y2="1666.879"/>
<path fill="none" stroke="#333333" stroke-width="8" stroke-linecap="round" stroke-linejoin="round" stroke-miterlimit="10" d="
	M1370.35,1682.451c-19.61-5.951-37.917-9.881-54.954-12.534"/>
<path fill="none" stroke="#333333" stroke-width="8" stroke-linecap="round" stroke-linejoin="round" stroke-miterlimit="10" d="
	M1390.001,1689.148c-6.566-2.48-13.263-4.653-19.651-6.697"/>
<path fill="none" stroke="#333333" stroke-width="8" stroke-linecap="round" stroke-linejoin="round" stroke-miterlimit="10" d="
	M1315.397,1669.916c-34.955-4.964-65.03-2.72-90.533,6.6"/>
<path fill="none" stroke="#333333" stroke-width="8" stroke-linecap="round" stroke-linejoin="round" stroke-miterlimit="10" d="
	M1202.407,1637.681c15.14,6.198,31.943,1.84,50.145-12.463c4.952,11.241,13.527,14.957,25.114,10.884l11.669-13.497l26.063,47.311"
	/>
<path fill="none" stroke="#333333" stroke-width="8" stroke-linecap="round" stroke-linejoin="round" stroke-miterlimit="10" d="
	M1224.864,1676.516c-12.462,4.421-23.491,10.556-33.382,18.272c80.69-0.681,128.536,67.707,144.284,205.13
	c-18.509,14.168-35.088,28.077-49.779,40.99c-15.262,13.394-28.46,26.225-39.292,38.629"/>
<path fill="none" stroke="#333333" stroke-width="8" stroke-linecap="round" stroke-linejoin="round" stroke-miterlimit="10" d="
	M1370.35,1682.451c-28.359-21.018-51.656-58.764-69.447-113.398c56.567,3.778,105.038,26.24,145.41,67.382"/>
<path fill="none" stroke="#333333" stroke-width="8" stroke-linecap="round" stroke-linejoin="round" stroke-miterlimit="10" d="
	M1455.341,1528.302c-66.449,12.313-126.801,13.074-180.929,1.987"/>
<path fill="none" stroke="#333333" stroke-width="8" stroke-linecap="round" stroke-linejoin="round" stroke-miterlimit="10" d="
	M1274.412,1530.289c-29.271,30.603-53.169,66.444-72.005,107.392"/>
<path fill="none" stroke="#333333" stroke-width="8" stroke-linecap="round" stroke-linejoin="round" stroke-miterlimit="10" d="
	M1224.864,1676.516c-14.925-5.012-28.847-8.137-42.385-9.637"/>
<path fill="none" stroke="#333333" stroke-width="8" stroke-linecap="round" stroke-linejoin="round" stroke-miterlimit="10" d="
	M1246.696,1979.536c-0.226,1.359-0.143,2.847-0.062,4.34"/>
<path fill="none" stroke="#333333" stroke-width="8" stroke-linecap="round" stroke-linejoin="round" stroke-miterlimit="10" d="
	M1294.216,1965.572c-15.184,3.972-30.546,10.046-45.827,17.608c-0.438,0.176-1.315,0.52-1.755,0.696"/>
<path fill="none" stroke="#333333" stroke-width="8" stroke-linecap="round" stroke-linejoin="round" stroke-miterlimit="10" d="
	M1277.218,1737.031c-39.337,26.968-63.083,68.335-71.509,124.705c-17.333,5.583-32.881,13.762-46.51,24.226
	c-20.795,16.087-37.536,37.927-50.535,65.398"/>
<path fill="none" stroke="#333333" stroke-width="8" stroke-linecap="round" stroke-linejoin="round" stroke-miterlimit="10" d="
	M1294.216,1965.572c10.883-3.287,21.671-5.521,32.201-7.144c32.013-5.044,62.504-2.38,91.174,7.864"/>
<path fill="none" stroke="#333333" stroke-width="8" stroke-linecap="round" stroke-linejoin="round" stroke-miterlimit="10" d="
	M1417.592,1966.293c-8.006,6.715-15.534,14.004-22.577,21.864c-14.088,15.72-26.56,33.596-37.555,53.933
	c-9.056-37.025-30.34-62.621-63.243-76.517"/>
<path fill="none" stroke="#333333" stroke-width="8" stroke-linecap="round" stroke-linejoin="round" stroke-miterlimit="10" d="
	M1585.362,1923.319c-2.555-8.384-5.198-15.714-8.105-22.43c-0.306-0.133-0.617-0.268-0.484-0.573
	c-7.56-15.282-17.208-24.922-28.458-28.341c-7.749-2.268-14.126-6.849-19.408-13.138l0.134-0.309c-3.36-4-6.144-8.48-8.402-14.188
	c-36.105-23.287-74.857-42.992-116.25-59.11"/>
<path fill="none" stroke="#333333" stroke-width="8" stroke-linecap="round" stroke-linejoin="round" stroke-miterlimit="10" d="
	M1496.043,1922.079c8.728-23.501,18.807-44.235,30.098-61.894"/>
<path fill="none" stroke="#333333" stroke-width="8" stroke-linecap="round" stroke-linejoin="round" stroke-miterlimit="10" d="
	M1496.043,1922.079c-29.628,10.442-55.716,25.325-78.451,44.214"/>
<path fill="none" stroke="#333333" stroke-width="8" stroke-linecap="round" stroke-linejoin="round" stroke-miterlimit="10" d="
	M1547.632,1627.595c-42.014-2.931-75.643-0.041-101.319,8.839"/>
<path fill="none" stroke="#333333" stroke-width="8" stroke-linecap="round" stroke-linejoin="round" stroke-miterlimit="10" d="
	M1541.592,1560.951c-4.359,59.591,10.576,83.888,44.804,72.893c1.892-0.999,3.648-1.694,5.71-2.253"/>
<path fill="none" stroke="#333333" stroke-width="8" stroke-linecap="round" stroke-linejoin="round" stroke-miterlimit="10" d="
	M1455.341,1528.302c14.32,34.945,42.149,46.277,83.142,33.122c1.047,0.092,1.929-0.255,3.109-0.472"/>
<path fill="none" stroke="#333333" stroke-width="8" stroke-linecap="round" stroke-linejoin="round" stroke-miterlimit="10" d="
	M1404.384,1785.228c8.359,2.532,19.1,2.093,32.791-1.794c39.068-4.533,85.546,22.522,139.479,81.906l59.436,61.773
	c10.464,13.628,19.88,27.166,27.625,40.346"/>
<path fill="none" stroke="#333333" stroke-width="8" stroke-linecap="round" stroke-linejoin="round" stroke-miterlimit="10" d="
	M1404.384,1785.228c-3.634-0.847-6.697-2.174-9.056-4.287c-0.915-0.396-1.837-0.796-2.313-1.368
	c-10.612-10.78-13.11-31.87-7.68-63.714c0.653-9.901,2.268-18.663,4.669-26.717"/>
<path fill="none" stroke="#333333" stroke-width="8" stroke-linecap="round" stroke-linejoin="round" stroke-miterlimit="10" d="
	M1651.097,1652.427c29.454,10.945,57.275,24.821,83.457,41.625"/>
<path fill="none" stroke="#333333" stroke-width="8" stroke-linecap="round" stroke-linejoin="round" stroke-miterlimit="10" d="
	M1592.105,1631.591c11.936-3.193,22.49-1.533,32.281,5.258l0.609,0.264c8.079,8.23,16.733,13.437,26.101,15.315"/>
<path fill="none" stroke="#333333" stroke-width="8" stroke-linecap="round" stroke-linejoin="round" stroke-miterlimit="10" d="
	M1541.592,1560.951c23.974,0.933,45.871,4.967,66.31,12.367c34.79,12.896,64.106,35.058,88.433,67.064
	c-16.436,11.065-31.618,15.034-45.237,12.045"/>
<path fill="none" stroke="#333333" stroke-width="8" stroke-linecap="round" stroke-linejoin="round" stroke-miterlimit="10" d="
	M1604.177,1723.761c-4.783-30.08-9-60.647-12.072-92.172"/>
<path fill="none" stroke="#333333" stroke-width="8" stroke-linecap="round" stroke-linejoin="round" stroke-miterlimit="10" d="
	M1250.029,1524.451c-82.025,28.113-147.456,80.878-195.979,158.425"/>
<path fill="none" stroke="#333333" stroke-width="8" stroke-linecap="round" stroke-linejoin="round" stroke-miterlimit="10" d="
	M1604.177,1723.761c11.063,71.002,26.267,138.342,46.039,201.84"/>
<path fill="none" stroke="#333333" stroke-width="8" stroke-linecap="round" stroke-linejoin="round" stroke-miterlimit="10" d="
	M1446.313,1636.434c-29.494,10.137-47.972,27.592-56.312,52.714"/>
<path fill="none" stroke="#333333" stroke-width="8" stroke-linecap="round" stroke-linejoin="round" stroke-miterlimit="10" d="
	M1182.484,1666.881c-47.051-4.748-89.671,0.426-128.437,16.004"/>
<path fill="none" stroke="#333333" stroke-width="8" stroke-linecap="round" stroke-linejoin="round" stroke-miterlimit="10" d="
	M1791.835,1738.154c2.838,2.682,5.37,5.234,8.205,7.922c-23.489-0.361-21.609,23.008,5.634,70.103l46.817,128.693
	c33.291,70.077,35.138,131.266,6.177,183.828"/>
<path fill="none" stroke="#333333" stroke-width="8" stroke-linecap="round" stroke-linejoin="round" stroke-miterlimit="10" d="
	M1771.13,1720.449c7.039,5.598,13.938,11.497,20.705,17.705"/>
<path fill="none" stroke="#333333" stroke-width="8" stroke-linecap="round" stroke-linejoin="round" stroke-miterlimit="10" d="
	M1698.296,1859.132l0.133-0.306c-0.906-2.939-1.682-6.186-2.284-8.992c-0.734-2.501-1.47-5.003-2.071-7.811"/>
<path fill="none" stroke="#333333" stroke-width="8" stroke-linecap="round" stroke-linejoin="round" stroke-miterlimit="10" d="
	M1617.144,2236.111c20.285-9.031,40.788-19.425,61.182-32.051c83.661-41.956,108.499-115.222,74.248-219.184l-36.27-59.009
	c-23.998-26.041-30.002-48.289-18.008-66.736"/>
<path fill="none" stroke="#333333" stroke-width="8" stroke-linecap="round" stroke-linejoin="round" stroke-miterlimit="10" d="
	M1694.073,1842.023c19.298-46.204,51.78-80.871,97.761-103.87"/>
<path fill="none" stroke="#333333" stroke-width="8" stroke-linecap="round" stroke-linejoin="round" stroke-miterlimit="10" d="
	M1595.132,2150.908l2.431-26.592c0.234-3.902,0.341-7.494,0.573-11.393"/>
<path fill="none" stroke="#333333" stroke-width="8" stroke-linecap="round" stroke-linejoin="round" stroke-miterlimit="10" d="
	M1858.667,2128.701c37.698-13.128,64.337-31.775,80.167-56.564c0.975-1.396,1.506-2.622,2.341-3.714
	c1.5-2.624,2.866-4.942,4.367-7.566c12.937-23.13,21.399-46.021,25.525-68.968c14.602-22.774,36.607-46.699,65.896-71.475
	c0.132-0.306,0.57-0.48,1.014-0.65c24.531-29.746,43.194-60.222,55.943-92.165c1.42-4.112,3.278-8.401,4.699-12.515
	c10.201-29.409,15.272-59.589,15.967-90.571c-0.252-1.928-0.509-3.858-0.456-5.653c-2.053-23.809,0.255-52.638,6.619-86.623"/>
<path fill="none" stroke="#333333" stroke-width="8" stroke-linecap="round" stroke-linejoin="round" stroke-miterlimit="10" d="
	M2120.749,1632.233c18.686,27.382,39.423,48.372,62.197,62.971c40.723,31.109,54.931,83.1,42.89,155.365
	c-2.889,42.768,2.149,85.688,14.989,129.082c5.439,42.01,5.729,79.967,0.987,113.564c-2.784,17.346-6.537,33.545-11.853,48.336"/>
<path fill="none" stroke="#333333" stroke-width="8" stroke-linecap="round" stroke-linejoin="round" stroke-miterlimit="10" d="
	M1923.999,1178.834c123.203-76.109,196.663-55.912,220.513,60.281l-0.264,0.609c30.018,54.119,32.674,113.474,7.822,178.373"/>
<path fill="none" stroke="#333333" stroke-width="8" stroke-linecap="round" stroke-linejoin="round" stroke-miterlimit="10" d="
	M2152.07,1418.097c-0.265,0.61-0.529,1.219-0.664,1.53c-23.555,69.453-33.522,138.621-30.467,207.969l-0.19,4.638"/>
<path fill="none" stroke="#333333" stroke-width="8" stroke-linecap="round" stroke-linejoin="round" stroke-miterlimit="10" d="
	M1924.774,1313.042c-14.703,26.369-26.595,52.135-36.124,77.47c-15.327,39.563-25.034,77.914-28.251,114.716"/>
<path fill="none" stroke="#333333" stroke-width="8" stroke-linecap="round" stroke-linejoin="round" stroke-miterlimit="10" d="
	M1860.4,1505.229c-1.326,13.977-2.08,27.474-1.655,40.754c0.232,17.925,2.094,35.468,5.264,52.483
	c-3.257,57.883-34.362,98.606-92.879,121.983"/>
<path fill="none" stroke="#333333" stroke-width="8" stroke-linecap="round" stroke-linejoin="round" stroke-miterlimit="10" d="
	M1663.719,1967.468c-4.637-13.65-9.133-27.604-13.503-41.866"/>
<path fill="none" stroke="#333333" stroke-width="8" stroke-linecap="round" stroke-linejoin="round" stroke-miterlimit="10" d="
	M1650.215,1925.601c18.143-42.702,33.964-64.945,48.081-66.469"/>
<path fill="none" stroke="#333333" stroke-width="8" stroke-linecap="round" stroke-linejoin="round" stroke-miterlimit="10" d="
	M1734.552,1694.056c-6.993-37.588,13.099-74.72,60.585-111.254c15.917-12.382,35.116-24.797,57.478-36.934"/>
<path fill="none" stroke="#333333" stroke-width="8" stroke-linecap="round" stroke-linejoin="round" stroke-miterlimit="10" d="
	M1734.552,1694.056c12.549,7.982,24.698,16.885,36.576,26.398"/>
<path fill="none" stroke="#333333" stroke-width="8" stroke-linecap="round" stroke-linejoin="round" stroke-miterlimit="10" d="
	M1694.069,1842.031c-15.771-55.943-45.722-95.116-89.896-118.265"/>
<path fill="none" stroke="#333333" stroke-width="8" stroke-linecap="round" stroke-linejoin="round" stroke-miterlimit="10" d="
	M1860.398,1505.235c-49.336,18.996-71.748,43.842-67.663,74.715"/>
<path fill="none" stroke="#333333" stroke-width="8" stroke-linecap="round" stroke-linejoin="round" stroke-miterlimit="10" d="
	M1923.994,1178.846c-8.465,44.717-8.253,89.557,0.774,134.208"/>
<path fill="none" stroke="#333333" stroke-width="8" stroke-linecap="round" stroke-linejoin="round" stroke-miterlimit="10" d="
	M1888.684,1273.77c8.441,14.934,20.352,27.734,36.086,39.284"/>
<path fill="none" stroke="#333333" stroke-width="8" stroke-linecap="round" stroke-linejoin="round" stroke-miterlimit="10" d="
	M1585.356,1923.331c11.315,40.19,15.665,103.189,12.774,189.604"/>
<path fill="none" stroke="#333333" stroke-width="8" stroke-linecap="round" stroke-linejoin="round" stroke-miterlimit="10" d="
	M1663.716,1967.473c56.758,86.439,36.667,178.133-60.759,274.505"/>
<path fill="none" stroke="#333333" stroke-width="8" stroke-linecap="round" stroke-linejoin="round" stroke-miterlimit="10" d="
	M1246.634,1983.891c-5.056,57.832,8.471,105.527,40.307,143.698"/>
<path fill="none" stroke="#333333" stroke-width="8" stroke-linecap="round" stroke-linejoin="round" stroke-miterlimit="10" d="
	M1108.663,1951.382l93.632,115.514c1.594-25.502,16.438-54.719,44.402-87.344"/>
<path fill="none" stroke="#333333" stroke-width="8" stroke-linecap="round" stroke-linejoin="round" stroke-miterlimit="10" d="
	M991.011,1642.848c18.374,18.878,39.446,32.372,63.036,40.052"/>
<path fill="none" stroke="#333333" stroke-width="8" stroke-linecap="round" stroke-linejoin="round" stroke-miterlimit="10" d="
	M2624.733,1982.721c-0.295-2.676-1.03-5.177-1.765-7.68c-3.964-6.808-11.474-12.976-22.23-18.362
	c78.023-2.93,128.862-68.204,153.129-195.55c-2.753-44.847,7.357-95.03,30.457-150.861
	c-19.359-45.137-33.115-102.388-40.765-171.184c0.07-6.882-0.301-13.586-1.28-20.561"/>
<path fill="none" stroke="#333333" stroke-width="8" stroke-linecap="round" stroke-linejoin="round" stroke-miterlimit="10" d="
	M2229.959,2141.575c22.999,2.325,45.044,3.513,66.427,3.684c104.701,0.993,188.898-22.902,253.04-71.864l42.662-37.162l12.535-11.3
	c15.542-16.549,22.39-30.679,20.112-42.213"/>
<path fill="none" stroke="#333333" stroke-width="8" stroke-linecap="round" stroke-linejoin="round" stroke-miterlimit="10" d="
	M2625.137,2284.821c3.256-3.316,6.646-6.941,10.207-10.127c44.869-40.579,41.492-137.713-10.609-291.974"/>
<path fill="none" stroke="#333333" stroke-width="8" stroke-linecap="round" stroke-linejoin="round" stroke-miterlimit="10" d="
	M1698.782,2812.432c75.222,126.091,205.775,159.751,392.273,101.25c39.2-35.035,80.114-52.225,122.182-51.094
	c18.207-3.385,34.262-7.706,47.874-13.083c36.296-14.094,57.117-35.262,62.883-63.685l12.729-48.687
	c12.612-40.006,30.822-67.764,54.466-83.71c8.793-6.008,18.714-10.44,29.64-12.982l15.702-2.651l12.861,5.573
	c32.121,10.645,60.532-2.87,85.186-41.294c54.448-67.715,77.966-129.543,70.57-185.495"/>
<path fill="none" stroke="#333333" stroke-width="8" stroke-linecap="round" stroke-linejoin="round" stroke-miterlimit="10" d="
	M2742.287,1418.526l59.328-158.721c18.783-39.145,18.794-63.516,0.51-72.527c-17.701-12.041-23.582-32.047-17.465-59.592
	c-49.786-0.111-103.395,11.941-160.541,35.553"/>
<path fill="none" stroke="#333333" stroke-width="8" stroke-linecap="round" stroke-linejoin="round" stroke-miterlimit="10" d="
	M2537.659,1017.738c-61.479,203.977-189.909,337.483-385.591,400.379"/>
<path fill="none" stroke="#333333" stroke-width="8" stroke-linecap="round" stroke-linejoin="round" stroke-miterlimit="10" d="
	M1904.863,1110.539c8.808,10.73,18.456,20.369,28.936,28.911"/>
</svg>
