<svg xmlns="http://www.w3.org/2000/svg" viewBox="0 0 100 100"><defs><style>.cls-1{fill:#29abe2;}.cls-2{fill:#0e9cdb;}.cls-3{fill:#29d1bd;}.cls-4{fill:#00a99d;}.cls-5{fill:#29d1f0;}.cls-6,.cls-7{fill:#b6fff2;}.cls-6{opacity:0.7;}.cls-8{fill:#29abc7;}.cls-9{fill:#0e7e4b;opacity:0.5;}.cls-10{fill:#636046;}.cls-11{fill:#8cc63f;}</style></defs><title>WaterUpРесурс 35</title><g id="Слой_2" data-name="Слой 2"><g id="Слой_1-2" data-name="Слой 1"><rect class="cls-1" x="0.01" y="1.07" width="99.99" height="98.91"/><path class="cls-2" d="M100,24.86V74.23h0V85.69h0a0,0,0,0,0,0,0,.28.28,0,0,0,0-.09v2.12A12.34,12.34,0,0,1,87.63,100H12.34A12.34,12.34,0,0,1,0,87.67V24.92a6.26,6.26,0,0,0,12.51,0,6.26,6.26,0,1,1,12.52,0,6.26,6.26,0,0,0,12.51,0,6.26,6.26,0,1,1,12.51,0,6.26,6.26,0,0,0,12.52,0,6.26,6.26,0,1,1,12.51,0,6.26,6.26,0,0,0,12.52,0,6.25,6.25,0,0,1,6.25-6.26,6,6,0,0,1,6,5.36,3.82,3.82,0,0,1,0,.68v0A.53.53,0,0,1,100,24.86Z"/><path class="cls-3" d="M100,44.12V85.75s0,0,0,0v0h0a0,0,0,0,0,0,0,.28.28,0,0,0,0-.09v2.12A12.34,12.34,0,0,1,87.63,100H12.34A12.34,12.34,0,0,1,0,87.67V44.18a6.26,6.26,0,0,0,12.51,0,6.26,6.26,0,1,1,12.52,0,6.26,6.26,0,0,0,12.51,0,6.26,6.26,0,1,1,12.51,0,6.26,6.26,0,0,0,12.52,0,6.26,6.26,0,1,1,12.51,0,6.26,6.26,0,0,0,12.52,0,6.25,6.25,0,0,1,6.25-6.26,6,6,0,0,1,6,5.36,2,2,0,0,1,0,.43v0a.34.34,0,0,1,0,.1v0A2.09,2.09,0,0,1,100,44.12Z"/><path class="cls-4" d="M100,55.62V86a.17.17,0,0,0,0-.07s0,0,0,0,0,0,0-.06v-.07s0,0,0,0v0h0a0,0,0,0,0,0,0,.28.28,0,0,0,0-.09v2.12A12.34,12.34,0,0,1,87.63,100H12.34A12.34,12.34,0,0,1,0,87.67v-32a6.26,6.26,0,1,0,12.51,0,6.26,6.26,0,0,1,12.52,0,6.26,6.26,0,1,0,12.51,0,6.26,6.26,0,0,1,12.51,0,6.26,6.26,0,0,0,12.52,0,6.26,6.26,0,0,1,12.51,0,6.26,6.26,0,1,0,12.52,0,6.25,6.25,0,0,1,6.25-6.25,6,6,0,0,1,6,5.35,1.33,1.33,0,0,1,0,.21v.07s0,0,0,0,0,0,0,0v0a.11.11,0,0,1,0,.05v0a.86.86,0,0,1,0,.16v.12A.41.41,0,0,1,100,55.62Z"/><path class="cls-5" d="M100,74.88V86.15a2.49,2.49,0,0,0,0-.47.29.29,0,0,0,0-.13c0,2.94-.14,5.7-1.68,8.32A12.48,12.48,0,0,1,90,99.75a30,30,0,0,1-5.68.23H29.11c-5.55,0-11.11,0-16.67,0A12.5,12.5,0,0,1,.09,88.86c-.17-1.74,0-3.53,0-5.28V74.94a6.31,6.31,0,0,0,4.19,5.91,6.25,6.25,0,0,0,8.31-5.67,7,7,0,0,1,1.06-3.71A6.26,6.26,0,0,1,25,74.35a8.25,8.25,0,0,0,.9,3.78,6.26,6.26,0,0,0,11.57-2.24,11,11,0,0,1,.78-3.84A6.26,6.26,0,0,1,50,73.77c.24,1.29.1,2.52.67,3.76a6.26,6.26,0,0,0,11.77-1.07c.32-1.27.13-2.55.61-3.79a6.26,6.26,0,0,1,11.81.43c.4,1.28.18,2.63.63,3.91a6.26,6.26,0,0,0,11.78.1c.47-1.27.26-2.61.63-3.9,1.57-5.45,9.51-6.1,11.65-.73A6.4,6.4,0,0,1,100,74.88Z"/><path class="cls-1" d="M100,85.55v2.12A12.34,12.34,0,0,1,87.69,100H12.4A12.34,12.34,0,0,1,.1,87.67V86.45a6.26,6.26,0,1,0,12.51,0,6.26,6.26,0,1,1,12.52,0,6.26,6.26,0,1,0,12.51,0,6.26,6.26,0,1,1,12.51,0,6.26,6.26,0,1,0,12.52,0,6.26,6.26,0,1,1,12.51,0,6.26,6.26,0,1,0,12.52,0A6.25,6.25,0,0,1,94,80.19,6,6,0,0,1,100,85.55Z"/><rect class="cls-6" x="15.1" y="40.23" width="4.38" height="5.88" rx="2.19" ry="2.19"/><rect class="cls-7" x="39.69" y="40.23" width="4.38" height="5.88" rx="2.19" ry="2.19"/><rect class="cls-6" x="64.48" y="40.23" width="4.38" height="5.88" rx="2.19" ry="2.19"/><rect class="cls-7" x="89.71" y="40.23" width="4.38" height="5.88" rx="2.19" ry="2.19"/><rect class="cls-7" x="15.1" y="71.02" width="4.38" height="5.88" rx="2.19" ry="2.19"/><rect class="cls-6" x="39.69" y="71.02" width="4.38" height="5.88" rx="2.19" ry="2.19"/><rect class="cls-7" x="64.48" y="71.02" width="4.38" height="5.88" rx="2.19" ry="2.19"/><rect class="cls-6" x="89.71" y="71.02" width="4.38" height="5.88" rx="2.19" ry="2.19"/><rect class="cls-1" x="52.08" y="82.61" width="4.38" height="7.47" rx="2.19" ry="2.19"/><rect class="cls-1" x="77.1" y="82.61" width="4.38" height="7.47" rx="2.19" ry="2.19"/><rect class="cls-1" x="27.39" y="82.61" width="4.38" height="7.47" rx="2.19" ry="2.19"/><rect class="cls-1" x="2.15" y="82.61" width="4.38" height="7.47" rx="2.19" ry="2.19"/><rect class="cls-8" x="52.08" y="51.36" width="4.38" height="7.47" rx="2.19" ry="2.19"/><rect class="cls-8" x="77.1" y="51.36" width="4.38" height="7.47" rx="2.19" ry="2.19"/><rect class="cls-8" x="27.39" y="51.36" width="4.38" height="7.47" rx="2.19" ry="2.19"/><rect class="cls-8" x="2.15" y="51.36" width="4.38" height="7.47" rx="2.19" ry="2.19"/><rect class="cls-1" x="52.08" y="20.84" width="4.38" height="7.47" rx="2.19" ry="2.19"/><rect class="cls-1" x="77.1" y="20.84" width="4.38" height="7.47" rx="2.19" ry="2.19"/><rect class="cls-1" x="27.39" y="20.84" width="4.38" height="7.47" rx="2.19" ry="2.19"/><rect class="cls-1" x="2.15" y="20.84" width="4.38" height="7.47" rx="2.19" ry="2.19"/><rect class="cls-9" x="0.01" y="2.9" width="99.99" height="16.51"/><path class="cls-10" d="M4.29,17h0a3.81,3.81,0,0,0,3.76-3.81,3.79,3.79,0,0,1,1.11-2.69,3.83,3.83,0,0,1,2.7-1.11h.83a3.8,3.8,0,0,1,3.8,3.8A3.81,3.81,0,0,0,20.33,17h8.53a3.81,3.81,0,0,0,3.82-3.8h0a3.8,3.8,0,0,1,3.8-3.8h1.63a3.71,3.71,0,0,1,1.56.34,3.8,3.8,0,0,1,2.25,3.46h0a3.8,3.8,0,0,0,3.8,3.8h8.55a3.8,3.8,0,0,0,3.8-3.8h0a3.82,3.82,0,0,1,3.82-3.81h1.66a3.77,3.77,0,0,1,1.54.34,3.85,3.85,0,0,1,2.19,3.5A3.81,3.81,0,0,0,71.09,17h8.54a3.81,3.81,0,0,0,3.81-3.8,3.79,3.79,0,0,1,3.81-3.81h.93a3.6,3.6,0,0,1,1.84.5,3.84,3.84,0,0,1,1.89,3.34A3.81,3.81,0,0,0,95.72,17H100V4.32H0V17Z"/><path class="cls-11" d="M0,12.67V0H100V12.69H96.5a3.81,3.81,0,0,1-3.81-3.81A3.75,3.75,0,0,0,89,5.08H87.29a3.8,3.8,0,0,0-3.8,3.8h0a3.81,3.81,0,0,1-3.81,3.8H71.14a3.59,3.59,0,0,1-.81-.09,2.62,2.62,0,0,1-.4-.11l-.32-.11-.29-.15L69,12h0a4.87,4.87,0,0,1-.42-.35,1.49,1.49,0,0,1-.14-.12,3.79,3.79,0,0,1-1.12-2.69,3.87,3.87,0,0,0-.78-2.34l-.06-.07a3.08,3.08,0,0,0-.24-.26,3.79,3.79,0,0,0-2.69-1.12H61.89a3.87,3.87,0,0,0-1.48.29,4,4,0,0,0-1.21.82,3.79,3.79,0,0,0-1.12,2.69A3.8,3.8,0,0,1,57,11.57h0a3.79,3.79,0,0,1-2.69,1.11H45.74A3.33,3.33,0,0,1,45,12.6a3.45,3.45,0,0,1-.46-.12,2.4,2.4,0,0,1-.46-.21A2.34,2.34,0,0,1,43.6,12a3.1,3.1,0,0,1-.56-.47,3.74,3.74,0,0,1-1.11-2.68h0a3.82,3.82,0,0,0-2.32-3.51,3.87,3.87,0,0,0-1.48-.29H36.49a3.82,3.82,0,0,0-3.81,3.81,3.75,3.75,0,0,1-1.11,2.69,3.79,3.79,0,0,1-2.69,1.12H20.34a3.81,3.81,0,0,1-3.81-3.8h0a3.81,3.81,0,0,0-3.81-3.81H11.9A3.8,3.8,0,0,0,8.09,8.87h0a3.81,3.81,0,0,1-3.81,3.8Z"/></g></g></svg>