<svg xmlns="http://www.w3.org/2000/svg" xmlns:xlink="http://www.w3.org/1999/xlink" viewBox="0 0 100 100"><defs><style>.cls-1{fill:none;}.cls-2{fill:#29abe2;}.cls-3{clip-path:url(#clip-path);}.cls-4{fill:#0e9cdb;}.cls-5{fill:#29d1bd;}.cls-6{fill:#00a99d;}.cls-7{fill:#29d1f0;}.cls-8,.cls-9{fill:#b6fff2;}.cls-8{opacity:0.7;}.cls-10{fill:#29abc7;}.cls-11{fill:#0e7e4b;opacity:0.5;}.cls-12{fill:#8cc63f;}.cls-13{fill:#636046;}</style><clipPath id="clip-path"><polyline class="cls-1" points="100 99.47 0 99.47 0 0.53 100 0.53"/></clipPath></defs><title>WUDРесурс 42</title><g id="Слой_2" data-name="Слой 2"><g id="Слой_1-2" data-name="Слой 1"><polyline class="cls-2" points="100 99.47 0 99.47 0 0.53 100 0.53"/><g class="cls-3"><path class="cls-4" d="M100,87.69A12.34,12.34,0,0,1,87.65,100H12.35A12.34,12.34,0,0,1,.05,87.69V24.9a6.26,6.26,0,1,0,12.51,0,6.26,6.26,0,1,1,12.52,0,6.26,6.26,0,1,0,12.51,0,6.26,6.26,0,1,1,12.51,0,6.26,6.26,0,1,0,12.52,0,6.26,6.26,0,0,1,12.52,0,6.26,6.26,0,1,0,12.52,0,6.25,6.25,0,0,1,6.25-6.26A6,6,0,0,1,100,24Z"/><path class="cls-5" d="M100,87.69A12.34,12.34,0,0,1,87.65,100H12.35A12.34,12.34,0,0,1,.05,87.69V44.17a6.26,6.26,0,1,0,12.51,0,6.26,6.26,0,1,1,12.52,0,6.26,6.26,0,1,0,12.51,0,6.26,6.26,0,1,1,12.51,0,6.26,6.26,0,1,0,12.52,0,6.26,6.26,0,0,1,12.52,0,6.26,6.26,0,1,0,12.52,0,6.25,6.25,0,0,1,6.25-6.26,6,6,0,0,1,6,5.36Z"/><path class="cls-6" d="M100,87.69A12.34,12.34,0,0,1,87.65,100H12.35A12.34,12.34,0,0,1,.05,87.69v-32a6.26,6.26,0,1,0,12.51,0,6.26,6.26,0,0,1,12.52,0,6.26,6.26,0,1,0,12.51,0,6.26,6.26,0,0,1,12.51,0,6.26,6.26,0,1,0,12.52,0,6.26,6.26,0,0,1,12.52,0,6.26,6.26,0,1,0,12.52,0,6.25,6.25,0,0,1,6.25-6.25,6,6,0,0,1,6,5.35Z"/><path class="cls-7" d="M100,87.69A12.34,12.34,0,0,1,87.65,100H12.35A12.34,12.34,0,0,1,.05,87.69V75a6.26,6.26,0,1,0,12.51,0,6.26,6.26,0,1,1,12.52,0,6.26,6.26,0,1,0,12.51,0A6.26,6.26,0,1,1,50.1,75a6.26,6.26,0,1,0,12.52,0,6.26,6.26,0,1,1,12.52,0,6.26,6.26,0,1,0,12.52,0,6.26,6.26,0,0,1,6.25-6.26,6,6,0,0,1,6,5.36Z"/></g><rect class="cls-8" x="15.09" y="40.2" width="4.38" height="5.88" rx="2.19" ry="2.19"/><rect class="cls-9" x="39.69" y="40.2" width="4.38" height="5.88" rx="2.19" ry="2.19"/><rect class="cls-8" x="64.48" y="40.2" width="4.38" height="5.88" rx="2.19" ry="2.19"/><rect class="cls-9" x="89.72" y="40.2" width="4.38" height="5.88" rx="2.19" ry="2.19"/><rect class="cls-9" x="15.09" y="71.01" width="4.38" height="5.88" rx="2.19" ry="2.19"/><rect class="cls-8" x="39.69" y="71.01" width="4.38" height="5.88" rx="2.19" ry="2.19"/><rect class="cls-9" x="64.48" y="71.01" width="4.38" height="5.88" rx="2.19" ry="2.19"/><rect class="cls-8" x="89.72" y="71.01" width="4.38" height="5.88" rx="2.19" ry="2.19"/><rect class="cls-10" x="52.08" y="51.34" width="4.38" height="7.47" rx="2.19" ry="2.19"/><rect class="cls-10" x="77.1" y="51.34" width="4.38" height="7.47" rx="2.19" ry="2.19"/><rect class="cls-10" x="27.39" y="51.34" width="4.38" height="7.47" rx="2.19" ry="2.19"/><rect class="cls-10" x="2.14" y="51.34" width="4.38" height="7.47" rx="2.19" ry="2.19"/><rect class="cls-11" y="83.41" width="100" height="15.59"/><path class="cls-12" d="M0,100V87.28H3.5A3.82,3.82,0,0,1,7.31,91.1,3.75,3.75,0,0,0,11,94.9h1.67a3.82,3.82,0,0,0,3.81-3.81h0a3.8,3.8,0,0,1,3.81-3.81h8.54a3.77,3.77,0,0,1,1.17.19,3.39,3.39,0,0,1,.68.29,3.71,3.71,0,0,1,.88.65,3.77,3.77,0,0,1,1.11,2.7,3.86,3.86,0,0,0,.63,2.13l.22.29a3.82,3.82,0,0,0,2.92,1.37h1.63a3.79,3.79,0,0,0,2.7-1.11,3.22,3.22,0,0,0,.24-.28,3.8,3.8,0,0,0,.7-1.28,3.86,3.86,0,0,0,.17-1.13h0A3.75,3.75,0,0,1,42.09,90a3.81,3.81,0,0,1,3.64-2.69h8.54A3.8,3.8,0,0,1,57,88.41a3.52,3.52,0,0,1,.65.88,3.66,3.66,0,0,1,.46,1.81h0a3.79,3.79,0,0,0,.08.77,7,7,0,0,0,1,1.92,3.59,3.59,0,0,0,.57.46,3.5,3.5,0,0,0,1,.48,3.86,3.86,0,0,0,1.13.17h1.64a3.81,3.81,0,0,0,3.81-3.81h0a3.81,3.81,0,0,1,3.8-3.81h8.54a3.8,3.8,0,0,1,3.81,3.8h0a3.81,3.81,0,0,0,3.81,3.8h.82a3.81,3.81,0,0,0,3.81-3.81h0a3.81,3.81,0,0,1,3.81-3.8H100V100Z"/><rect class="cls-11" y="2.9" width="100" height="16.51"/><path class="cls-13" d="M0,4.32V17H4.31a3.8,3.8,0,0,0,3.76-3.81,3.81,3.81,0,0,1,3.81-3.8h.83a3.81,3.81,0,0,1,3.81,3.8A3.79,3.79,0,0,0,20.33,17h8.53a3.81,3.81,0,0,0,3.81-3.8h0a3.8,3.8,0,0,1,3.81-3.8h1.63a3.66,3.66,0,0,1,1.55.34,3.78,3.78,0,0,1,2.25,3.46h0A3.81,3.81,0,0,0,45.72,17h8.54a3.8,3.8,0,0,0,3.81-3.8h0a3.82,3.82,0,0,1,3.81-3.81h1.66a3.73,3.73,0,0,1,1.54.34,3.85,3.85,0,0,1,2.2,3.5A3.79,3.79,0,0,0,71.09,17h8.54a3.8,3.8,0,0,0,3.8-3.8,3.81,3.81,0,0,1,3.81-3.81h.93a3.6,3.6,0,0,1,1.84.5,3.85,3.85,0,0,1,1.9,3.34A3.81,3.81,0,0,0,95.71,17H100V4.32Z"/><path class="cls-12" d="M0,12.67V0H100V12.69H96.49a3.83,3.83,0,0,1-2.69-1.11,3.77,3.77,0,0,1-1.11-2.7A3.76,3.76,0,0,0,89,5.08H87.29a3.8,3.8,0,0,0-3.81,3.8h0a3.81,3.81,0,0,1-3.81,3.8H71.13a3.59,3.59,0,0,1-.81-.09,3,3,0,0,1-.4-.11l-.31-.11c-.1-.05-.2-.09-.3-.15L69,12h0a4.87,4.87,0,0,1-.42-.35.81.81,0,0,1-.14-.12,3.71,3.71,0,0,1-1.12-2.69,3.88,3.88,0,0,0-.79-2.34l-.06-.07a3.08,3.08,0,0,0-.24-.26,3.77,3.77,0,0,0-2.68-1.12H61.89a3.79,3.79,0,0,0-1.48.29,4.09,4.09,0,0,0-1.22.82,3.79,3.79,0,0,0-1.11,2.69A3.77,3.77,0,0,1,57,11.57h0a3.75,3.75,0,0,1-2.69,1.11H45.73A3.31,3.31,0,0,1,45,12.6a3.09,3.09,0,0,1-.46-.12,2.81,2.81,0,0,1-.47-.21A2.26,2.26,0,0,1,43.6,12a2.8,2.8,0,0,1-.56-.47,3.75,3.75,0,0,1-1.12-2.68h0a3.77,3.77,0,0,0-3.8-3.8H36.49a3.81,3.81,0,0,0-3.81,3.81,3.82,3.82,0,0,1-3.81,3.81H20.33a3.81,3.81,0,0,1-3.81-3.8h0a3.81,3.81,0,0,0-3.8-3.81h-.83a3.8,3.8,0,0,0-3.8,3.81h0a3.81,3.81,0,0,1-3.81,3.8Z"/></g></g></svg>