{
    "asset" : {
        "generator" : "Khronos glTF Blender I/O v1.6.16",
        "version" : "2.0"
    },
    "scene" : 0,
    "scenes" : [
        {
            "name" : "Scene",
            "nodes" : [
                0,
                1,
                2,
                3,
                4,
                5,
                6,
                7,
                8,
                9,
                10
            ]
        }
    ],
    "nodes" : [
        {
            "mesh" : 0,
            "name" : "bone"
        },
        {
            "mesh" : 1,
            "name" : "cherry"
        },
        {
            "mesh" : 2,
            "name" : "nutA"
        },
        {
            "mesh" : 3,
            "name" : "nut_seedpod"
        },
        {
            "mesh" : 4,
            "name" : "nut_shell"
        },
        {
            "mesh" : 5,
            "name" : "wishbone"
        },
        {
            "mesh" : 6,
            "name" : "device"
        },
        {
            "mesh" : 7,
            "name" : "lobstershell_work"
        },
        {
            "mesh" : 8,
            "name" : "twigB_work"
        },
        {
            "mesh" : 9,
            "name" : "bulb_work"
        },
        {
            "mesh" : 10,
            "name" : "leaf_work"
        }
    ],
    "meshes" : [
        {
            "name" : "bone.001",
            "primitives" : [
                {
                    "attributes" : {
                        "POSITION" : 0,
                        "NORMAL" : 1
                    },
                    "indices" : 2
                }
            ]
        },
        {
            "name" : "cherry.001",
            "primitives" : [
                {
                    "attributes" : {
                        "POSITION" : 3,
                        "NORMAL" : 4
                    },
                    "indices" : 5
                }
            ]
        },
        {
            "name" : "nutA",
            "primitives" : [
                {
                    "attributes" : {
                        "POSITION" : 6,
                        "NORMAL" : 7
                    },
                    "indices" : 8
                }
            ]
        },
        {
            "name" : "nutB",
            "primitives" : [
                {
                    "attributes" : {
                        "POSITION" : 9,
                        "NORMAL" : 10
                    },
                    "indices" : 11
                }
            ]
        },
        {
            "name" : "nutC",
            "primitives" : [
                {
                    "attributes" : {
                        "POSITION" : 12,
                        "NORMAL" : 13
                    },
                    "indices" : 14
                }
            ]
        },
        {
            "name" : "wishbone",
            "primitives" : [
                {
                    "attributes" : {
                        "POSITION" : 15,
                        "NORMAL" : 16
                    },
                    "indices" : 17
                }
            ]
        },
        {
            "name" : "deviceCube",
            "primitives" : [
                {
                    "attributes" : {
                        "POSITION" : 18,
                        "NORMAL" : 19,
                        "TEXCOORD_0" : 20
                    },
                    "indices" : 21
                }
            ]
        },
        {
            "name" : "lobstershell.001",
            "primitives" : [
                {
                    "attributes" : {
                        "POSITION" : 22,
                        "NORMAL" : 23
                    },
                    "indices" : 24
                }
            ]
        },
        {
            "name" : "twig2.001",
            "primitives" : [
                {
                    "attributes" : {
                        "POSITION" : 25,
                        "NORMAL" : 26
                    },
                    "indices" : 27
                }
            ]
        },
        {
            "name" : "bulb.002",
            "primitives" : [
                {
                    "attributes" : {
                        "POSITION" : 28,
                        "NORMAL" : 29
                    },
                    "indices" : 30
                }
            ]
        },
        {
            "name" : "leaf.002",
            "primitives" : [
                {
                    "attributes" : {
                        "POSITION" : 31,
                        "NORMAL" : 32
                    },
                    "indices" : 33
                }
            ]
        }
    ],
    "accessors" : [
        {
            "bufferView" : 0,
            "componentType" : 5126,
            "count" : 523,
            "max" : [
                0.24451421201229095,
                0.1390140950679779,
                0.8602832555770874
            ],
            "min" : [
                -0.1830463856458664,
                -0.1259554624557495,
                -0.8098462224006653
            ],
            "type" : "VEC3"
        },
        {
            "bufferView" : 1,
            "componentType" : 5126,
            "count" : 523,
            "type" : "VEC3"
        },
        {
            "bufferView" : 2,
            "componentType" : 5123,
            "count" : 3126,
            "type" : "SCALAR"
        },
        {
            "bufferView" : 3,
            "componentType" : 5126,
            "count" : 822,
            "max" : [
                0.8663439750671387,
                1.1388357877731323,
                0.8670432567596436
            ],
            "min" : [
                -0.9103543758392334,
                -0.4701486825942993,
                -0.19713401794433594
            ],
            "type" : "VEC3"
        },
        {
            "bufferView" : 4,
            "componentType" : 5126,
            "count" : 822,
            "type" : "VEC3"
        },
        {
            "bufferView" : 5,
            "componentType" : 5123,
            "count" : 4896,
            "type" : "SCALAR"
        },
        {
            "bufferView" : 6,
            "componentType" : 5126,
            "count" : 318,
            "max" : [
                0.3871651887893677,
                0.7322332859039307,
                0.49777543544769287
            ],
            "min" : [
                -0.36609503626823425,
                -0.45279401540756226,
                -0.4230022430419922
            ],
            "type" : "VEC3"
        },
        {
            "bufferView" : 7,
            "componentType" : 5126,
            "count" : 318,
            "type" : "VEC3"
        },
        {
            "bufferView" : 8,
            "componentType" : 5123,
            "count" : 1896,
            "type" : "SCALAR"
        },
        {
            "bufferView" : 9,
            "componentType" : 5126,
            "count" : 1261,
            "max" : [
                0.5610001683235168,
                0.8305925130844116,
                0.5737304091453552
            ],
            "min" : [
                -0.5208873152732849,
                -0.6744413375854492,
                -0.5958167910575867
            ],
            "type" : "VEC3"
        },
        {
            "bufferView" : 10,
            "componentType" : 5126,
            "count" : 1261,
            "type" : "VEC3"
        },
        {
            "bufferView" : 11,
            "componentType" : 5123,
            "count" : 7554,
            "type" : "SCALAR"
        },
        {
            "bufferView" : 12,
            "componentType" : 5126,
            "count" : 510,
            "max" : [
                0.6769272089004517,
                1.156866431236267,
                0.752895176410675
            ],
            "min" : [
                -0.709293782711029,
                -0.7522481679916382,
                -0.8254862427711487
            ],
            "type" : "VEC3"
        },
        {
            "bufferView" : 13,
            "componentType" : 5126,
            "count" : 510,
            "type" : "VEC3"
        },
        {
            "bufferView" : 14,
            "componentType" : 5123,
            "count" : 3048,
            "type" : "SCALAR"
        },
        {
            "bufferView" : 15,
            "componentType" : 5126,
            "count" : 815,
            "max" : [
                0.5142513513565063,
                1.270120620727539,
                0.23869997262954712
            ],
            "min" : [
                -0.5142514705657959,
                -0.7423391342163086,
                -0.20650696754455566
            ],
            "type" : "VEC3"
        },
        {
            "bufferView" : 16,
            "componentType" : 5126,
            "count" : 815,
            "type" : "VEC3"
        },
        {
            "bufferView" : 17,
            "componentType" : 5123,
            "count" : 4878,
            "type" : "SCALAR"
        },
        {
            "bufferView" : 18,
            "componentType" : 5126,
            "count" : 280,
            "max" : [
                0.5926450490951538,
                2.0146071910858154,
                0.06279309839010239
            ],
            "min" : [
                -0.5554556846618652,
                0.003627598285675049,
                -0.06279309839010239
            ],
            "type" : "VEC3"
        },
        {
            "bufferView" : 19,
            "componentType" : 5126,
            "count" : 280,
            "type" : "VEC3"
        },
        {
            "bufferView" : 20,
            "componentType" : 5126,
            "count" : 280,
            "type" : "VEC2"
        },
        {
            "bufferView" : 21,
            "componentType" : 5123,
            "count" : 1452,
            "type" : "SCALAR"
        },
        {
            "bufferView" : 22,
            "componentType" : 5126,
            "count" : 813,
            "max" : [
                0.6949707865715027,
                0.9506523609161377,
                0.36045295000076294
            ],
            "min" : [
                -0.7728223204612732,
                -0.9572883248329163,
                -0.46912190318107605
            ],
            "type" : "VEC3"
        },
        {
            "bufferView" : 23,
            "componentType" : 5126,
            "count" : 813,
            "type" : "VEC3"
        },
        {
            "bufferView" : 24,
            "componentType" : 5123,
            "count" : 4866,
            "type" : "SCALAR"
        },
        {
            "bufferView" : 25,
            "componentType" : 5126,
            "count" : 845,
            "max" : [
                0.47259289026260376,
                0.8178108930587769,
                0.17524194717407227
            ],
            "min" : [
                -0.5992228984832764,
                -0.8639909029006958,
                -0.23920130729675293
            ],
            "type" : "VEC3"
        },
        {
            "bufferView" : 26,
            "componentType" : 5126,
            "count" : 845,
            "type" : "VEC3"
        },
        {
            "bufferView" : 27,
            "componentType" : 5123,
            "count" : 5058,
            "type" : "SCALAR"
        },
        {
            "bufferView" : 28,
            "componentType" : 5126,
            "count" : 764,
            "max" : [
                0.7612069249153137,
                0.8312942385673523,
                0.8022935390472412
            ],
            "min" : [
                -0.7642356753349304,
                -0.5433306694030762,
                -0.7243567705154419
            ],
            "type" : "VEC3"
        },
        {
            "bufferView" : 29,
            "componentType" : 5126,
            "count" : 764,
            "type" : "VEC3"
        },
        {
            "bufferView" : 30,
            "componentType" : 5123,
            "count" : 4572,
            "type" : "SCALAR"
        },
        {
            "bufferView" : 31,
            "componentType" : 5126,
            "count" : 400,
            "max" : [
                0.5814863443374634,
                0.9868149161338806,
                0.43351688981056213
            ],
            "min" : [
                -0.5814864039421082,
                -0.9348101019859314,
                0.20671270787715912
            ],
            "type" : "VEC3"
        },
        {
            "bufferView" : 32,
            "componentType" : 5126,
            "count" : 400,
            "type" : "VEC3"
        },
        {
            "bufferView" : 33,
            "componentType" : 5123,
            "count" : 2388,
            "type" : "SCALAR"
        }
    ],
    "bufferViews" : [
        {
            "buffer" : 0,
            "byteLength" : 6276,
            "byteOffset" : 0
        },
        {
            "buffer" : 0,
            "byteLength" : 6276,
            "byteOffset" : 6276
        },
        {
            "buffer" : 0,
            "byteLength" : 6252,
            "byteOffset" : 12552
        },
        {
            "buffer" : 0,
            "byteLength" : 9864,
            "byteOffset" : 18804
        },
        {
            "buffer" : 0,
            "byteLength" : 9864,
            "byteOffset" : 28668
        },
        {
            "buffer" : 0,
            "byteLength" : 9792,
            "byteOffset" : 38532
        },
        {
            "buffer" : 0,
            "byteLength" : 3816,
            "byteOffset" : 48324
        },
        {
            "buffer" : 0,
            "byteLength" : 3816,
            "byteOffset" : 52140
        },
        {
            "buffer" : 0,
            "byteLength" : 3792,
            "byteOffset" : 55956
        },
        {
            "buffer" : 0,
            "byteLength" : 15132,
            "byteOffset" : 59748
        },
        {
            "buffer" : 0,
            "byteLength" : 15132,
            "byteOffset" : 74880
        },
        {
            "buffer" : 0,
            "byteLength" : 15108,
            "byteOffset" : 90012
        },
        {
            "buffer" : 0,
            "byteLength" : 6120,
            "byteOffset" : 105120
        },
        {
            "buffer" : 0,
            "byteLength" : 6120,
            "byteOffset" : 111240
        },
        {
            "buffer" : 0,
            "byteLength" : 6096,
            "byteOffset" : 117360
        },
        {
            "buffer" : 0,
            "byteLength" : 9780,
            "byteOffset" : 123456
        },
        {
            "buffer" : 0,
            "byteLength" : 9780,
            "byteOffset" : 133236
        },
        {
            "buffer" : 0,
            "byteLength" : 9756,
            "byteOffset" : 143016
        },
        {
            "buffer" : 0,
            "byteLength" : 3360,
            "byteOffset" : 152772
        },
        {
            "buffer" : 0,
            "byteLength" : 3360,
            "byteOffset" : 156132
        },
        {
            "buffer" : 0,
            "byteLength" : 2240,
            "byteOffset" : 159492
        },
        {
            "buffer" : 0,
            "byteLength" : 2904,
            "byteOffset" : 161732
        },
        {
            "buffer" : 0,
            "byteLength" : 9756,
            "byteOffset" : 164636
        },
        {
            "buffer" : 0,
            "byteLength" : 9756,
            "byteOffset" : 174392
        },
        {
            "buffer" : 0,
            "byteLength" : 9732,
            "byteOffset" : 184148
        },
        {
            "buffer" : 0,
            "byteLength" : 10140,
            "byteOffset" : 193880
        },
        {
            "buffer" : 0,
            "byteLength" : 10140,
            "byteOffset" : 204020
        },
        {
            "buffer" : 0,
            "byteLength" : 10116,
            "byteOffset" : 214160
        },
        {
            "buffer" : 0,
            "byteLength" : 9168,
            "byteOffset" : 224276
        },
        {
            "buffer" : 0,
            "byteLength" : 9168,
            "byteOffset" : 233444
        },
        {
            "buffer" : 0,
            "byteLength" : 9144,
            "byteOffset" : 242612
        },
        {
            "buffer" : 0,
            "byteLength" : 4800,
            "byteOffset" : 251756
        },
        {
            "buffer" : 0,
            "byteLength" : 4800,
            "byteOffset" : 256556
        },
        {
            "buffer" : 0,
            "byteLength" : 4776,
            "byteOffset" : 261356
        }
    ],
    "buffers" : [
        {
            "byteLength" : 266132,
            "uri" : "data:application/octet-stream;base64,"
        }
    ]
}
