v -2.08931931473434 3.1012632852848276 0.16611669045832447
v -2.014112904892463 3.1038144205316063 0.15398810022005102
v -2.059485963921494 3.154731473495033 0.14512812652967472
v -1.9523889844153717 3.1076876738992487 0.1164705876787165
v -2.0285473371685447 3.1909009857679695 0.11028993963863185
v -1.906017448330322 3.1090606342088245 0.05967395561777593
v -2.004436440562368 3.2267168924425653 0.05542556738582458
v -1.8798418003079072 3.080517508115372 2.665050654993983E-7
v -1.9727298647933478 3.228117658380496 -8.052704233871502E-9
v -1.9060174929071525 3.109060637026057 -0.059673903060630126
v -2.004436448026314 3.226716897777081 -0.05542558922353884
v -1.952389000506221 3.1076876674541896 -0.11647058049542608
v -2.028547336795847 3.1909009950111398 -0.11028994672180537
v -2.0141128810409157 3.1038144188391987 -0.15398812269196907
v -2.0594859609194685 3.154731472117593 -0.1451281250737746
v -2.0893192887905174 3.101263279185449 -0.16611673091448975
v -2.1087618869283977 3.1441133912336214 0.14947423467664084
v -2.127159327746014 3.174369570682529 0.12158073549425406
v -2.1490335064008623 3.2150939464118005 0.0635590009504794
v -2.155292740626464 3.2274803606781117 3.3254659291485135E-7
v -2.1490335834694374 3.2150939938732757 -0.06355884905885398
v -2.1271593323547657 3.174369577640916 -0.12158075504956582
v -2.1087618807908703 3.144113386509404 -0.14947423703223228
v -2.1664011850502263 3.1061440728233753 0.14857220035749788
v -2.223731851521258 3.1165802646609766 0.11257738165207536
v -2.2903551784909806 3.078732293364159 1.7955960653078163E-6
v -2.2237317132976773 3.1165804912952577 -0.11257735912033279
v -2.1664011972655155 3.1061441056615617 -0.14857230359733067
v -3.237888274788372 1.73907591756701 0.07710066968073388
v -3.2733555361571787 1.7467940120498278 0.06751729279141687
v -3.274351947383921 1.7244448588252255 0.06413391250222097
v -3.302430471664746 1.7653308796716842 0.04024297293334292
v -3.294928097829082 1.714714476723862 0.04892113732121012
v -3.3143766804579036 1.7084095721846728 0.01901448393111889
v -3.2939346715911935 1.7914523973863143 -1.1132022372011636E-4
v -3.3144511230653233 1.708527996256016 -0.019823929642737617
v -3.3025061747479914 1.7656726641166915 -0.04044357746230956
v -3.2951199196747836 1.7151357075152076 -0.04938183632672798
v -3.2734322439662136 1.7465340738174124 -0.06723367238458354
v -3.273993524216127 1.7245154778863976 -0.0645205326483619
v -3.237877005333914 1.735219579236303 -0.07595740593760177
v -3.2175310247124234 1.7131001124577085 0.0684809553489967
v -3.1746867626340523 1.6932641601105936 0.05521551979706872
v -3.1578574894917004 1.6808200023542081 -1.0668592012236136E-4
v -3.172499891367816 1.6891138812436972 -0.05662097615734652
v -3.215019073186974 1.7090107641882981 -0.06900692857652489
v -2.1436264948309707 0.6193861686970931 0.07974019538514106
v -2.1471513283439196 0.643271672011917 0.07022725257641507
v -2.179028345807359 0.6087849927600361 0.062491786265692434
v -2.213067890082191 0.5839817544409592 0.0356800102265501
v -2.1430824575694425 0.6734282130089438 0.009630126522341825
v -2.226696165701232 0.5778797836107326 -0.001590199878821357
v -2.1597337293386603 0.6624766534952777 -0.05516879437017314
v -2.2100348444054507 0.5937926579586306 -0.03845313409666035
v -2.1497431466262196 0.6483726613940541 -0.07479204382997805
v -2.177691951698887 0.6095331773541877 -0.06760904405904505
v -2.141366421350505 0.6169401663519074 -0.08006591558043745
v -2.1326904278504575 0.5845406477804705 0.07322376083965863
v -2.1356624518769762 0.5615884416881961 0.05930757891207934
v -2.1368291406561224 0.5634938128194802 -0.058913825710362806
v -2.1328076010636376 0.584782887858899 -0.07310206918797058
v -0.7451268729293695 0.47049878419228197 0.11046212739858453
v -0.7546219989396379 0.4176952293260625 0.10015862122879612
v -0.7061464103601738 0.4207952637783364 0.09524054574278025
v -0.7475366298695374 0.3731298708062291 0.07228447345013302
v -0.6698044067645033 0.3760444754609463 0.05307677495377024
v -0.7293463429145955 0.34305084708696104 9.206749299981607E-4
v -0.6481290896726065 0.38090434867684503 2.321981021628249E-4
v -0.74645142163774 0.3740897417453063 -0.07221777344166777
v -0.6695999327286316 0.3765135265553192 -0.05283699988559322
v -0.7534373057432436 0.41936744412768245 -0.1001657117429208
v -0.7059623184734486 0.4208097392289457 -0.09505340512124062
v -0.7450209026158682 0.47062858238992095 -0.11021971065640701
v -0.7345928097417813 0.5262332677580868 0.10615439340538567
v -0.7168351100991353 0.5718109933260874 0.08545184814100655
v -0.6973194443437961 0.6350104802601738 -7.449479036272324E-6
v -0.7168366071614216 0.5718144120755496 -0.08548634244256245
v -0.7346294823734502 0.5261785566626808 -0.1062221638286415
v 0.8185849374157983 0.15582285817797054 0.08429876295973654
v 0.8335556381125974 0.1743222036597756 0.06927794849747192
v 0.7855948824591037 0.15201162614227043 0.06795700762960241
v 0.7557996953965007 0.146937325997545 0.004476054172800037
v 0.8659079607742839 0.19213661004001986 -0.032038162670124506
v 0.747915256242814 0.15961626338214407 -0.040191659916712204
v 0.8346868679303171 0.17838116689333466 -0.0758147813283598
v 0.7837754831470235 0.16250270714609208 -0.06889624054818286
v 0.8177327156339308 0.15457251229997393 -0.08427321240699652
v 0.8025148711716881 0.12344839121690333 0.07727889790433635
v 0.7836476366004453 0.10408330799070417 0.05584698090462578
v 0.7772303484519234 0.08453468600920075 0.033261469375711894
v 0.7799970732444264 0.07858297239262482 -0.0032612950148408256
v 0.7704844950498551 0.08528036839818605 -0.03597699135221605
v 0.7808229593613982 0.10107883024193266 -0.05832361171233541
v 0.8020838165454695 0.12177651493763934 -0.07677275487435721
v 3.4714118947168693 0.03284381431251185 0.06549276195153113
v 3.5052576985171715 0.009912046347658968 0.05952749783819241
v 3.5331448491256623 0.009105819617121834 0.049950787038498395
v 3.5429030320533013 -0.007950877310922668 0.03764666796647725
v 3.5490920395429097 -0.01727445603575506 -0.004941713683600567
v 3.5924302805350714 0.010800444300894281 -0.001211253750792418
v 3.5426459213955046 -0.008131181962439091 -0.04131991744464912
v 3.6061450173388967 0.004157520995695087 -0.022739079262187628
v 3.5048654755384145 0.010419268441509142 -0.05856572595260095
v 3.5338322777723037 0.00919066109641373 -0.05226556575346768
v 3.4713882909653018 0.03314695950759268 -0.06439251364866577
v 3.443868144748904 0.059257439742831264 0.060868435181785856
v 3.4183132053475567 0.08262572547930808 0.04931106385176447
v 3.3996872845768675 0.10346442183423352 0.027633627514492755
v 3.388157742700715 0.11474156741868412 -0.001281552375402569
v 3.401321946316066 0.10416235600825645 -0.027170067545248727
v 3.4175977342887593 0.08266730127576935 -0.05067705735461888
v 3.443740530322137 0.059251569804805934 -0.06064247051746561
v -1.8020670430535828 2.0596186661123523 0.37457953398474775
v -1.7773241229136911 2.1942841683935583 0.36413992582525806
v -1.9091790586467083 2.342549084152436 0.25187964249449657
v -1.949332482161311 2.4172540144560752 0.11807403869922814
v -1.7862090416793253 2.5092907916626213 -8.877117220603466E-4
v -1.966179647358522 2.4358430927492196 -4.930578471702963E-5
v -1.7836204211486009 2.459780585731135 -0.18122796944808356
v -1.9486693308010226 2.417758863058122 -0.11683652715948685
v -1.7752884011448744 2.32749988459766 -0.30615550756019094
v -1.9097978342908892 2.341090910497001 -0.24973414650479486
v -1.7813084678019242 2.1763939411768574 -0.36375165820809235
v -1.8866941486962232 2.2005732048108215 0.33983367633792533
v -1.9694258214293463 2.291209098271049 0.2774308056051822
v -2.005964235531272 2.3754063997626074 0.15670702425358254
v -2.0101797190322763 2.4319134637564823 2.4957430699368983E-5
v -1.6066126405008725 2.302531839948432 0.3944642837628133
v -1.7072035963422736 2.1883665340552128 0.3820596573525946
v -1.5948275465396944 2.1270114851220985 0.43347477106413534
v -1.6694213966947284 2.012438615560882 0.3973393580210328
v -1.587806134532685 2.4594713722885824 0.31836548502553286
v -1.7502643152105026 2.332417396580314 0.31142165029505553
v -1.6082088509426073 2.584844201532193 0.14879408857772505
v -1.7705752339941232 2.460528212761441 0.1830957172402109
v -1.5632373882673054 2.654977625831491 -0.006635426093981373
v -1.6099073275337268 2.5926761432009693 -0.15401320759769524
v -1.5897194674412365 2.474442628344245 -0.3152278490258372
v -1.6067273064608874 2.309153266917167 -0.3960812042447788
v -1.7103184891976255 2.2091404245249273 -0.3759375231563277
v -1.590574115373635 2.1236763562980263 -0.4350929303049315
v -1.6766538873783807 2.041717003180945 -0.3983976581819107
v -1.6475508283491012 1.8735766492464743 0.3675267680829341
v -1.5852241713591053 1.925637060083338 0.41070330808408817
v -1.562604721222179 1.585384761866758 2.6471728059100354E-4
v -1.651927508989409 1.8802107100271632 -0.3710730277299069
v -1.5834039295617164 1.9208180157398438 -0.4091464881132788
v -2.141121014209143 2.4495668784398252 0.16658483212913214
v -2.077812871343621 2.5505395488472544 0.1651036693364805
v -2.1641133685056673 2.5473719496235523 0.18382845805914147
v -2.2129938881061784 2.4741745781135376 0.18167093008392488
v -2.0863998559337147 2.432077841854731 0.1314250616519419
v -2.0143996252936707 2.5496456994988383 0.12474433164308692
v -2.043503347562966 2.4272368750278375 0.08757507705568994
v -1.9584620322429402 2.5709962463950466 -2.638775707848076E-5
v -2.04432652538485 2.4273623929407564 -0.08753234672219755
v -2.0867456796150785 2.4322694258844813 -0.1314741642831106
v -2.014331320243903 2.5496305033430335 -0.12474809207234425
v -2.1409847522072742 2.449360002542205 -0.16651957551302438
v -2.0777493779103886 2.550525830412437 -0.1651274668613375
v -2.2127224299721524 2.474276126617472 -0.1816635145610445
v -2.1640953983708835 2.54737504941451 -0.18385192294574965
v -2.2485235023124917 2.5460563239381115 0.17096828409193537
v -2.2864887847263597 2.4981961510112853 0.16293495736814972
v -2.325493595036202 2.5468395017569643 0.1284619485123037
v -2.3411986548291845 2.5160078378978668 0.1268089939310424
v -2.376161129209863 2.5402666765552313 0.086189462585975
v -2.4066966012998208 2.5440784051084724 -4.990617738613423E-5
v -2.375939406140018 2.5402187594670695 -0.08650013239386853
v -2.3253671297920304 2.546747117393673 -0.12854583346086318
v -2.3410196554868703 2.5159570989153934 -0.1269172593462503
v -2.248473057272844 2.5460293834110064 -0.17101295503683153
v -2.2863555075990525 2.4981677499754027 -0.16297224458737333
v -2.0691063995961207 2.6759269169182103 0.18789001759464707
v -2.0266343360784917 2.90988406390293 0.1930708852905972
v -2.1393625808953454 2.7436482939363134 0.2043429688087735
v -2.1208581957661727 2.919499497199002 0.20277613691542765
v -2.0043606042394453 2.6199666071016523 0.14238214921595335
v -1.936404679683605 2.899108983824749 0.15024017902826814
v -1.9749922745169721 2.5760685750633643 0.07801039801335098
v -1.874263883525034 2.8788511698276857 -2.3434362527679617E-7
v -1.974970905234119 2.576047125488141 -0.07803702749956941
v -2.0043193286440166 2.619959371305081 -0.14239068483333414
v -1.936405344136562 2.8991091849013015 -0.15023990000356438
v -2.0691058429201803 2.6759289690577464 -0.18789193544806532
v -2.026635301121349 2.909884461103924 -0.19307002262547399
v -2.1393708256208686 2.7436492976880973 -0.20434296467089497
v -2.1208598520090924 2.919501013035179 -0.2027744414961634
v -2.2137182141159673 2.9277238735732167 0.1807157373617752
v -2.2098785343133613 2.811184942872276 0.19188748658812152
v -2.280533895882386 2.9367970302397755 0.13832959932004596
v -2.2804782499395144 2.8679240401392914 0.15013152268914381
v -2.3213828725549894 2.914138682203193 0.08226591722424693
v -2.3410292163354463 2.923148362648534 -1.1439784373037267E-5
v -2.321361159017311 2.9141317350986733 -0.08229441890669961
v -2.280532858187366 2.9367985190261092 -0.1383241503764452
v -2.2804549937944114 2.8679137410803133 -0.1501435991936735
v -2.2137204887484874 2.927725202713505 -0.18071192940246028
v -2.2098809633343257 2.8111855038357065 -0.19188548541617367
v -1.9780027772296096 2.9628332153140415 0.17192726268266634
v -2.0586082670534833 2.997741202011853 0.18955036286501875
v -1.9161899168914316 2.9380921363149355 0.13423725087835764
v -1.8889444771713078 2.910866990843014 0.08018054271870183
v -1.8889419686070714 2.9108666437054196 -0.08018085210907336
v -1.9161903430215597 2.938092327189424 -0.1342370797115168
v -1.9780028667993057 2.962833099620471 -0.1719271810398893
v -2.058608225695582 2.9977411673735737 -0.18955039001929458
v -2.14456278587876 3.033408943164363 0.17760676482640467
v -2.2244075900298923 3.066703395882744 0.13638695775777757
v -2.2590478647595043 3.099696236619387 0.07731910477060451
v -2.259047407655613 3.0996961090111306 -0.07731782813983756
v -2.224408168238592 3.0667034257563723 -0.1363865351604346
v -2.1445630922065213 3.033409112810957 -0.17760667712472314
v -2.3265884177342655 2.4068606008488387 0.19420717755532868
v -2.249424413741235 2.4181550274419417 0.2012625497598954
v -2.4118484700583895 2.4106633432483666 0.14156623247927105
v -2.4417412589960916 2.424330732386478 0.08501002827450492
v -2.470425499387834 2.4053438298341767 -1.0659070677829791E-4
v -2.4429099249584847 2.4238652388814135 -0.08456783582758311
v -2.414090575343495 2.410488499531764 -0.14075385055010875
v -2.326927801474643 2.40819838337986 -0.19287027325857925
v -2.2487888910416927 2.4181046547413745 -0.2011374154745704
v -2.1709310380674913 2.407886307287277 0.19008187795984957
v -2.0909957730603086 2.4038672629124886 0.13787817585977452
v -2.0923311811109095 2.403865471998522 -0.13778259901983508
v -2.171096952903544 2.4075132909916004 -0.19008946113673694
v -2.4679257547149422 2.1117793361980826 0.2926013222755318
v -2.313832636072133 2.0511519617648895 0.3338055751442098
v -2.3728637815314566 1.9896623018876394 0.3161396888768853
v -2.534649991579551 2.2109112618797426 0.23073136930927235
v -2.5875948980811496 2.2849846754665983 0.12690679012230144
v -2.587540746199579 2.309889844446352 -1.4508386695948554E-5
v -2.4710475303505524 2.3743908925694654 -0.11217658598591707
v -2.58778820161752 2.2844996126379313 -0.1273564874006084
v -2.4241918184482913 2.315006663889915 -0.21153691174701017
v -2.5359831937693804 2.209683481192035 -0.23274587883029274
v -2.3545804893045883 2.1874344012212443 -0.30107971532306277
v -2.4680681133914506 2.116177468382659 -0.29458598109428613
v -2.313011939332219 2.0556179218082 -0.3346283153818408
v -2.3692224909526125 1.9988812190808405 -0.3170389206862474
v -2.2879237426010235 1.8824966071150906 0.29390578729209893
v -2.230766373444615 1.9253902602825914 0.31608320588516936
v -2.2040315004206414 1.8023850159323305 0.2374181446082752
v -2.1058216234730383 1.6870722486117666 -0.0013326530530731158
v -2.289279976273893 1.8937445064328593 -0.2919453049305209
v -2.64639325446376 2.11256325987922 0.2264785335500736
v -2.825242108262228 1.994734692776414 0.18725449117879905
v -2.672138914117743 1.9918904099569144 0.24575300893207036
v -2.802452076453081 1.9133210072279114 0.2116089815200965
v -2.636754051774042 2.214463579897365 0.1642611194924439
v -2.8413624213794253 2.0491490859017394 0.14424583709373445
v -2.628244956019849 2.271448672383052 0.10009971335811373
v -2.8649419327429095 2.1049814332068224 7.838973449080123E-5
v -2.6283438004346262 2.2712077512974624 -0.09986246670754931
v -2.636764218379021 2.2143853519538914 -0.164151776460909
v -2.8414844352749222 2.0492913060264573 -0.14437821188594163
v -2.646542658102493 2.1124509970275365 -0.2270403832514568
v -2.8252609415195677 1.9945045541458808 -0.1875639741931215
v -2.672608426984259 1.9921677724083053 -0.24635526886869655
v -2.8022148113631893 1.9126973023275269 -0.21108059080782085
v -2.786119075277641 1.8253966370818175 0.19353614824241844
v -2.697284981830886 1.8779369793393872 0.227150060773467
v -2.7582566784829825 1.7638746212947782 0.15660874163666838
v -2.7119165705069226 1.7801436002274609 0.17422532926709342
v -2.735393476170394 1.7321891871700759 0.09230439085139631
v -2.739096385835829 1.738702442068603 -0.11022408781560421
v -2.7624466411571333 1.7624072604537189 -0.1514441822345878
v -2.7106013418541517 1.7851911629466264 -0.17436086695954067
v -2.7852889494576223 1.8227571901805895 -0.19031808332127412
v -2.6969599087678673 1.8792165511020027 -0.22692189010395583
v -2.9473996947929044 1.9414662503601818 0.16472670445839227
v -2.9902129268143467 1.8610340764920674 0.16579443470943134
v -2.912762895396744 2.0133158157995816 0.12902068449779458
v -2.8763961854806706 2.0743297402728267 0.08035937295655894
v -2.8764187990174594 2.074462883538779 -0.08033985043212438
v -2.9126366096154803 2.0131878158326852 -0.1291726189839943
v -2.9454334162287927 1.9401531894366593 -0.16357397251867972
v -2.989193871859125 1.8592755381950965 -0.16087151275985728
v -3.030564551276721 1.7666496610500477 0.12439735054733565
v -3.12232666986548 1.693826067577109 0.057506941168070536
v -3.1190267446543505 1.688445718860815 -0.05269541659538594
v -3.0896730119766818 1.7278759655467897 -0.09744631557193657
v -2.09950131340936 1.8887890415976318 0.3036699183418962
v -1.736968494631221 1.8784633137043343 0.34897975811389303
v -2.0813585908729144 2.0305175683218217 0.34298329769109187
v -2.121578980500297 1.7860727508382166 0.2313152677512672
v -1.6474703675709006 1.755115069224874 0.3090919537713478
v -2.1389841492683233 1.7255952588489443 0.14054740192700624
v -1.6190471978189729 1.6322989275535036 0.17708886283978234
v -2.1420768062305218 1.721057156275644 -0.12676117179626692
v -2.1188808175875886 1.7926179145286298 -0.24025374372643585
v -1.6392726734201317 1.7566286651129597 -0.31120592786764356
v -2.1051361041897647 1.931025680131072 -0.3232637728572795
v -2.075064712943092 2.0749634757135547 -0.3434513940717372
v -1.8014011943697537 2.0120003877550343 -0.37250591773036096
v -2.0646392149461366 2.18392171598477 0.320247732023836
v -2.054529048661599 2.2985288320549064 0.24422842547189808
v -2.0090009803609 2.3750173605853857 -0.1551877473514321
v -1.9772804201062557 2.2855681163214845 -0.27604651755130705
v -2.049824892425028 2.3070317125789725 -0.235280063842544
v -1.898208025177929 2.191848876942857 -0.33877153847778685
v -2.0571166104854486 2.2066441982802747 -0.30906462536476803
v -1.4905018229837608 1.8182160565094907 0.43471724862579875
v -1.5072174339700488 2.0488705837742147 0.48559687900885085
v -1.4867664509915135 1.657119700787582 0.321326681919908
v -1.458470122353631 1.4933437725344254 -3.740062602121057E-4
v -1.4812210000590242 1.6502108479250126 -0.3252411155384822
v -1.4926912555356515 1.8250641399178624 -0.4363755944265576
v -1.5068408039854475 2.0616113289191462 -0.48546233804373196
v -1.5262913036235832 2.283808063117873 0.4499947290945141
v -1.52645590667482 2.2967422801348256 -0.4488858375185499
v -1.3635352757864707 1.4071053289852207 0.16539376413491128
v -1.3831268445482354 1.2773128564192864 0.14369681067366655
v -1.302914495933602 1.3490051915402932 0.1839815466772742
v -1.3154959764981067 1.2551569108117346 0.1528907187179884
v -1.4085595819848828 1.4353863573843761 0.12431953617555025
v -1.4444347156853432 1.3024953855654005 0.10800046702581903
v -1.4377376710858087 1.461233665943735 0.08277956807236334
v -1.509477602754626 1.3238004949187452 4.3004464332911825E-4
v -1.4369340301163678 1.46028918962177 -0.0819329020571746
v -1.408461287554154 1.4355910957560467 -0.12362955266016502
v -1.4437396875907573 1.3020935295137117 -0.10773071944946447
v -1.364178939109324 1.4075078255687687 -0.16445483627490493
v -1.382837771396505 1.276764255275503 -0.14369687155851105
v -1.302937868278289 1.3493553085286178 -0.18341730530752345
v -1.315555101031891 1.2552474228497703 -0.152782029987186
v -1.2493070425809571 1.2353647624536537 0.13673726594593716
v -1.2426561870334982 1.2959300752692597 0.17188846525406123
v -1.2032381441378894 1.2167519456572566 0.10577112385830072
v -1.1897801873317977 1.2533941637408847 0.13203611203744747
v -1.1634415108769658 1.2173858631700547 0.07670478412105641
v -1.1233739751559157 1.2250714073855529 -7.095964585240814E-6
v -1.1629691182450506 1.2172134306989937 -0.07653972440698059
v -1.203310752475692 1.2168841865862245 -0.10578129789002086
v -1.1889721250915397 1.253340737585849 -0.1314327275410765
v -1.249352227475492 1.2355134566773782 -0.13667336631859184
v -1.2418863513545622 1.2956542653115655 -0.1708720383505735
v -1.4648171979316718 1.221587325225994 0.12280158909894387
v -1.4469724950076537 1.1611613672102497 0.13950659671639032
v -1.4901474297918251 1.2539791236811402 0.09522257362547029
v -1.781972541599871 0.8846458668208889 0.0882101294780941
v -1.8288086625339324 0.8691460035381179 0.05322414420513611
v -1.856807416214536 0.8571932655363788 1.64626687623723E-4
v -1.8287872054036443 0.8699221056714985 -0.05240771247179693
v -1.4940212751186475 1.2548699099911482 -0.0945734890054704
v -1.7828870491309348 0.8840571334260808 -0.09632252864493177
v -1.4675329386190346 1.224341983402072 -0.12330515358951558
v -1.7120625768282598 0.9060438654473002 -0.121886191123378
v -1.455690342201201 1.1595934183432675 -0.14028793047416882
v -1.5753206280002445 0.9919100729021633 0.12119757883871182
v -1.4380818821760992 1.0992910311493418 0.13152051083141209
v -1.4932583878985608 0.9988473698957279 0.1038717885130039
v -1.4235255798337958 1.0543855719410382 0.09764200341281226
v -1.440182806410779 1.0100453439666752 0.0589112383704955
v -1.4202398958563143 1.0226298981301125 0.054262550306857185
v -1.4114076774113045 1.0164010588828987 -0.0014660239965671824
v -1.43747157978525 1.0101439075222085 -0.05651711750524366
v -1.4244140178812952 1.01854474063334 -0.05458756516439059
v -1.4894255438127986 1.0010216338029803 -0.10473443969495902
v -1.4220668136996162 1.0556743760362728 -0.09673725347799522
v -1.5595024571692249 0.9767131465907065 -0.12764226557377878
v -1.436328715486435 1.1021578110320909 -0.13135275295330334
v -1.8204481600026226 0.8013080544942566 0.10349399386627518
v -1.9250352967565265 0.725940598041408 0.09314865434428418
v -1.8838351777856195 0.7105087130019956 0.1005841316172574
v -1.8118665560740073 0.7604272727666308 0.10707850948485187
v -1.8394673227096403 0.8348348366500513 0.07734487193903902
v -1.961926838129134 0.7435263336487267 0.07203737078449432
v -1.8494928102725134 0.8519104423131503 0.0480534555040012
v -1.9904560782166256 0.7609907107179962 0.03607015503035305
v -2.0038693112281214 0.7622006358286166 -0.001003712607885386
v -1.8490854261660494 0.8520968008675909 -0.047107819262943475
v -1.990710669703887 0.7607984889746549 -0.036961288087273635
v -1.8402372694849078 0.8354039875081679 -0.07738223425828751
v -1.9618360481576473 0.7432411406160961 -0.07206534266245758
v -1.8241028687910956 0.8030494590519868 -0.10542928536659972
v -1.9248025365760433 0.7268506800103623 -0.09253234835922663
v -1.8143310081620556 0.7593818225569201 -0.1085088399706565
v -1.8831112585553484 0.7106106389692783 -0.09975130481164225
v -1.8401378852520593 0.7019300902622708 0.09575363702051493
v -1.7966929482485976 0.7175144416414658 0.09342348293146915
v -1.8069903311612334 0.674101249760573 0.07193657553101833
v -1.7755726423003904 0.6936929074962876 0.07208318234461915
v -1.7639124391949217 0.6916707654794323 0.04752219994991432
v -1.7849353298113506 0.6763472826586897 -0.041013038672336785
v -1.8012576718168907 0.6786625581948397 -0.07209334297991842
v -1.7732915550979018 0.700737470168618 -0.07467508054000446
v -1.8402772059800545 0.691733422826136 -0.09087160130883748
v -1.7906653871564757 0.7297205581065274 -0.09745897741386883
v -2.0373248418138963 0.6861175955181239 0.08327409675049322
v -2.0588576616252086 0.6452733959101752 0.0914966180844918
v -2.015048793334478 0.7218137277549592 0.06773493433260391
v -2.0073856918310686 0.7526886375459874 0.0351323426076848
v -2.006422217282416 0.7532619157579202 -0.03674486840275011
v -2.0210941493828902 0.7220400264496134 -0.06728984559460102
v -2.0372352229449024 0.6866538234396653 -0.08598443554022314
v -2.0585768632709582 0.6441707097566572 -0.09013365244075658
v -2.0872225794310153 0.6068746296419467 0.08441533823871282
v -2.0966574807700145 0.5674308529771623 0.06382018198331986
v -2.1243799278271673 0.5508994211914029 0.04068523383750251
v -2.116058473634022 0.5524557529605607 -0.034833515780882646
v -2.1047449566027807 0.5649965818036227 -0.06184329719573188
v -2.0802880022452013 0.6007956358991015 -0.07938396113704557
v -1.9542988806505073 0.6375612533379951 0.08631803187332349
v -1.9686973912344923 0.6763039215529555 0.09623886580587235
v -1.9378815628214523 0.5934499812125709 0.026196667512546186
v -1.941408377236729 0.6018575207588759 -0.04608555439191396
v -1.956207108832484 0.6426413704380222 -0.08771440504851187
v -1.9684670183346589 0.6766255925096502 -0.09539709273709407
v -1.9830549109244089 0.7120663996836338 0.08456399633904202
v -1.993472357504708 0.736921929720012 0.06358979535142631
v -1.9931153409897036 0.7372551567987475 -0.06420105067356247
v -1.982519064959781 0.7128842194005166 -0.0843343147354384
v -1.3379420403875162 1.1732391200407981 0.13287984113732235
v -1.3846275026165467 1.2094907026950863 0.14336632976563898
v -1.2986833496714902 1.138240031691839 0.09963746569252845
v -1.2689153387648306 1.1110424265084624 0.04832977153162987
v -1.2410510152861574 1.116205447132147 -2.55525495555717E-4
v -1.2690835246124126 1.1110070345998868 -0.049048131746948304
v -1.2988052966869754 1.1382205361591335 -0.09973190790927923
v -1.3379704320478885 1.1734541812198394 -0.13257284709979
v -1.3853810640603568 1.2110498154291434 -0.14335070556862264
v -1.4304508428729399 1.2465167670931572 0.12974885173270465
v -1.4662071303259454 1.280340540316174 0.09985621510781532
v -1.4895656029136948 1.3033572630445196 0.06934268118117792
v -1.4894257042992893 1.3032846352825243 -0.06908206853175905
v -1.4650829911781857 1.280560031850536 -0.10006436275759262
v -1.4295959367610982 1.2461308877103958 -0.13048110642204083
v -1.1401753640419043 1.3590435801700989 0.24419418159105385
v -1.2376269884122533 1.3806885300261766 0.23037286481127184
v -1.0966268638049739 1.304555114729721 0.17162425474180526
v -1.0701772438787176 1.2798654365064641 0.09512490800033652
v -1.0116370155299077 1.2778236136321646 -6.835193324671801E-4
v -1.0663933354531665 1.279171321658477 -0.0952824058230224
v -1.0943470999423226 1.3014602121937648 -0.16844303807690267
v -1.137907980239778 1.3544788088827118 -0.24266573317272755
v -1.238498923298555 1.379722896501845 -0.22785004004816337
v -1.310799034239516 1.4209534379076412 0.2100523865405577
v -1.3784742379789208 1.4703938364616251 0.17331127882076894
v -1.3769501026659388 1.4686212972878485 -0.17407309857023534
v -1.310686719628169 1.4207292323422107 -0.209139673774629
v -0.7272139332040847 1.3145034474908877 0.39085091031406516
v -0.5429299110198758 1.162137935784033 0.2672008433761791
v -0.5403110221219101 1.2945091474851609 0.3962725927638011
v -0.41724478102828333 1.2004784865158586 0.2898406478807837
v -0.8924181246915858 1.3066231850407521 0.297072182217819
v -0.6480423817316414 1.1300075189691665 0.2037223719573146
v -0.930120596554662 1.2756259348930528 0.18397557192855227
v -0.7560966411140317 1.1018906059614622 6.101054179982117E-5
v -0.9205082814631217 1.2697933269160202 -0.18063968769627098
v -0.8903003233555475 1.3081434898063273 -0.30699046187154316
v -0.6486969597603086 1.1287492600995799 -0.20236021492754147
v -0.7205946105167783 1.3139344494362593 -0.39652113579875525
v -0.543722961697668 1.1619362298142986 -0.26696175980140935
v -0.5412569929874234 1.294473790187022 -0.39440408435678564
v -0.4176925407688811 1.201251325021502 -0.2896216522732663
v -0.29494173079218994 1.2438984079680901 0.2695584824549904
v -0.37800578782107075 1.3240941505712385 0.3861125709249335
v -0.19603764810694463 1.272118969748556 0.191524943943794
v -0.2291604219503011 1.328855767279991 0.29911807174438143
v -0.14360905253123465 1.2888724391235036 0.11337530592495813
v -0.1431055172688846 1.3219820291910633 0.16881256384536517
v -0.10279386931483593 1.328083540993247 -0.0014179645835120866
v -0.14388714565821908 1.288785134583236 -0.11353366031155615
v -0.1421116598074906 1.3225817357140255 -0.1688467073977342
v -0.19666732823316901 1.2720590416111426 -0.1918431733123899
v -0.22625655020613775 1.3293166206728004 -0.297678595988451
v -0.29542704720245455 1.2443548076758428 -0.2692420139939666
v -0.37597269269342287 1.3236457681441418 -0.3830389242211184
v -0.6915397780661783 0.989335108288636 0.13927812649119953
v -0.8243073155237335 0.8162706786393731 0.10456922678577725
v -0.7674695935691774 0.8158915649768048 0.11855661157131456
v -0.7206304997449213 1.0515428568164196 0.09538248754934707
v -0.8529144093642907 0.8317138336367775 0.0824188065853843
v -0.7375013518687686 1.0680916695646132 0.05563619725181672
v -0.8840794041435802 0.8342757058358454 -0.0025303439206529597
v -0.7366796682917098 1.0692933389772705 -0.0567749752018271
v -0.7213802802923651 1.0510912981900582 -0.0923466172018296
v -0.8518733051778073 0.8316708243827167 -0.08326335535690806
v -0.8215352220356096 0.8153764016793142 -0.10622931874353927
v -0.6906363805441023 0.9441582522294556 -0.1410247122000804
v -0.7640292304411939 0.8144288409367776 -0.11998220548907695
v -0.7114608215944572 0.8031914846041759 0.11060551066523495
v -0.6636087948815029 0.8820743009246814 0.1285689886912311
v -0.6691854070323994 0.792125844324502 0.08168077627188901
v -0.6475300693053047 0.8366388399539912 0.10025470983374293
v -0.6372687455657714 0.7939868208685972 0.046618419144802574
v -0.6319150077404831 0.8021748092358696 0.049041229459055855
v -0.623600793270717 0.7907127263728629 2.028028381953517E-6
v -0.6373577159809155 0.7940501148316945 -0.04655528742604232
v -0.6319764922002781 0.8022581427140862 -0.04895922820036142
v -0.6691793826850143 0.7922208007071024 -0.0814044062147703
v -0.6466288939788863 0.8366868369342886 -0.10046528934626561
v -0.7111646768404831 0.8029019006208721 -0.11086064352278197
v -0.6629544149531883 0.8830418776173675 -0.13285427225504626
v -0.8260949362343356 0.762481864174799 0.10831283250929544
v -0.8053771181104391 0.5100467523293274 0.11021071552229411
v -0.7907938778879213 0.7280727995929709 0.11588689648270238
v -0.7723242443199186 0.5510772082350127 0.1139232189418133
v -0.8653491941230447 0.790734376906706 0.08077192350842727
v -0.8460588020162724 0.46586453094071306 0.08108581217652627
v -0.8774748873898295 0.823333737456677 0.04844605139071191
v -0.8668436151683415 0.47366840148843686 0.03958407946491676
v -0.8811404203177765 0.8149925333786752 -0.04346740731070197
v -0.8598220867658556 0.45073390890739895 -0.038760590541221634
v -0.8656991847403593 0.7919705805713261 -0.08116658721480628
v -0.8420725140772736 0.471749876247736 -0.08469973466191086
v -0.8260263794346083 0.7633082785175447 -0.1086935507154022
v -0.8085366838358501 0.5116583589572526 -0.10955371970668469
v -0.7908177822348263 0.7279870411256699 -0.11563535661468001
v -0.7726380334079459 0.5512406279511424 -0.11371260043425267
v -0.740909968558146 0.5873789455869787 0.09965740743833597
v -0.755469939414872 0.6903786541347509 0.10686706989622824
v -0.7214962734384663 0.6101285605059724 0.07693125809827547
v -0.7259180767480691 0.6585607703406136 0.08283611637426755
v -0.7023974970912025 0.6233934533812567 0.04283975474145142
v -0.7042583333224566 0.6385565188002926 0.04330701085297384
v -0.7023972546610965 0.6233931282665085 -0.042854986668293224
v -0.7042570823254437 0.6385513921947021 -0.04332140494794695
v -0.7214861807325821 0.6101232596939236 -0.07694745582858731
v -0.7259498747459681 0.6585785994394381 -0.08279061007936056
v -0.7408592170281861 0.5873239544274759 -0.09965992866904509
v -0.7554987069514746 0.6903128735088374 -0.10657338200741094
v -0.3870580987179489 1.1405019720125877 0.22639685889697117
v -0.49353426362143843 1.1243351666326673 0.2369777018780574
v -0.3025754599444672 1.151924037011567 0.17415996398992875
v -0.2445684054048393 1.1594057477809459 0.09484955147958002
v -0.19669645077481307 1.192410726478563 -1.388230667513632E-4
v -0.24476568898035206 1.1594758943990033 -0.09484770374146266
v -0.3028380941458696 1.1522323302622894 -0.1740976218658894
v -0.3871730955430478 1.1404919514767553 -0.22659744677570734
v -0.491620385602619 1.1205242990416928 -0.2375337851064813
v -0.584966619957626 1.1154106899278124 0.215647342174532
v -0.6577390414221167 1.094836369232445 0.16593386348983558
v -0.7224967545728449 1.0980505301892787 0.09456168409300392
v -0.7226043443457623 1.0980346996933026 -0.09309819527417289
v -0.6546356938919643 1.0936528726445096 -0.1679245031709198
v -0.5820279653011983 1.1116515076147455 -0.21687131841005863
v -0.2423593046649265 1.9447335833231882 0.7389887776482662
v -0.4632415990131516 2.22416225539313 0.8004524860672442
v -0.12476351203902517 1.6618971117978325 0.5810763278733104
v 0.013273134350619113 1.4939865178602445 0.37457673846779294
v 0.06394828603699942 1.3985067239037385 -6.44227537927115E-4
v -0.10783608051743727 1.3972361034688496 -0.25821976683184117
v 0.016963155074275125 1.4890103163371742 -0.3680736189199852
v -0.23900925585302246 1.5513081661199541 -0.5243402565183913
v -0.11662922272178909 1.659284282861471 -0.5802069603019342
v -0.3537177710660548 1.876109542801746 -0.7406893181652953
v -0.23373568882249438 1.9397111493532269 -0.741995057291687
v -0.40509002484730555 2.2384666724687268 -0.7925710948286762
v -0.638732594561362 2.5038943243279044 0.7428964336682635
v -0.7372387358397849 2.834549558971595 0.5593925805880018
v -0.8628161992973941 3.057805892469543 -0.003033584495501939
v 0.11388661867400295 2.040918600466517 0.7382211539127188
v 0.5005745394588489 1.9661876528005213 0.7321403586590024
v 0.4288314356017845 2.3338978120890723 0.7956804380944806
v 0.1400374550202151 2.414857538836701 0.7829282250830711
v 0.0843583043575537 1.6985806639402552 0.5770669273002448
v 0.6012066078550325 1.3604129043206479 0.041132656910191356
v 0.08381981806278874 1.6979884733015835 -0.5771470488622594
v 0.11292327716993662 2.0396501939569185 -0.7380157670866982
v 0.4994266065539832 1.9656466754477933 -0.7322224056527494
v 0.139264451493607 2.415268216248385 -0.783414028910503
v 0.42883038562856507 2.333627035213102 -0.7955903136010111
v 0.36807994467965194 2.6961515683845394 0.7380690536592127
v 0.14908170681368146 2.7327576917174987 0.7170073230955403
v 0.24602160325099853 3.008664954510834 0.5380615593797413
v 0.2372649951099998 3.205945075790497 0.24470160321580584
v 0.24697185622102003 3.253716004814787 -0.0012063357694823743
v 0.2372388206920545 3.2051254113544494 -0.24970135994864048
v 0.24523427076352208 3.0078861675754203 -0.5413281178853745
v 0.3683104479329488 2.69616891636976 -0.7383100248882761
v 0.14930558864130494 2.7315746963061285 -0.7180477701249576
v 0.9854712957805607 1.4146139974149166 0.5052711382953017
v 1.1641039572007847 1.2274540175389923 0.44924036057312333
v 1.2283591267892762 1.4400665280612863 0.5578899879661244
v 1.367330638359822 1.2896969458372298 0.4805036457169126
v 0.7746836637297657 1.3964070124817203 0.36678964107713147
v 0.9809952302261 1.1771643217285979 0.3435433656358939
v 0.6902072335567889 1.3652836384254532 0.2167204466822573
v 0.819829575999851 1.154984459998031 -0.02407969544940588
v 0.6332928166183629 1.3675481711686088 -0.23697407107563437
v 0.825685248267741 1.390851392579764 -0.3961286960858454
v 0.9715626414871353 1.1749288977029098 -0.33709315704479964
v 1.0356334070297648 1.4261459794521305 -0.5156540702101999
v 1.1523247764394693 1.2263278057863152 -0.4480186374497031
v 1.2570046504504926 1.4415550424857961 -0.5605397815011783
v 1.353543531721351 1.2890473668354157 -0.4847225198685704
v 1.5642974563403942 1.3537619472244518 0.4349194152460471
v 1.4568313871822933 1.462627724097918 0.5296899425885118
v 1.712979349672465 1.3925096986697596 0.33868129885747905
v 1.6589977007257741 1.4870067501559656 0.43451529578615583
v 1.7936512401302185 1.4564242644666587 0.2652359225978229
v 1.8669577939204998 1.4891547656867026 -0.0015748266749969725
v 1.8013464639537742 1.4467828427850145 -0.2434698943001694
v 1.7089218440867313 1.4025738133972543 -0.34742027893751254
v 1.692117724335699 1.477953766100277 -0.39925120660915203
v 1.556044124397717 1.354379838791563 -0.4402756909207483
v 1.4846491304358953 1.4664769268852405 -0.529550232145488
v 1.1405557788739145 1.106952227963926 0.3674570074493931
v 1.3827075870430834 0.8444781422600137 0.24890668206891614
v 1.3301450117856957 1.1158501127814753 0.40175522748406123
v 1.4913286666548378 0.918371781173009 0.2821009498599855
v 1.0040279526325053 1.0916536694604657 0.2843029883837905
v 1.303965105488838 0.7770504120323408 0.17713324115777898
v 0.9072185767475553 1.1231582891838947 0.18530557810410034
v 1.26873461100225 0.7338480028930098 0.09981530028212574
v 0.8918092312122256 1.1198799652872764 -0.18312052634601075
v 1.265963657019838 0.7274224719513323 -0.10029185624383789
v 0.9974399543855553 1.0916178388747986 -0.2813738473426468
v 1.3032822045708516 0.7799454378156656 -0.1777198909189186
v 1.1361503630832166 1.1060967752289494 -0.36575697356335946
v 1.3833785353826467 0.8450136822970579 -0.24821895103979133
v 1.3253294408694987 1.1140904218391074 -0.40115776569536576
v 1.4915525003577574 0.9184110636853324 -0.28187664265300527
v 1.6147866157654756 0.9900223885873012 0.26167606970406476
v 1.519799776045542 1.1184230493937448 0.36649756736572164
v 1.717698984220027 1.0342082948194826 0.18734226649338745
v 1.6719263352359712 1.1180416858522149 0.27565650107879597
v 1.7808553140737242 1.080874124077934 0.11734526526759043
v 1.7778048087585625 1.1232282588249929 0.1490654149234926
v 1.8021861021475067 1.1445568576000644 -0.003367603762630525
v 1.782216485938636 1.0767454808429149 -0.11171011850124618
v 1.7840853116238602 1.124860448992657 -0.14576121471885087
v 1.7201743182517897 1.0394670079340584 -0.18978534444961948
v 1.671318390519984 1.1181751723301245 -0.2775529099939275
v 1.6150790166457925 0.9915902395184824 -0.26264634714315305
v 1.5161254095005519 1.1172462254779498 -0.36716600082605455
v 1.3638791975553268 0.6858832154627114 0.14052746689433482
v 1.4070706362234804 0.5758148601350104 0.09754673451431664
v 1.425518622957179 0.6644733768736919 0.14506385148590628
v 1.4487875772096266 0.5854058468034902 0.11020867702977934
v 1.3017896459955305 0.6995581195011896 0.0988203406514132
v 1.3765288516290952 0.5705358831525316 0.07442604848579897
v 1.3482911024199185 0.5536619831467484 -0.003438620424269643
v 1.263562110824034 0.7085927702239558 -0.047090580423831324
v 1.294455631208205 0.7014521647111203 -0.10111032604467927
v 1.3767434966803471 0.5710115422821129 -0.07426370732539031
v 1.3650458589510353 0.6854152231235333 -0.13980464741064474
v 1.4074765643946066 0.5759864588933206 -0.09706199952333219
v 1.4256827263621679 0.6644568717197115 -0.14454375768976108
v 1.4488408256396739 0.5853483293722825 -0.11011045738571092
v 1.4935264355360127 0.5938899340995367 0.10098658149404426
v 1.4783469068143313 0.6442024218043352 0.1273254110526746
v 1.528026429532332 0.59484832502581 0.08078335566481103
v 1.5237419096440274 0.6280970047667818 0.09534867844130324
v 1.5588884251271613 0.617417343701638 0.05428187969771909
v 1.548783148686842 0.6109357360043599 -0.06114335323821473
v 1.5264113842976048 0.5945691797405708 -0.0795529393959364
v 1.523434427028631 0.6317441021595184 -0.09501485584481245
v 1.4930559368383347 0.5939228452203574 -0.10075008289507435
v 1.4787471564691215 0.6454297571175497 -0.12718933961791257
v 1.4139110980683596 0.5137978155143309 0.09190657554312542
v 1.3895557346920788 0.4110645505527394 0.09021479362013435
v 1.4486063879555182 0.4855145988680397 0.09962314840546858
v 1.4360226951610344 0.4096195362413546 0.10013763151262632
v 1.3822495348278854 0.5368869427222521 0.07056740184070284
v 1.3552215418606408 0.4134073542339416 0.06954647694223387
v 1.3555411105696833 0.5519932681042623 0.03907429014120361
v 1.3113585528147682 0.4108173596379075 9.794401454074448E-4
v 1.3556587435320222 0.5528729308121171 -0.04488687771953473
v 1.3824498051331542 0.5363646017981154 -0.07022373792208396
v 1.3553704412547176 0.41344709460713447 -0.06937391298736378
v 1.4140593312517498 0.5136766322962283 -0.0915905983226392
v 1.3895647578088406 0.41113468278134707 -0.09018851505876065
v 1.4485966358484317 0.48549728490287664 -0.09976415969323073
v 1.4361233660384383 0.40955641916144925 -0.10020261273217915
v 1.4827017016073185 0.40915640312652407 0.09192050817860799
v 1.4858566713158228 0.4594025546966125 0.09307938688308309
v 1.5212575382765199 0.4093593345010506 0.07063084220802765
v 1.5253300978274662 0.4377278169694094 0.07132221067527751
v 1.5303037593434483 0.4040098383068854 0.042626836843984064
v 1.533611707841043 0.41986174571858353 -0.04130878508603482
v 1.5192430414989297 0.40516846055856537 -0.0703304232112167
v 1.5236540858976213 0.4370428810985518 -0.07088829498851829
v 1.4827686418109074 0.4069981823674822 -0.09173068300205632
v 1.4853811949070774 0.4583407752303093 -0.09336070366593455
v 1.375093655514686 0.3533157342093729 0.09854455753864859
v 1.2842818316825142 0.2615593268188654 0.09749955122950153
v 1.3355759996677996 0.2583262289672104 0.10687220793857097
v 1.4068225430960053 0.3209786728982641 0.10519988491549295
v 1.3452081926013997 0.3802593773345373 0.0751554106901702
v 1.2416754905322849 0.2644807542646425 0.07517184153409706
v 1.3276564216806028 0.4034052406927224 0.04784560255002546
v 1.2132645253333922 0.2684165772043152 0.04218727662320638
v 1.2052752338850683 0.2705507485378233 2.210477931689742E-4
v 1.3277384852652647 0.40336185277266834 -0.04758850074332642
v 1.2132677547780695 0.2684081944450918 -0.04201086938877232
v 1.3452520763891753 0.38018802827435483 -0.07508353810024486
v 1.2416680017781703 0.26446483251454606 -0.07512778244602317
v 1.3750575923496378 0.3533427034766941 -0.0985064978422086
v 1.2842865194695174 0.26153951233739076 -0.09749482961128261
v 1.4068591978587022 0.3209922490465928 -0.1053231261520541
v 1.335557015854056 0.25837464327391246 -0.10691933031525853
v 1.387657647487576 0.2509411060051481 0.10080188514111235
v 1.4399121578790666 0.2887567599659024 0.09394281970720085
v 1.4334514092031079 0.24098822349005203 0.07739923778436204
v 1.4665326616877772 0.2691577731073536 0.06989409121474853
v 1.4614238899758705 0.24749175434548126 0.04631313653340333
v 1.4597968232128355 0.24900570265483835 -0.040921283219298644
v 1.4361987076375875 0.24058205132166702 -0.07825819248153502
v 1.4675539339447197 0.26653351940554243 -0.07036202124255261
v 1.3876765352130171 0.25113205442946235 -0.10150024540776512
v 1.4409342390632571 0.28787494327165414 -0.09472193371928701
v 1.1885896070641304 0.20108388485623357 0.0896305585652932
v 1.0883126503106864 0.15447735455469008 0.09086740795125321
v 1.1838030194529372 0.1565236256000127 0.09987323496695157
v 1.111457371982302 0.11911564398509443 0.09825496597891015
v 1.1927345296456653 0.2380909201441356 0.06466224520486684
v 1.0683731865676696 0.1819599073480241 0.06677149556279723
v 1.2000962218673559 0.2610706327950811 0.03863419626817089
v 1.0513295132370746 0.19618974897969327 0.03843349188401588
v 1.0517742659996105 0.20452416315733768 -2.3012601271163273E-4
v 1.2001392347246562 0.2611006232285497 -0.03840675353524365
v 1.0518444074025284 0.1965391238011413 -0.0365632493628576
v 1.1927576039701584 0.2380794745457525 -0.06447100749810698
v 1.0683351543420734 0.18147536325170205 -0.06652682181367943
v 1.1887125990277134 0.2010269279531245 -0.0896182355587485
v 1.0884022126167656 0.15400562720433708 -0.09120312675944835
v 1.1837585343785555 0.1563434787458722 -0.10002971146588543
v 1.1115060062766127 0.11928733528539032 -0.09786658962587974
v 1.1333572688007718 0.08441365081828678 0.08822700307848225
v 1.181045032391269 0.1120561686090435 0.09420014631327799
v 1.150534560328654 0.058625566187412645 0.06573707831141376
v 1.181398241576969 0.07004080022346167 0.07011957389834472
v 1.1609554914391491 0.06603942089298143 0.04108836345106771
v 1.1684911626558776 0.06342978971053076 -0.045833300623727605
v 1.1471515715937328 0.06038427462519641 -0.06550656994855183
v 1.1805202885046053 0.0725886029023822 -0.0702171429552733
v 1.13230734672455 0.0848503326930051 -0.08717090847681279
v 1.1802430260791315 0.11194319972825247 -0.09389635885043811
v 0.9695749053293106 0.1587772992959605 0.09408692604435638
v 0.9167286082568874 0.14584990728864589 0.09751131397905803
v 1.0053744822453632 0.17930532317688935 0.06732510418111058
v 1.035882009866754 0.1930304159655785 0.03947960258821371
v 1.0351946095829256 0.19294594649821525 -0.03921097803031147
v 1.0116838413225102 0.17752025552629852 -0.07225014444951296
v 0.9661239878710061 0.1660638257740305 -0.08820803348084079
v 0.9170422868578805 0.14600633955536732 -0.09542333075840735
v 0.8658687864473545 0.12227151684343986 0.08908852710148633
v 0.8218808773155292 0.09913150877484908 0.06882475921757446
v 0.7889713485539195 0.08164446070641894 0.03973664290258411
v 0.7900260736824013 0.07713776087477277 -0.03858684909023598
v 0.8209355096360553 0.09752757799894862 -0.06842168003002923
v 0.8657621493947656 0.12064362085098383 -0.08758681314153323
v 1.9594919800519668 1.6988076622864419 0.28897377004874747
v 2.0253209509440717 1.7271958786067025 0.24723047219639763
v 2.011742089085128 1.831200401876043 0.30548119605512786
v 2.063759256102688 1.8290197267788062 0.25597461478442574
v 1.916304960808386 1.5825011107068032 0.20548565246608647
v 2.0133694942054534 1.6230349141127993 0.18017125902696884
v 1.9036041060191755 1.5349661353741393 0.11568693042983685
v 1.99723739280477 1.5755242354650574 0.09385027615869439
v 1.9896858826471309 1.5304862143874085 2.0028441774931356E-4
v 1.9034850216707024 1.5349322656344753 -0.11556499942138862
v 1.9973332439398581 1.5771028070861404 -0.0944465286748875
v 1.917073853242086 1.5837017937439957 -0.20585357186992254
v 2.013258035506672 1.6251430131975362 -0.18134956088206947
v 1.9604414285474738 1.6998719766103212 -0.28882267198215156
v 2.024908051447856 1.7273121037006063 -0.2467335781604712
v 2.011396105250058 1.8313017434841263 -0.3049820819690777
v 2.062840030314859 1.8289311008653757 -0.25473297534278316
v 2.093172182811449 1.9324800967041287 0.24316620279491702
v 2.0614130413290304 1.9660406561498156 0.27748815781058683
v 2.095162050772158 2.021384871618535 0.209657262670881
v 2.091743944064036 2.165998823267298 -0.033528210235446367
v 2.092758550988082 2.010093526972553 -0.21932495146339026
v 2.0936505328282093 1.9295112671088341 -0.23938602419094404
v 2.0602193302535525 1.9633661063936931 -0.27594569244845507
v 2.0956586985520222 1.6049210855279088 0.16575660135155354
v 2.0534189169154082 1.5696311531639604 0.1198929656872936
v 2.269547811189693 1.1717835179636364 0.1065811551479482
v 2.0199141218011443 1.556823614898751 0.07304122218903168
v 2.261011456370187 1.114724704881279 0.06007646874602195
v 2.2736599859385844 1.0923013095895506 1.9057278429414942E-4
v 2.019789618566913 1.5574402723828435 -0.0729764206299463
v 2.2596788223932736 1.116172432567778 -0.061067675534343516
v 2.048135218079266 1.568135386008255 -0.12016136137851839
v 2.2733460137936397 1.1730583834234116 -0.11249703826250029
v 2.100355058728136 1.5910809934083192 -0.1671275324527951
v 2.280489784131365 1.2502790964284183 -0.13819841158996027
v 2.2447504126809057 1.4224380581357063 0.13928832079411282
v 2.214622940348852 1.581627576339117 0.15063063188392703
v 2.279304934169224 1.497230859285976 0.11952497474131461
v 2.255647665490641 1.5892786132403107 0.11487356925371914
v 2.2931664617638132 1.558270063030199 0.06438948803376142
v 2.287197720450088 1.5784998146821856 0.062082241489385306
v 2.2915380604141724 1.5836686640051478 5.538689592617402E-4
v 2.2957328790842513 1.565089406012523 -0.061381931481848805
v 2.2942224363433845 1.5729398269944739 -0.05967759883813853
v 2.2809485848106674 1.4985696537952593 -0.11697452844271021
v 2.2558614014118317 1.587313730793685 -0.11374386270520945
v 2.259429451697287 1.4344568792983063 -0.14287392777592745
v 2.2115483050034848 1.5818632140344593 -0.15084209038417354
v 2.3473349421806824 1.100206018253429 0.125369219559202
v 2.3081807372330654 1.0893037683279232 0.09933320868338845
v 2.589480153361135 0.706188005936388 0.08494444091668807
v 2.2663902226598087 1.103364696357703 0.057671633027247426
v 2.5990221649310428 0.6603643720052068 0.043143492489481246
v 2.614063613649091 0.6446623773886403 -2.7203156538897213E-4
v 2.265286650744875 1.104619922647768 -0.05864406604311125
v 2.600130476000689 0.6626099910476027 -0.043760524606770365
v 2.308993550742766 1.0886306880939813 -0.09430532085513527
v 2.589413110850132 0.7065155737299756 -0.08506039445934026
v 2.3773338161122557 1.08227326179456 -0.1227543625621552
v 2.5074894200528046 0.9085585554383139 0.10941026427000874
v 2.432285704474064 1.0694322894916395 0.10679955932366017
v 2.506812062333595 0.9726831141918086 0.08722455784306835
v 2.494877692621699 1.0260308179196396 0.05245914795632371
v 2.4941751087269166 1.0285328144697676 0.05150365643794985
v 2.490002926845171 1.0472338779158625 -1.0207027362108508E-4
v 2.495682741886959 1.0244080069316626 -0.05400131808192094
v 2.4927460857496153 1.0316387164834402 -0.05221707525251439
v 2.5086992100134293 0.980492684127903 -0.083859822892281
v 2.4576639407949394 1.0526961762383158 -0.09529338809253902
v 2.5132602121925736 0.912612643479141 -0.1063527343514869
v 2.6303078175499195 0.6802479944233144 0.10261302592561933
v 2.6534188837757706 0.6847561093020527 0.10393698731322255
v 2.6224940317132877 0.6588482826951835 0.0765243919506017
v 2.8676767660527545 0.42233659861393996 0.07506653132834755
v 2.6044285903032054 0.6534039392579888 0.042022290935231285
v 2.887977554188804 0.3907807684246156 0.054526318730052904
v 2.9051989883321516 0.37220131339804335 3.504148674167463E-4
v 2.609894822953626 0.6504108081742361 -0.04205944869732666
v 2.8867097688849723 0.3857926807996969 -0.05685222600611328
v 2.6156376446663385 0.6620600790358716 -0.07408779429170917
v 2.874923964983756 0.4152452048124004 -0.07692911958171522
v 2.6335847955877907 0.6747775061220659 -0.10258757284923714
v 2.6521961452638454 0.6838515501275577 -0.1039617655446445
v 2.7901404394258424 0.5472407628081389 -0.1068155383744756
v 2.729598348998498 0.6010640911183 0.10038044904001185
v 2.7096105569107576 0.6599907903766477 0.08599481891588961
v 2.6694370865203827 0.7139740229463153 0.0713139979851534
v 2.690370394458935 0.7050760575022282 0.04354729671201779
v 2.6811925017624674 0.7170198645954757 0.04146262706245515
v 2.6795542702408675 0.7255278161510452 2.4134418802816194E-5
v 2.689312569718032 0.7049581172794742 -0.04385627368725741
v 2.6809138573499247 0.7165509579381452 -0.041685225182852316
v 2.7079090205040615 0.6611580114591633 -0.08500772400785853
v 2.6679322343908773 0.7138686122162459 -0.07210629738126532
v 2.9303696249567723 0.378903991903016 0.07854833271877687
v 3.326181614386863 0.06520211872839998 0.07192448318422114
v 2.9057422674492543 0.3737063810630499 0.049339513910043445
v 3.3548687544482068 0.029699777946311182 0.046131003615447766
v 3.3663396391891114 0.019453578503520752 4.077757503622141E-4
v 2.883510137491891 0.3881691995732937 -0.05665520408446765
v 3.3547632805205514 0.029701622402395787 -0.04573555233540788
v 3.326398017289806 0.06565206643252998 -0.07473387601795228
v 2.99802448863857 0.344744799279903 -0.09531834092736416
v 3.025181834167553 0.35200660895250446 0.08410042592566731
v 3.1138857798492823 0.28342152018646627 0.07665735328617078
v 3.0994949086221313 0.3078654919505182 0.059812581612042906
v 3.1024447107209117 0.3055286081307255 0.05960842621225612
v 3.0850974357483723 0.3261306389298341 -6.606617566212287E-4
v 3.1009874435126195 0.3075311793822914 -0.056151249153523854
v 3.0969860466023684 0.3117319780168604 -0.05440794339573444
v 3.0548564483805984 0.33106655484316727 -0.08789959530953474
v 3.1719284990541707 0.23317882614541863 -0.08533585410879704
v 3.3719084777923043 0.052490104849475555 0.07790794129820507
v 3.3864597427280336 0.06995132081795909 0.07254343634350287
v 3.3716182081000987 0.027621366922299415 0.05847055405121248
v 3.3768614706882634 0.016684866615428843 0.03782767482975641
v 3.376810924068755 0.016683370092001187 -0.036933834666331065
v 3.3715409179495723 0.02750842471909776 -0.05811141013349279
v 3.3716752289969016 0.05221357067173607 -0.07853859129071535
v 3.386016960406019 0.06988962572527879 -0.0728726514200054
v 3.388939108224927 0.09821416028729427 0.04700264792910792
v 3.3862826540814357 0.11097035155605642 0.02771042624173327
v 3.3870006024582553 0.11122827409577137 -0.027630354047293894
v 3.387640716683211 0.09903398276892526 -0.04727528491142217
v 1.8586558717806807 2.2654167676808923 0.48915998465634153
v 1.8922319870608413 2.0403057532714386 0.48739923360180726
v 1.900439774548282 2.496148883198402 0.363795736743958
v 1.9464710230688724 2.546839302895294 0.21534597880261025
v 1.8946477852346506 2.6650497988251036 0.0052440505015170485
v 1.9342155751668826 2.5769999507222403 -0.2158767207675824
v 1.9159735284480628 2.470772547849937 -0.3415259304089437
v 1.8586151395434884 2.266590109548811 -0.48893781058533664
v 1.8935294682736485 2.038905939486299 -0.48693772805189056
v 1.8341961839057683 1.8281326187177283 0.48341545124230023
v 1.8648185771404564 1.6354113983690157 0.33886852116135857
v 1.866701197794322 1.5357997535530548 0.20276383859629635
v 1.8675894599019918 1.5384373473174786 -0.20359740651211458
v 1.8671411407273852 1.634509325357115 -0.3367870261053842
v 1.838837538310434 1.8275542771935454 -0.47982986686961254
v 1.5342675394520424 2.2413256800174963 0.7077834210570723
v 1.4549175925997688 2.4116443792634925 0.7012440036942121
v 1.301239367389192 2.0354457292432073 0.7526311244882908
v 1.720300015395311 2.4819296966255124 0.544201579392027
v 1.634498958876373 2.6353435566474817 0.5050273980748892
v 1.85966748459015 2.625603071679869 0.3085930287100521
v 1.7504727038711472 2.7623367632296283 0.23516018507402778
v 1.7887455198851108 2.7879361477144164 0.00282281073445573
v 1.855394021507596 2.6226385393404668 -0.31501055429162284
v 1.746316636660213 2.761975782215325 -0.23757661035604558
v 1.7213513461418237 2.4834993052267524 -0.545476935895037
v 1.637348112849938 2.633992511427277 -0.5077355698696944
v 1.5379957879829007 2.2417368045596158 -0.7082933880438949
v 1.458089711519673 2.4119994037845696 -0.7023733556265499
v 1.2819861093046903 2.039015092682687 -0.7527792195257934
v 1.0078164264060328 1.7907133250169012 0.6913488448138884
v 0.962584872779092 1.7937813166731953 -0.675717598354387
v 1.178270945263048 2.4350218698966106 0.7471892654538745
v 1.0173802507366636 2.125060873672687 0.7744157241024484
v 1.3183916312487878 2.7079832119884997 0.6011958946792391
v 1.4264580483581832 2.9022981825061427 0.3590894908354634
v 1.4654217498211861 2.986401889129089 -4.5111725611339605E-5
v 1.4264187504095869 2.9023397399196886 -0.35915053029155963
v 1.3195366194362899 2.7080621123486734 -0.6015820895902131
v 1.183123291468936 2.435481875539532 -0.7477434758786561
v 1.0233339551200833 2.1239353000170977 -0.7746457510540411
v 0.8818093137956607 1.8782017228259795 0.7209904832942317
v 0.7557072488213794 1.6138801557534044 0.5494207442035622
v 0.7317101176700489 1.6188793357232898 -0.5389221337248731
v 0.8905713609664384 1.8754720790449975 -0.7171241478723529
v 0.9064383825442991 2.6375738947334226 0.7266455290357803
v 0.8374497311406044 2.2965143854045396 0.7879518105558108
v 0.9742891906562009 2.9289424199942973 0.5541969372407077
v 1.0287042316610928 3.123785764536585 0.29919692198338027
v 0.9641339557930655 3.214996747692642 1.2302038309806312E-4
v 1.0286981332456677 3.123793560629582 -0.2990102010085372
v 0.9742179152272765 2.9289633961469534 -0.5540415927991027
v 0.9067109046700625 2.6380531518353947 -0.7266078154589055
v 0.8387412563888575 2.296746531131165 -0.7888332031641118
v 0.7524364105066358 1.9289709566341098 0.725323028837361
v 0.7566740865598924 1.9311077641990024 -0.7256976429595757
v 0.6478868778413455 2.6888393328384352 0.7344257955272965
v 0.64173255334961 2.3264609508252843 0.7955665303390689
v 0.6629790771018095 2.996242210269194 0.5565459501506221
v 0.6746909050829085 3.1894338230259978 0.30361268343451336
v 0.5913336757661634 3.2574949456659077 -5.280859674458373E-5
v 0.6748944178700738 3.189275592279957 -0.30395062526898425
v 0.662988908584396 2.996046719227037 -0.5568275283829641
v 0.6478816017635012 2.688836182996839 -0.734317995407553
v 0.6415611912546076 2.326396772103955 -0.7957552101667992
v 0.6397668352570962 1.9738621402064913 0.7432381904637781
v 0.5892957603946752 1.6686247245413142 0.5615521373689104
v 0.6053450594502285 1.460908882171422 0.31185512656623254
v 0.5881811297463369 1.6620662807056832 -0.5566857336315353
v 0.6391800252950569 1.97472919681868 -0.7440926232457858
v -0.20696020529828527 2.5588060968509856 0.748375330376982
v -0.1238448690287792 2.2097082726035726 0.7744372678523075
v -0.2608018116245782 2.8762980777380323 0.5969363622984459
v -0.29718085745813383 3.085052468838508 0.3618105056256575
v -0.32209364458107326 3.170899093400065 -0.0055993798789871155
v -0.3074245460872161 3.087820435090776 -0.36639369016374307
v -0.2689053383325857 2.885464550336813 -0.5909111826140636
v -0.2005363711720284 2.5527877801507985 -0.7499071352202731
v -0.128235426821717 2.2196330054476556 -0.7760987746778005
v -0.0652845140346811 1.9100895934356357 0.7008363517989253
v -0.06721180440553727 1.908104170021335 -0.7022858216845524
v -0.9061139977630419 2.569880850560553 0.6762913910150777
v -1.1121944248386089 2.3907828436510195 0.6731940999366547
v -0.9307540338636525 2.2385089793367885 0.7525019435730246
v -1.1234228654788874 2.053665759036748 0.6943157775246469
v -0.8963134055782197 2.825529304843245 0.518139508958284
v -1.1236218286483983 2.6916233837138535 0.5216398575201078
v -0.8395793302746958 2.9933374788954663 0.2680534292046546
v -1.1649125760560644 2.8259872127139705 0.30237564789413446
v -1.1092420811523869 2.9422488707033674 -0.008553713024796794
v -0.8681694866414825 3.013719088024517 -0.2308952728184841
v -0.8720524578969407 2.8346785949390925 -0.4981278561373513
v -0.9071035237742046 2.5197597514269536 -0.699271366815968
v -1.0950357979803247 2.45529981613028 -0.6641041770091813
v -0.9395261512641419 2.1670501668104794 -0.7517017872233044
v -1.1029952120106437 2.1063989279791078 -0.6989821171889574
v -1.0544328762097936 1.8029474258027283 0.6629654808982491
v -0.9531465858325134 1.8594319868294298 0.7094028150887708
v -0.9727222994367043 1.571338373062275 0.5291625348532913
v -1.0159803311561246 1.3343838106710222 0.2364621803773107
v -1.0117864743518727 1.564859556218014 -0.5399480279435623
v -1.0522685233521911 1.8057420799157584 -0.667025709724365
v -0.9596888444592291 1.8080024467550029 -0.6924040330616451
v -1.2557872119889626 2.4956400306627304 0.5561614617756476
v -1.291726531378298 2.2300657226639857 0.6146631071221494
v -1.2235922510885642 2.703916423519121 0.44169320527179284
v -1.1966825842667745 2.842466377831204 -0.2686695657421517
v -1.200978000108025 2.6780813029714543 -0.46887346170411004
v -1.256921235284414 2.4459306812572312 -0.5777572488642722
v -1.3168088755746996 2.1611197632523647 -0.6045649995617332
v -1.351664181281296 1.9469048047305895 0.5735927180943776
v -1.3642420064465024 1.7094170028602969 0.4530466659253202
v -1.441593234648952 1.5691019637025498 0.21436442301868489
v -1.3965990547313274 1.6896141435038015 -0.4438277315409873
v -1.3657453485165578 1.899842072843073 -0.5575163017914501
v -1.619600389070628 1.6325072647689198 -0.17718545745095474
v -1.7264003906482648 1.8453792772112156 -0.34303695997029415
v -2.1695174704716242 2.2218991252379015 0.30144690920215345
v -2.0997578190340556 2.3215045375561862 0.22474491619280462
v -2.253776625871052 2.315662448279164 0.2547267689729095
v -2.1016476951692935 2.310557880113025 -0.23290286113921568
v -2.175383046991908 2.1962581768011815 -0.3116012977065749
v -2.2543333318438674 2.31835042377505 -0.25252387405532944
v -2.0463846434864976 2.3806575709531814 0.12888954495192387
v -2.0494926939290155 2.381472982177605 -0.12789295654030264
v -2.252415384503033 2.2294199001333252 0.304446266475677
v -2.254037191421864 2.232093120029922 -0.30225108470053347
v -2.2531801404163003 2.1770112589701966 0.3221357814096172
v -2.2541885421747985 2.1746214722182584 -0.3214513609951759
v -2.2354801745286905 2.0875363482142775 0.33686521760188465
v -2.239477538875503 2.0698843195395367 -0.3365225707707224
v -2.4093351253221003 2.3220903849436234 0.2124711791904522
v -2.4667201435393857 2.3765965121929544 0.11316677506318615
v -2.3321135617272444 2.1919692196478877 0.30354328189201374
v -2.1685807143881557 1.7889655457357077 -0.22952707431670705
v -2.210541628798321 1.9171051690505876 -0.30842540931722245
v -1.2256587968775987 1.8820253049496816 0.6274665918338304
v -1.1586709487633555 1.7266439743389026 0.5801957482097198
v -1.3087096201359871 1.6854254354898397 -0.49620749481133375
v -1.2180168761458872 1.90929344239609 -0.6399129394218258
v -1.1547420435580598 1.7278942449911308 -0.5912047259487008
v -1.237950384343293 1.5493432686790714 0.38150692997929325
v -1.4260723456028817 1.5712027982387762 -0.24763188307547837
v -1.23053271331842 1.5417720663135033 -0.3905395722879579
v -1.143535433911838 1.8750085992432894 0.6613307380884796
v -1.1403763478109672 1.8816257939596024 -0.6658634500473841
v -0.7577073134986612 1.8196194306174285 0.737280141938411
v -0.5847022208039965 1.7140996425492716 0.6975040737887414
v -0.8837881194466769 1.5363937686262152 -0.5621341968519464
v -0.7622028759172966 1.851946541106944 -0.749888396890066
v -0.5807452247552518 1.7156342297652811 -0.7045011364333762
v -0.9945915288294132 1.3448692137569498 -0.2735705186149574
v -0.5855296238276954 1.4829308878484446 0.5453323702087534
v -0.588590748430587 1.4816718269035243 -0.5504865204268173
v -0.5799943217048105 1.8766569136294338 0.7745163894139612
v -0.5825146941948328 1.8829679626355424 -0.7783104213420753
v -0.6352277673511313 2.107956791775839 0.800397260245669
v -0.6383813414099914 2.153125819980149 -0.7954569765782155
v -0.2730002151234597 1.5368307222350108 0.5211353430440953
v -0.11902307345592972 1.392150960546298 0.25838751044375236
v -0.41431966089898764 1.8637174647739896 0.7419164084928431
v -0.6674073859460458 2.549977135831822 -0.7276133553767099
v 1.819436108145835 1.5232158417548447 -0.2770937332354989
v 1.7009171402299317 1.6302312174587066 -0.49280234058678857
v 1.521826964029457 1.841747648192918 -0.6710758762460055
v 1.8289340832710188 1.517927430186206 0.25917268866888005
v 1.7542337067844378 1.6386033033235188 0.452950949378314
v 1.5602810956430018 1.8516247135613084 0.6564018109706808
v 1.7290299190884435 2.071144261379692 0.617847902989781
v 1.7327184210922981 2.0718135913811433 -0.6167994143084554
v 1.5355158562846283 2.0454607821542097 0.7256509305226777
v 1.539577934884855 2.0484991923517546 -0.7250217646062282
v 1.417177244712731 2.035855204366829 0.7605648376461205
v 1.4209517379174728 2.035954212844864 -0.7595330522944658
f 1 2 3
f 4 5 2
f 5 3 2
f 6 7 4
f 7 5 4
f 8 9 6
f 9 7 6
f 10 11 9
f 10 9 8
f 12 13 11
f 12 11 10
f 14 15 13
f 14 13 12
f 15 14 16
f 1 3 17
f 5 18 3
f 18 17 3
f 7 19 5
f 19 18 5
f 9 20 7
f 20 19 7
f 11 21 20
f 11 20 9
f 13 22 21
f 13 21 11
f 15 23 22
f 15 22 13
f 23 15 16
f 1 17 24
f 18 25 24
f 18 24 17
f 19 25 18
f 22 27 21
f 23 28 22
f 28 27 22
f 28 23 16
f 29 30 31
f 32 33 30
f 33 31 30
f 34 33 32
f 37 38 36
f 39 40 38
f 39 38 37
f 40 39 41
f 29 31 42
f 33 43 42
f 33 42 31
f 34 43 33
f 38 45 36
f 40 46 38
f 46 45 38
f 46 40 41
f 47 48 49
f 55 56 53
f 56 54 53
f 56 55 57
f 47 49 58
f 50 59 49
f 59 58 49
f 56 61 60
f 56 60 54
f 61 56 57
f 62 63 64
f 65 66 64
f 65 64 63
f 71 72 69
f 72 70 69
f 72 71 73
f 62 64 74
f 66 75 64
f 75 74 64
f 72 78 77
f 72 77 70
f 78 72 73
f 79 80 81
f 86 85 87
f 79 81 88
f 89 88 81
f 84 93 92
f 86 94 93
f 86 93 84
f 94 86 87
f 95 96 97
f 98 97 96
f 103 104 101
f 104 102 101
f 104 103 105
f 95 97 106
f 107 106 97
f 102 111 110
f 104 112 111
f 104 111 102
f 112 104 105
f 117 118 116
f 119 120 117
f 120 118 117
f 121 122 119
f 122 120 119
f 116 126 115
f 126 125 115
f 118 127 116
f 127 126 116
f 120 127 118
f 128 129 130
f 129 131 130
f 132 133 128
f 133 129 128
f 134 135 132
f 135 133 132
f 136 117 134
f 117 135 134
f 137 117 136
f 141 142 140
f 141 140 139
f 143 144 131
f 144 130 131
f 142 141 147
f 142 147 146
f 148 149 150
f 148 150 151
f 152 153 149
f 152 149 148
f 154 153 152
f 157 158 156
f 159 160 157
f 160 158 157
f 161 162 159
f 162 160 159
f 163 164 151
f 163 151 150
f 165 166 164
f 165 164 163
f 172 173 170
f 173 171 170
f 162 161 172
f 161 173 172
f 174 175 176
f 175 177 176
f 178 179 174
f 179 175 174
f 155 181 180
f 182 181 155
f 185 186 184
f 185 184 183
f 187 188 186
f 187 186 185
f 189 190 177
f 190 176 177
f 191 192 189
f 192 190 189
f 193 192 191
f 196 197 195
f 198 199 197
f 198 197 196
f 188 187 199
f 188 199 198
f 200 2 201
f 2 1 201
f 202 4 200
f 4 2 200
f 203 6 202
f 6 4 202
f 181 8 203
f 8 6 203
f 204 10 8
f 204 8 181
f 205 12 10
f 205 10 204
f 206 14 12
f 206 12 205
f 207 16 14
f 207 14 206
f 24 208 1
f 208 201 1
f 25 209 24
f 209 208 24
f 210 209 25
f 27 212 211
f 28 213 212
f 28 212 27
f 16 207 213
f 16 213 28
f 208 189 177
f 208 177 201
f 209 191 189
f 209 189 208
f 210 191 209
f 212 196 211
f 213 198 212
f 198 196 212
f 207 188 213
f 188 198 213
f 175 200 201
f 175 201 177
f 179 202 200
f 179 200 175
f 186 206 184
f 206 205 184
f 188 207 186
f 207 206 186
f 190 163 176
f 163 150 176
f 192 165 190
f 165 163 190
f 194 168 193
f 195 168 194
f 199 172 170
f 199 170 197
f 187 162 172
f 187 172 199
f 149 174 150
f 174 176 150
f 153 178 149
f 178 174 149
f 180 178 153
f 158 183 182
f 160 185 183
f 160 183 158
f 162 187 185
f 162 185 160
f 164 214 215
f 164 215 151
f 166 216 214
f 166 214 164
f 167 217 216
f 167 216 166
f 168 218 217
f 168 217 167
f 169 219 168
f 219 218 168
f 171 220 169
f 220 219 169
f 173 221 171
f 221 220 171
f 161 222 173
f 222 221 173
f 223 148 151
f 223 151 215
f 224 152 148
f 224 148 223
f 226 159 225
f 159 157 225
f 222 161 226
f 161 159 226
f 227 229 228
f 233 234 232
f 233 232 218
f 235 236 234
f 235 234 233
f 237 238 236
f 237 236 235
f 239 240 238
f 239 238 237
f 241 242 229
f 242 228 229
f 243 242 241
f 246 247 248
f 247 249 248
f 250 251 246
f 251 247 246
f 232 253 252
f 254 253 232
f 257 258 256
f 257 256 255
f 259 260 258
f 259 258 257
f 261 262 249
f 262 248 249
f 263 264 261
f 264 262 261
f 265 264 263
f 267 268 266
f 269 270 268
f 269 268 267
f 260 259 270
f 260 270 269
f 271 30 272
f 30 29 272
f 273 32 271
f 32 30 271
f 253 35 274
f 275 35 253
f 277 39 37
f 277 37 276
f 278 41 39
f 278 39 277
f 42 279 29
f 279 272 29
f 45 282 281
f 46 282 45
f 279 261 272
f 261 249 272
f 263 261 279
f 278 260 269
f 247 271 249
f 271 272 249
f 251 273 247
f 273 271 247
f 274 273 251
f 256 276 275
f 258 277 276
f 258 276 256
f 260 278 277
f 260 277 258
f 262 241 229
f 262 229 248
f 264 241 262
f 270 245 268
f 259 240 270
f 240 245 270
f 227 246 248
f 227 248 229
f 230 250 246
f 230 246 227
f 231 252 250
f 231 250 230
f 232 252 231
f 234 254 232
f 236 255 234
f 255 254 234
f 238 257 236
f 257 255 236
f 240 259 238
f 259 257 238
f 286 287 284
f 286 284 283
f 288 289 287
f 288 287 286
f 244 145 289
f 244 289 288
f 291 292 290
f 294 295 293
f 299 300 298
f 301 302 299
f 302 300 299
f 295 294 301
f 294 302 301
f 144 303 304
f 144 304 130
f 141 309 147
f 309 308 147
f 310 128 130
f 310 130 304
f 309 141 311
f 141 139 311
f 312 313 314
f 313 315 314
f 316 317 312
f 317 313 312
f 306 319 318
f 320 319 306
f 323 324 322
f 323 322 321
f 325 326 324
f 325 324 323
f 327 328 315
f 328 314 315
f 329 330 327
f 330 328 327
f 331 330 329
f 334 335 333
f 336 337 335
f 336 335 334
f 326 325 337
f 326 337 336
f 319 343 342
f 344 343 319
f 347 348 345
f 348 346 345
f 350 351 339
f 352 353 351
f 352 351 350
f 354 355 353
f 354 353 352
f 356 355 354
f 357 358 356
f 359 360 357
f 360 358 357
f 361 362 359
f 362 360 359
f 349 362 361
f 363 364 365
f 363 365 366
f 367 368 364
f 367 364 363
f 369 370 368
f 369 368 367
f 343 371 370
f 343 370 369
f 372 373 343
f 373 371 343
f 374 375 372
f 375 373 372
f 376 377 374
f 377 375 374
f 378 379 376
f 379 377 376
f 380 381 366
f 380 366 365
f 382 383 381
f 382 381 380
f 388 389 386
f 389 387 386
f 379 378 388
f 378 389 388
f 390 48 391
f 48 47 391
f 371 51 393
f 394 51 371
f 396 55 53
f 396 53 395
f 397 57 55
f 397 55 396
f 58 398 47
f 398 391 47
f 59 399 58
f 399 398 58
f 400 399 59
f 60 402 401
f 61 403 402
f 61 402 60
f 57 397 403
f 57 403 61
f 398 404 391
f 404 405 391
f 400 406 399
f 402 407 401
f 397 409 408
f 397 408 403
f 410 390 405
f 390 391 405
f 411 392 410
f 392 390 410
f 393 392 411
f 412 395 394
f 413 396 395
f 413 395 412
f 409 397 396
f 409 396 413
f 404 380 365
f 404 365 405
f 409 379 408
f 379 388 408
f 364 410 405
f 364 405 365
f 368 411 410
f 368 410 364
f 370 411 368
f 375 412 373
f 377 413 375
f 413 412 375
f 379 409 377
f 409 413 377
f 383 352 350
f 383 350 381
f 384 354 352
f 384 352 383
f 387 359 385
f 359 357 385
f 389 361 387
f 361 359 387
f 341 367 363
f 342 369 367
f 342 367 341
f 343 369 342
f 344 372 343
f 346 374 344
f 374 372 344
f 348 376 346
f 376 374 346
f 378 376 348
f 351 414 415
f 351 415 339
f 353 416 414
f 353 414 351
f 355 417 416
f 355 416 353
f 356 418 417
f 356 417 355
f 358 419 356
f 419 418 356
f 360 420 358
f 420 419 358
f 362 421 360
f 421 420 360
f 349 422 362
f 422 421 362
f 423 338 339
f 423 339 415
f 424 340 338
f 424 338 423
f 425 340 424
f 427 345 426
f 428 347 427
f 347 345 427
f 422 349 428
f 349 347 428
f 414 327 315
f 414 315 415
f 416 329 327
f 416 327 414
f 417 329 416
f 420 334 419
f 421 336 420
f 336 334 420
f 422 326 421
f 326 336 421
f 313 423 415
f 313 415 315
f 317 424 423
f 317 423 313
f 324 428 322
f 428 427 322
f 326 422 324
f 422 428 324
f 328 429 430
f 328 430 314
f 330 431 429
f 330 429 328
f 331 432 431
f 331 431 330
f 332 433 432
f 332 432 331
f 333 434 332
f 434 433 332
f 335 435 333
f 435 434 333
f 337 436 335
f 436 435 335
f 325 437 337
f 437 436 337
f 438 312 314
f 438 314 430
f 439 316 312
f 439 312 438
f 441 323 440
f 323 321 440
f 437 325 441
f 325 323 441
f 442 443 444
f 443 445 444
f 446 447 442
f 447 443 442
f 433 449 448
f 450 449 433
f 453 454 452
f 453 452 451
f 455 456 454
f 455 454 453
f 457 458 445
f 458 444 445
f 459 460 457
f 460 458 457
f 461 462 459
f 462 460 459
f 463 462 461
f 464 465 463
f 466 467 465
f 466 465 464
f 468 469 467
f 468 467 466
f 456 455 469
f 456 469 468
f 473 474 470
f 474 471 470
f 449 476 475
f 477 476 449
f 481 482 480
f 483 484 472
f 485 486 483
f 486 484 483
f 487 488 485
f 488 486 485
f 489 488 487
f 490 491 489
f 492 493 491
f 492 491 490
f 494 495 493
f 494 493 492
f 482 481 495
f 482 495 494
f 496 497 498
f 497 499 498
f 500 501 496
f 501 497 496
f 502 503 500
f 503 501 500
f 506 507 505
f 506 505 504
f 508 509 507
f 508 507 506
f 510 511 509
f 510 509 508
f 512 513 499
f 513 498 499
f 514 515 512
f 515 513 512
f 516 517 514
f 517 515 514
f 76 517 516
f 518 519 76
f 520 521 519
f 520 519 518
f 522 523 521
f 522 521 520
f 511 510 523
f 511 523 522
f 497 63 62
f 497 62 499
f 501 65 63
f 501 63 497
f 503 65 501
f 507 69 505
f 509 71 507
f 71 69 507
f 511 73 509
f 73 71 509
f 74 512 499
f 74 499 62
f 75 514 512
f 75 512 74
f 78 522 77
f 522 520 77
f 73 511 78
f 511 522 78
f 513 483 498
f 483 472 498
f 515 485 513
f 485 483 513
f 517 487 515
f 487 485 515
f 76 489 517
f 489 487 517
f 519 490 489
f 519 489 76
f 521 492 490
f 521 490 519
f 523 494 492
f 523 492 521
f 510 482 494
f 510 494 523
f 471 496 472
f 496 498 472
f 474 500 471
f 500 496 471
f 502 500 474
f 479 506 504
f 480 508 506
f 480 506 479
f 482 510 508
f 482 508 480
f 484 524 525
f 486 526 524
f 486 524 484
f 488 527 526
f 488 526 486
f 489 528 527
f 489 527 488
f 491 529 489
f 529 528 489
f 493 530 491
f 530 529 491
f 495 531 493
f 531 530 493
f 481 532 495
f 532 531 495
f 534 473 470
f 534 470 533
f 535 475 473
f 535 473 534
f 449 475 535
f 536 477 449
f 537 478 536
f 478 477 536
f 532 481 538
f 524 457 445
f 524 445 525
f 526 459 457
f 526 457 524
f 527 461 459
f 527 459 526
f 528 463 461
f 528 461 527
f 529 464 528
f 464 463 528
f 530 466 529
f 466 464 529
f 531 468 530
f 468 466 530
f 532 456 531
f 456 468 531
f 443 533 525
f 443 525 445
f 447 534 533
f 447 533 443
f 454 538 452
f 538 537 452
f 456 532 454
f 532 538 454
f 544 545 543
f 544 543 463
f 546 547 545
f 546 545 544
f 548 549 547
f 548 547 546
f 554 555 556
f 554 556 557
f 558 555 554
f 561 562 560
f 563 564 561
f 564 562 561
f 565 566 557
f 565 557 556
f 564 563 572
f 563 573 572
f 574 575 576
f 575 577 576
f 578 579 574
f 579 575 574
f 559 581 580
f 582 581 559
f 585 586 584
f 585 584 583
f 587 588 586
f 587 586 585
f 589 590 577
f 590 576 577
f 591 592 589
f 592 590 589
f 593 592 591
f 596 597 595
f 598 599 597
f 598 597 596
f 588 587 599
f 588 599 598
f 600 601 602
f 601 603 602
f 604 605 600
f 605 601 600
f 606 607 604
f 607 605 604
f 610 611 609
f 610 609 608
f 612 613 611
f 612 611 610
f 614 615 613
f 614 613 612
f 616 617 603
f 617 602 603
f 618 619 616
f 619 617 616
f 620 621 618
f 621 619 618
f 622 621 620
f 623 624 622
f 625 626 624
f 625 624 623
f 627 628 626
f 627 626 625
f 615 614 628
f 615 628 627
f 629 630 631
f 630 632 631
f 633 634 629
f 634 630 629
f 639 640 638
f 639 638 637
f 641 642 640
f 641 640 639
f 643 644 632
f 644 631 632
f 645 646 643
f 646 644 643
f 647 646 645
f 649 650 648
f 651 652 650
f 651 650 649
f 642 641 652
f 642 652 651
f 653 654 655
f 654 656 655
f 657 658 653
f 658 654 653
f 635 660 659
f 661 660 635
f 664 665 663
f 664 663 662
f 666 667 665
f 666 665 664
f 668 669 656
f 669 655 656
f 670 671 668
f 671 669 668
f 672 671 670
f 674 675 673
f 676 677 675
f 676 675 674
f 667 666 677
f 667 677 676
f 678 679 680
f 678 680 681
f 682 683 679
f 682 679 678
f 684 685 683
f 684 683 682
f 660 686 685
f 660 685 684
f 687 688 660
f 688 686 660
f 689 690 687
f 690 688 687
f 691 692 689
f 692 690 689
f 693 694 691
f 694 692 691
f 695 696 681
f 695 681 680
f 697 698 696
f 697 696 695
f 703 704 701
f 704 702 701
f 694 693 703
f 693 704 703
f 705 706 707
f 706 708 707
f 709 710 705
f 710 706 705
f 711 712 709
f 712 710 709
f 686 713 711
f 713 712 711
f 714 715 713
f 714 713 686
f 716 717 715
f 716 715 714
f 718 719 717
f 718 717 716
f 720 721 719
f 720 719 718
f 722 723 708
f 723 707 708
f 724 725 722
f 725 723 722
f 726 725 724
f 728 729 727
f 730 731 729
f 730 729 728
f 721 720 731
f 721 731 730
f 732 80 733
f 80 79 733
f 737 83 736
f 739 87 85
f 739 85 738
f 88 740 79
f 740 733 79
f 89 741 88
f 741 740 88
f 90 742 89
f 742 741 89
f 91 742 90
f 92 743 91
f 93 744 743
f 93 743 92
f 94 745 744
f 94 744 93
f 87 739 745
f 87 745 94
f 740 722 733
f 722 708 733
f 741 724 740
f 724 722 740
f 745 730 728
f 745 728 744
f 739 721 730
f 739 730 745
f 706 732 708
f 732 733 708
f 710 734 706
f 734 732 706
f 712 735 710
f 735 734 710
f 713 735 712
f 715 736 713
f 717 737 736
f 717 736 715
f 719 738 737
f 719 737 717
f 721 739 738
f 721 738 719
f 723 695 680
f 723 680 707
f 725 697 695
f 725 695 723
f 726 697 725
f 729 701 727
f 731 703 729
f 703 701 729
f 720 694 731
f 694 703 731
f 679 705 707
f 679 707 680
f 683 709 705
f 683 705 679
f 685 711 709
f 685 709 683
f 686 711 685
f 688 714 686
f 690 716 688
f 716 714 688
f 692 718 690
f 718 716 690
f 694 720 692
f 720 718 692
f 696 668 681
f 668 656 681
f 698 670 696
f 670 668 696
f 704 676 674
f 704 674 702
f 693 667 676
f 693 676 704
f 654 678 656
f 678 681 656
f 658 682 654
f 682 678 654
f 684 682 658
f 663 689 687
f 665 691 689
f 665 689 663
f 667 693 691
f 667 691 665
f 669 643 655
f 643 632 655
f 671 645 669
f 645 643 669
f 677 651 649
f 677 649 675
f 666 642 651
f 666 651 677
f 630 653 632
f 653 655 632
f 634 657 630
f 657 653 630
f 659 657 634
f 638 662 661
f 640 664 662
f 640 662 638
f 642 666 664
f 642 664 640
f 644 616 603
f 644 603 631
f 646 618 616
f 646 616 644
f 647 620 618
f 647 618 646
f 650 625 648
f 625 623 648
f 652 627 650
f 627 625 650
f 641 615 652
f 615 627 652
f 601 629 631
f 601 631 603
f 605 633 629
f 605 629 601
f 607 633 605
f 611 637 609
f 637 636 609
f 613 639 611
f 639 637 611
f 615 641 613
f 641 639 613
f 617 589 577
f 617 577 602
f 619 591 589
f 619 589 617
f 621 591 619
f 626 596 624
f 628 598 626
f 598 596 626
f 614 588 628
f 588 598 628
f 575 600 602
f 575 602 577
f 579 604 600
f 579 600 575
f 586 612 584
f 612 610 584
f 588 614 586
f 614 612 586
f 746 747 748
f 747 749 748
f 750 751 746
f 751 747 746
f 752 753 750
f 753 751 750
f 594 754 752
f 754 753 752
f 755 756 754
f 755 754 594
f 757 758 756
f 757 756 755
f 759 760 758
f 759 758 757
f 761 762 760
f 761 760 759
f 763 764 749
f 764 748 749
f 765 764 763
f 768 769 767
f 762 761 769
f 762 769 768
f 773 774 772
f 773 772 771
f 754 775 774
f 754 774 773
f 776 777 754
f 777 775 754
f 778 779 776
f 779 777 776
f 780 781 778
f 781 779 778
f 784 785 783
f 784 783 782
f 786 787 785
f 786 785 784
f 788 787 786
f 789 790 788
f 791 792 789
f 792 790 789
f 793 794 791
f 794 792 791
f 798 799 797
f 798 797 796
f 775 800 799
f 775 799 798
f 801 802 775
f 802 800 775
f 803 804 801
f 804 802 801
f 808 807 806
f 811 810 809
f 812 813 811
f 814 815 812
f 815 813 812
f 821 822 820
f 821 820 819
f 800 823 822
f 800 822 821
f 824 825 800
f 825 823 800
f 826 827 824
f 827 825 824
f 829 830 828
f 834 835 833
f 834 833 832
f 836 835 834
f 837 838 836
f 839 840 837
f 840 838 837
f 843 844 842
f 843 842 841
f 823 845 844
f 823 844 843
f 846 847 823
f 847 845 823
f 848 847 846
f 854 853 852
f 855 856 854
f 857 856 855
f 859 96 95
f 859 95 860
f 861 98 96
f 861 96 859
f 862 98 861
f 864 101 863
f 865 103 864
f 103 101 864
f 866 105 865
f 105 103 865
f 106 860 95
f 108 868 867
f 108 867 107
f 109 868 108
f 110 869 109
f 111 870 110
f 870 869 110
f 105 866 112
f 868 852 851
f 868 851 867
f 109 854 852
f 109 852 868
f 869 855 109
f 855 854 109
f 842 861 859
f 844 862 861
f 844 861 842
f 845 862 844
f 847 863 845
f 848 864 847
f 864 863 847
f 865 864 848
f 853 834 832
f 854 836 834
f 854 834 853
f 856 837 854
f 837 836 854
f 857 839 856
f 839 837 856
f 822 843 841
f 822 841 820
f 823 843 822
f 825 846 823
f 833 808 806
f 835 809 808
f 835 808 833
f 836 811 809
f 836 809 835
f 838 812 836
f 812 811 836
f 840 814 838
f 814 812 838
f 816 814 840
f 797 819 817
f 799 821 819
f 799 819 797
f 800 821 799
f 802 824 800
f 804 826 802
f 826 824 802
f 828 826 804
f 810 786 784
f 811 788 786
f 811 786 810
f 813 789 811
f 789 788 811
f 815 791 813
f 791 789 813
f 793 791 815
f 772 796 795
f 774 798 796
f 774 796 772
f 775 798 774
f 777 801 775
f 779 803 777
f 803 801 777
f 783 763 749
f 785 763 783
f 794 768 792
f 762 768 794
f 751 771 770
f 751 770 747
f 753 773 771
f 753 771 751
f 754 773 753
f 756 776 754
f 758 778 756
f 778 776 756
f 760 780 758
f 780 778 758
f 764 871 872
f 764 872 748
f 765 873 871
f 765 871 764
f 766 875 874
f 876 875 766
f 769 878 767
f 878 877 767
f 761 879 769
f 879 878 769
f 880 746 748
f 880 748 872
f 881 750 746
f 881 746 880
f 882 752 750
f 882 750 881
f 594 752 882
f 883 755 594
f 884 757 883
f 757 755 883
f 885 759 884
f 759 757 884
f 879 761 885
f 761 759 885
f 889 890 887
f 889 887 886
f 891 892 890
f 891 890 889
f 875 893 892
f 875 892 891
f 894 895 875
f 895 893 875
f 896 897 894
f 897 895 894
f 898 899 896
f 899 897 896
f 890 905 887
f 905 903 887
f 892 906 890
f 906 905 890
f 893 907 892
f 907 906 892
f 895 908 907
f 895 907 893
f 897 909 908
f 897 908 895
f 899 910 909
f 899 909 897
f 903 916 917
f 903 917 904
f 905 918 916
f 905 916 903
f 906 919 918
f 906 918 905
f 907 920 919
f 907 919 906
f 908 921 907
f 921 920 907
f 909 922 908
f 922 921 908
f 910 923 909
f 923 922 909
f 911 924 910
f 924 923 910
f 925 912 904
f 925 904 917
f 924 911 926
f 911 915 926
f 916 927 928
f 916 928 917
f 918 929 927
f 918 927 916
f 919 930 929
f 919 929 918
f 920 931 930
f 920 930 919
f 921 932 920
f 932 931 920
f 922 933 921
f 933 932 921
f 923 934 922
f 934 933 922
f 924 935 923
f 935 934 923
f 936 925 917
f 936 917 928
f 937 925 936
f 940 926 939
f 935 924 940
f 924 926 940
f 927 565 556
f 927 556 928
f 929 565 927
f 934 572 933
f 935 564 934
f 564 572 934
f 555 936 928
f 555 928 556
f 564 935 562
f 935 940 562
f 566 941 557
f 941 942 557
f 567 943 566
f 943 941 566
f 568 944 567
f 944 943 567
f 569 945 568
f 945 944 568
f 570 946 945
f 570 945 569
f 571 947 946
f 571 946 570
f 573 948 947
f 573 947 571
f 563 949 948
f 563 948 573
f 950 554 942
f 554 557 942
f 558 554 950
f 951 561 560
f 949 563 561
f 949 561 951
f 949 550 948
f 539 950 942
f 541 950 539
f 549 951 547
f 550 949 549
f 949 951 549
f 952 953 954
f 953 955 954
f 956 957 952
f 957 953 952
f 958 959 956
f 959 957 956
f 553 960 958
f 960 959 958
f 961 960 553
f 965 966 964
f 965 964 963
f 967 968 955
f 968 954 955
f 969 968 967
f 972 973 971
f 966 965 973
f 966 973 972
f 974 310 975
f 310 304 975
f 977 136 960
f 980 309 311
f 980 311 979
f 303 981 304
f 981 975 304
f 305 982 303
f 982 981 303
f 983 982 305
f 308 985 984
f 308 984 307
f 309 980 985
f 309 985 308
f 140 123 121
f 142 123 140
f 114 129 133
f 113 131 129
f 113 129 114
f 988 989 990
f 991 992 993
f 989 994 224
f 995 991 225
f 224 223 989
f 226 225 991
f 223 215 990
f 222 226 993
f 990 996 988
f 997 993 992
f 996 998 988
f 999 997 992
f 998 1000 988
f 1001 999 992
f 989 223 990
f 226 991 993
f 214 216 1002
f 216 217 1003
f 217 218 1003
f 1003 1002 216
f 1002 1004 990
f 1004 1000 998
f 998 996 1004
f 996 990 1004
f 990 215 214
f 222 993 221
f 214 1002 990
f 1001 239 237
f 228 1000 1004
f 239 1001 1006
f 1000 228 242
f 1005 291 290
f 1006 293 291
f 1006 291 1005
f 1001 294 293
f 1001 293 1006
f 300 991 995
f 302 992 991
f 302 991 300
f 294 1001 992
f 294 992 302
f 988 296 297
f 988 297 989
f 1000 285 296
f 1000 296 988
f 1009 1010 1011
f 1013 1009 1014
f 439 438 1012
f 441 440 1014
f 438 430 1012
f 437 441 1014
f 1011 1014 1009
f 1008 1015 1007
f 1016 1011 1010
f 1015 955 1007
f 966 1016 1010
f 440 1013 1014
f 967 955 1015
f 966 972 1016
f 1015 1008 967
f 1011 1016 972
f 1012 430 429
f 437 1014 436
f 964 979 978
f 966 980 979
f 966 979 964
f 976 957 959
f 974 953 957
f 974 957 976
f 975 955 953
f 975 953 974
f 984 1009 1013
f 985 1010 1009
f 985 1009 984
f 980 966 1010
f 980 1010 985
f 1007 981 982
f 955 975 981
f 955 981 1007
f 1019 1020 1021
f 1022 1019 451
f 433 1022 450
f 451 450 1022
f 453 451 1019
f 442 444 1023
f 455 453 1024
f 1021 1024 1019
f 1018 1025 1017
f 1026 1021 1020
f 1025 1027 1017
f 1028 1026 1020
f 453 1019 1024
f 458 460 1029
f 460 462 1030
f 462 463 1030
f 1030 1029 460
f 1029 1031 1018
f 1031 1027 1025
f 1025 1018 1031
f 1018 1023 1029
f 1023 444 458
f 455 1024 469
f 458 1029 1023
f 540 1027 1031
f 1027 540 551
f 1032 963 962
f 1028 965 963
f 1028 963 1032
f 971 1019 1022
f 973 1020 1019
f 973 1019 971
f 965 1028 1020
f 965 1020 973
f 1017 968 969
f 1027 954 968
f 1027 968 1017
f 902 585 583
f 900 587 585
f 900 585 902
f 576 888 901
f 576 901 574
f 595 1033 594
f 597 1034 1033
f 597 1033 595
f 599 1035 1034
f 599 1034 597
f 587 900 1035
f 587 1035 599
f 1036 593 594
f 1037 592 593
f 1037 593 1036
f 1038 590 592
f 1038 592 1037
f 888 576 590
f 888 590 1038
f 1038 1037 880
f 1034 1035 885
f 1037 1036 881
f 1033 1034 884
f 1036 594 882
f 594 1033 883
f 882 881 1036
f 884 883 1033
f 881 880 1037
f 885 884 1034
f 880 872 1039
f 879 885 1040
f 1039 1041 1038
f 1042 1040 1035
f 1041 1043 1038
f 1044 1042 1035
f 1043 888 1038
f 900 1044 1035
f 1038 880 1039
f 885 1035 1040
f 871 873 889
f 877 878 896
f 873 874 891
f 876 877 894
f 874 875 891
f 875 876 894
f 891 889 873
f 896 894 877
f 889 886 871
f 898 896 878
f 886 888 1043
f 900 898 1044
f 1043 1041 886
f 1042 1044 898
f 1041 1039 886
f 1040 1042 898
f 1039 872 871
f 879 1040 878
f 871 886 1039
f 898 878 1040
f 35 34 32
f 35 32 273
f 274 35 273
f 35 36 34
f 37 36 35
f 276 37 35
f 276 35 275
f 34 44 43
f 44 280 43
f 36 44 34
f 45 44 36
f 45 281 44
f 51 52 50
f 51 50 49
f 393 51 392
f 392 51 390
f 51 49 48
f 51 48 390
f 53 54 51
f 395 53 51
f 395 51 394
f 54 52 51
f 67 68 66
f 67 66 65
f 503 67 65
f 69 70 67
f 69 67 505
f 70 68 67
f 734 80 732
f 90 89 82
f 91 90 82
f 80 82 81
f 82 89 81
f 83 82 80
f 713 83 735
f 736 83 713
f 735 83 734
f 83 80 734
f 84 82 83
f 84 92 82
f 82 92 91
f 86 84 83
f 85 86 83
f 738 85 83
f 738 83 737
f 108 107 100
f 109 108 100
f 98 100 97
f 100 107 97
f 99 100 98
f 862 99 98
f 845 99 862
f 101 102 99
f 101 99 863
f 863 99 845
f 102 100 99
f 102 110 100
f 100 110 109
f 113 114 124
f 115 125 124
f 167 166 165
f 167 165 192
f 168 167 193
f 193 167 192
f 195 169 168
f 170 171 169
f 197 170 169
f 197 169 195
f 210 193 191
f 26 194 193
f 26 193 210
f 195 194 26
f 196 195 211
f 211 195 26
f 19 210 25
f 20 210 19
f 20 26 210
f 21 211 20
f 27 211 21
f 211 26 20
f 180 203 178
f 181 203 180
f 203 179 178
f 203 202 179
f 182 204 181
f 183 204 182
f 183 184 204
f 184 205 204
f 154 180 153
f 127 180 154
f 127 155 180
f 156 182 127
f 158 182 156
f 182 155 127
f 154 152 224
f 154 224 994
f 994 127 154
f 127 995 156
f 225 157 156
f 225 156 995
f 264 243 241
f 265 243 264
f 44 265 280
f 281 265 44
f 282 267 266
f 281 266 265
f 282 266 281
f 43 279 42
f 280 279 43
f 280 265 279
f 265 263 279
f 41 282 46
f 41 278 282
f 278 269 282
f 282 269 267
f 252 274 250
f 253 274 252
f 274 251 250
f 254 275 253
f 255 275 254
f 255 256 275
f 132 128 310
f 132 310 974
f 976 132 974
f 134 132 976
f 977 137 136
f 978 137 977
f 311 139 138
f 979 311 138
f 978 138 137
f 979 138 978
f 417 331 329
f 418 332 331
f 418 331 417
f 333 332 418
f 334 333 419
f 419 333 418
f 349 348 347
f 348 349 361
f 348 361 389
f 378 348 389
f 340 350 338
f 338 350 339
f 381 350 366
f 350 363 366
f 341 363 350
f 340 341 350
f 384 383 382
f 406 384 382
f 385 357 384
f 384 356 354
f 357 356 384
f 386 387 385
f 386 385 407
f 400 59 50
f 52 400 50
f 54 60 401
f 54 401 52
f 52 401 400
f 399 404 398
f 406 404 399
f 406 382 404
f 404 382 380
f 401 406 400
f 401 407 406
f 407 385 406
f 385 384 406
f 403 407 402
f 403 408 407
f 408 388 407
f 388 386 407
f 370 393 411
f 371 393 370
f 373 394 371
f 412 394 373
f 425 342 341
f 319 342 425
f 425 341 340
f 426 344 319
f 346 344 426
f 345 346 426
f 318 425 316
f 319 425 318
f 425 317 316
f 425 424 317
f 320 426 319
f 321 426 320
f 321 322 426
f 322 427 426
f 318 316 439
f 306 1013 320
f 440 321 320
f 440 320 1013
f 471 472 470
f 484 470 472
f 484 525 470
f 533 470 525
f 481 480 479
f 481 479 478
f 481 478 537
f 538 481 537
f 476 503 502
f 504 503 476
f 504 505 503
f 505 67 503
f 68 516 66
f 516 75 66
f 516 514 75
f 76 516 68
f 68 518 76
f 70 77 518
f 77 520 518
f 70 518 68
f 475 502 473
f 476 502 475
f 502 474 473
f 477 504 476
f 478 504 477
f 478 479 504
f 448 535 446
f 449 535 448
f 535 447 446
f 535 534 447
f 450 536 449
f 451 536 450
f 451 452 536
f 452 537 536
f 539 942 540
f 941 540 942
f 550 549 548
f 1028 550 548
f 550 1028 1032
f 941 551 540
f 943 551 941
f 943 552 551
f 944 552 943
f 567 566 565
f 929 567 565
f 930 567 929
f 930 568 567
f 931 569 568
f 931 568 930
f 570 569 931
f 932 570 931
f 572 573 571
f 572 571 933
f 933 571 932
f 571 570 932
f 621 593 591
f 622 594 593
f 622 593 621
f 595 594 622
f 596 595 624
f 624 595 622
f 581 636 606
f 608 636 581
f 636 607 606
f 607 636 633
f 608 609 636
f 647 645 671
f 672 647 671
f 648 623 647
f 647 622 620
f 623 622 647
f 675 649 648
f 673 648 647
f 675 648 673
f 672 670 698
f 699 672 698
f 673 647 672
f 702 674 673
f 700 673 672
f 702 673 700
f 699 698 697
f 726 699 697
f 700 672 699
f 701 702 700
f 701 700 727
f 726 724 741
f 742 726 741
f 727 700 726
f 91 726 742
f 743 726 91
f 700 699 726
f 744 728 727
f 743 727 726
f 744 727 743
f 659 684 657
f 660 684 659
f 684 658 657
f 661 687 660
f 662 687 661
f 662 663 687
f 636 659 633
f 659 634 633
f 635 659 636
f 636 661 635
f 637 661 636
f 637 638 661
f 580 606 578
f 581 606 580
f 606 579 578
f 606 604 579
f 582 608 581
f 583 608 582
f 583 584 608
f 584 610 608
f 785 765 763
f 787 765 785
f 788 766 765
f 766 874 765
f 765 874 873
f 788 765 787
f 767 877 766
f 877 876 766
f 790 766 788
f 768 767 792
f 792 767 790
f 767 766 790
f 782 783 770
f 783 749 770
f 747 770 749
f 780 794 793
f 780 762 794
f 762 780 760
f 781 780 793
f 771 782 770
f 772 795 782
f 771 772 782
f 806 807 795
f 807 782 795
f 805 803 779
f 781 805 779
f 796 806 795
f 806 817 818
f 797 817 806
f 796 797 806
f 809 807 808
f 809 810 807
f 810 784 807
f 807 784 782
f 816 815 814
f 805 815 816
f 805 781 815
f 781 793 815
f 828 827 826
f 830 827 828
f 830 849 827
f 832 818 831
f 832 833 818
f 833 806 818
f 819 831 817
f 817 831 818
f 819 820 831
f 830 839 857
f 830 829 839
f 829 840 839
f 829 816 840
f 820 841 831
f 850 831 841
f 827 849 825
f 849 848 846
f 849 846 825
f 852 850 851
f 852 853 850
f 853 832 850
f 850 832 831
f 851 850 841
f 841 842 851
f 851 859 860
f 842 859 851
f 858 857 855
f 858 855 869
f 870 858 869
f 849 857 858
f 849 830 857
f 107 860 106
f 107 867 860
f 867 851 860
f 112 866 111
f 866 870 111
f 866 858 870
f 886 887 888
f 887 903 888
f 903 904 888
f 900 899 898
f 900 910 899
f 900 911 910
f 901 888 904
f 912 901 904
f 911 900 902
f 911 902 915
f 913 912 925
f 937 913 925
f 938 913 937
f 926 915 914
f 926 914 939
f 558 937 555
f 937 936 555
f 543 559 938
f 562 939 560
f 562 940 939
f 541 558 950
f 542 558 541
f 951 560 547
f 547 560 545
f 969 967 1008
f 429 969 1012
f 1008 1012 969
f 432 433 970
f 429 431 970
f 431 432 970
f 970 969 429
f 972 971 1011
f 971 436 1014
f 1014 1011 971
f 145 306 983
f 137 119 117
f 138 119 137
f 138 121 119
f 139 121 138
f 139 140 121
f 135 116 115
f 117 116 135
f 133 115 124
f 135 115 133
f 133 124 114
f 120 298 127
f 122 298 120
f 122 299 298
f 301 299 122
f 123 301 121
f 301 122 121
f 301 123 295
f 142 295 123
f 295 142 146
f 295 146 987
f 125 297 296
f 126 297 125
f 124 296 285
f 125 296 124
f 283 284 113
f 283 113 285
f 124 285 113
f 290 986 244
f 292 986 290
f 986 145 244
f 293 987 291
f 295 987 293
f 987 292 291
f 145 983 289
f 289 983 305
f 287 144 143
f 289 305 287
f 287 303 144
f 287 305 303
f 143 284 287
f 131 284 143
f 131 113 284
f 219 220 233
f 218 219 233
f 220 221 235
f 235 221 993
f 235 233 220
f 237 235 993
f 993 997 237
f 1001 237 999
f 997 999 237
f 232 231 1003
f 218 232 1003
f 231 230 1002
f 1003 231 1002
f 1004 227 228
f 230 227 1004
f 1002 230 1004
f 245 1005 268
f 268 1005 266
f 245 1006 1005
f 240 1006 245
f 240 239 1006
f 283 243 286
f 283 242 243
f 285 1000 242
f 285 242 283
f 290 244 265
f 1005 290 266
f 266 290 265
f 298 995 127
f 300 995 298
f 126 994 297
f 989 297 994
f 127 994 126
f 961 977 960
f 962 977 961
f 962 978 977
f 963 978 962
f 963 964 978
f 959 134 976
f 960 136 959
f 136 134 959
f 1013 306 145
f 307 984 1013
f 307 1013 986
f 986 1013 145
f 983 439 1012
f 983 306 318
f 318 439 983
f 1007 982 1008
f 1012 1008 982
f 982 983 1012
f 465 467 544
f 463 465 544
f 467 469 546
f 546 469 1024
f 546 544 467
f 1024 1021 546
f 548 546 1021
f 1021 1026 548
f 1028 548 1026
f 543 542 1030
f 463 543 1030
f 542 541 1029
f 1030 542 1029
f 1031 539 540
f 541 539 1031
f 1029 541 1031
f 550 1032 948
f 948 1032 947
f 952 552 956
f 952 551 552
f 954 1027 551
f 954 551 952
f 961 553 945
f 946 961 945
f 1032 962 947
f 962 961 946
f 947 962 946
f 433 434 1022
f 971 1022 436
f 435 436 1022
f 434 435 1022
f 448 446 970
f 970 433 448
f 1017 969 1018
f 1023 1018 969
f 969 970 446
f 446 442 969
f 969 442 1023
f 805 816 803
f 816 804 803
f 816 828 804
f 829 828 816
f 858 848 849
f 858 865 848
f 866 865 858
f 913 901 912
f 574 901 913
f 574 913 578
f 915 902 914
f 902 583 914
f 914 583 582
f 578 913 938
f 580 938 559
f 578 938 580
f 542 937 558
f 543 938 542
f 542 938 937
f 560 939 545
f 146 147 292
f 987 146 292
f 147 308 292
f 292 307 986
f 308 307 292
f 265 288 243
f 286 243 288
f 265 244 288
f 944 958 552
f 956 552 958
f 945 553 958
f 945 958 944
f 582 559 543
f 939 914 582
f 939 582 545
f 545 582 543
#se
