# Blender v3.0.1 OBJ File: ''
# www.blender.org
mtllib inner.mtl
o inner_Cube.007
v -44.000011 -45.999989 -0.999996
v -46.000011 -45.999989 -0.999996
v -44.000011 -45.999989 1.000004
v -46.000011 -45.999989 1.000004
v -44.000011 -43.999989 -0.999996
v -46.000011 -43.999989 -0.999996
v -44.000011 -43.999989 1.000004
v -46.000011 -43.999989 1.000004
v 46.000004 -43.999996 -1.000000
v 46.000004 -45.999996 -1.000000
v 46.000004 -43.999996 1.000000
v 46.000004 -45.999996 1.000000
v 44.000004 -43.999996 -1.000000
v 44.000004 -45.999996 -1.000000
v 44.000004 -43.999996 1.000000
v 44.000004 -45.999996 1.000000
v 44.000004 46.000004 -1.000000
v 46.000004 46.000004 -1.000000
v 44.000004 46.000004 1.000000
v 46.000004 46.000004 1.000000
v 44.000004 44.000004 -1.000000
v 46.000004 44.000004 -1.000000
v 44.000004 44.000004 1.000000
v 46.000004 44.000004 1.000000
v -46.000000 44.000011 -0.999996
v -45.999996 46.000011 -0.999996
v -46.000000 44.000011 1.000004
v -45.999996 46.000011 1.000004
v -44.000000 44.000011 -0.999996
v -43.999996 46.000011 -0.999996
v -44.000000 44.000011 1.000004
v -43.999996 46.000011 1.000004
vt 0.375000 0.500000
vt 0.125000 0.500000
vt 0.125000 0.500000
vt 0.375000 0.500000
vt 0.375000 0.250000
vt 0.625000 0.250000
vt 0.625000 0.500000
vt 0.875000 0.500000
vt 0.625000 0.500000
vt 0.875000 0.500000
vt 0.375000 0.250000
vt 0.625000 0.250000
vt 0.375000 0.500000
vt 0.125000 0.500000
vt 0.125000 0.500000
vt 0.375000 0.500000
vt 0.375000 0.250000
vt 0.625000 0.250000
vt 0.625000 0.500000
vt 0.875000 0.500000
vt 0.625000 0.500000
vt 0.875000 0.500000
vt 0.375000 0.250000
vt 0.625000 0.250000
vt 0.375000 0.500000
vt 0.125000 0.500000
vt 0.125000 0.500000
vt 0.375000 0.500000
vt 0.375000 0.250000
vt 0.625000 0.250000
vt 0.625000 0.500000
vt 0.875000 0.500000
vt 0.625000 0.500000
vt 0.875000 0.500000
vt 0.375000 0.250000
vt 0.625000 0.250000
vt 0.375000 0.500000
vt 0.125000 0.500000
vt 0.125000 0.500000
vt 0.375000 0.500000
vt 0.375000 0.250000
vt 0.625000 0.250000
vt 0.625000 0.500000
vt 0.875000 0.500000
vt 0.625000 0.500000
vt 0.875000 0.500000
vt 0.375000 0.250000
vt 0.625000 0.250000
vn -1.0000 0.0000 0.0000
vn 0.0000 1.0000 0.0000
vn 1.0000 0.0000 0.0000
vn -0.0000 0.0000 -1.0000
vn 0.0000 0.0000 1.0000
vn 0.0000 -1.0000 0.0000
usemtl Material
s off
f 2/1/1 4/2/1 8/3/1 6/4/1
f 8/5/2 7/6/2 5/7/2 6/4/2
f 3/8/3 1/9/3 5/7/3 7/10/3
f 1/9/4 2/1/4 6/4/4 5/7/4
f 4/11/5 3/12/5 7/6/5 8/5/5
f 2/1/6 1/9/6 3/8/6 4/11/6
f 10/13/6 12/14/6 16/15/6 14/16/6
f 16/17/1 15/18/1 13/19/1 14/16/1
f 11/20/2 9/21/2 13/19/2 15/22/2
f 9/21/4 10/13/4 14/16/4 13/19/4
f 12/23/5 11/24/5 15/18/5 16/17/5
f 10/13/3 9/21/3 11/20/3 12/23/3
f 18/25/3 20/26/3 24/27/3 22/28/3
f 24/29/6 23/30/6 21/31/6 22/28/6
f 19/32/1 17/33/1 21/31/1 23/34/1
f 17/33/4 18/25/4 22/28/4 21/31/4
f 20/35/5 19/36/5 23/30/5 24/29/5
f 18/25/2 17/33/2 19/32/2 20/35/2
f 26/37/2 28/38/2 32/39/2 30/40/2
f 32/41/3 31/42/3 29/43/3 30/40/3
f 27/44/6 25/45/6 29/43/6 31/46/6
f 25/45/4 26/37/4 30/40/4 29/43/4
f 28/47/5 27/48/5 31/42/5 32/41/5
f 26/37/1 25/45/1 27/44/1 28/47/1
