# Blender v3.0.1 OBJ File: ''
# www.blender.org
mtllib outer.mtl
o outer_Cube.006
v -48.000011 -45.999989 -0.999996
v -50.000011 -45.999989 -0.999996
v -48.000011 -47.999989 -0.999996
v -50.000011 -47.999989 -0.999996
v -48.000011 -45.999989 1.000004
v -50.000011 -45.999989 1.000004
v -48.000011 -47.999989 1.000004
v -50.000011 -47.999989 1.000004
v -48.000011 -43.999989 -0.999996
v -50.000011 -43.999989 -0.999996
v -48.000011 -43.999989 1.000004
v -50.000011 -43.999989 1.000004
v -48.000011 -41.999989 -0.999996
v -50.000011 -41.999989 -0.999996
v -48.000011 -41.999989 1.000004
v -50.000011 -41.999989 1.000004
v -44.000011 -47.999989 -0.999996
v -44.000011 -49.999989 -0.999996
v -42.000011 -47.999989 -0.999997
v -42.000011 -49.999989 -0.999997
v -44.000011 -47.999989 1.000004
v -44.000011 -49.999989 1.000004
v -42.000011 -47.999989 1.000004
v -42.000011 -49.999989 1.000004
v -46.000011 -47.999989 -0.999996
v -46.000011 -49.999989 -0.999996
v -46.000011 -47.999989 1.000004
v -46.000011 -49.999989 1.000004
v -48.000011 -47.999989 -0.999996
v -48.000011 -49.999989 -0.999996
v -48.000011 -47.999989 1.000004
v -48.000011 -49.999989 1.000004
v 46.000004 -47.999996 -1.000000
v 46.000004 -49.999996 -1.000000
v 48.000004 -47.999996 -1.000000
v 48.000004 -49.999996 -1.000000
v 46.000004 -47.999996 1.000000
v 46.000004 -49.999996 1.000000
v 48.000004 -47.999996 1.000000
v 48.000004 -49.999996 1.000000
v 44.000004 -47.999996 -1.000000
v 44.000004 -49.999996 -1.000000
v 44.000004 -47.999996 1.000000
v 44.000004 -49.999996 1.000000
v 42.000004 -47.999996 -1.000000
v 42.000004 -49.999996 -1.000000
v 42.000004 -47.999996 1.000000
v 42.000004 -49.999996 1.000000
v 48.000004 -43.999996 -1.000000
v 50.000004 -43.999996 -1.000000
v 48.000004 -41.999996 -1.000000
v 50.000004 -41.999996 -1.000000
v 48.000004 -43.999996 1.000000
v 50.000004 -43.999996 0.999999
v 48.000004 -41.999996 1.000000
v 50.000004 -41.999996 0.999999
v 48.000004 -45.999996 -1.000000
v 50.000004 -45.999996 -1.000000
v 48.000004 -45.999996 1.000000
v 50.000004 -45.999996 0.999999
v 48.000004 -47.999996 -1.000000
v 50.000004 -47.999996 -1.000000
v 48.000004 -47.999996 1.000000
v 50.000004 -47.999996 0.999999
v 48.000004 46.000004 -1.000000
v 50.000004 46.000004 -1.000000
v 48.000004 48.000004 -1.000000
v 50.000004 48.000004 -1.000000
v 48.000004 46.000004 1.000000
v 50.000004 46.000004 0.999999
v 48.000004 48.000004 1.000000
v 50.000004 48.000004 0.999999
v 48.000004 44.000004 -1.000000
v 50.000004 44.000004 -1.000000
v 48.000004 44.000004 1.000000
v 50.000004 44.000004 0.999999
v 48.000004 42.000004 -1.000000
v 50.000004 42.000004 -1.000000
v 48.000004 42.000004 1.000000
v 50.000004 42.000004 0.999999
v 44.000004 48.000004 -1.000000
v 44.000004 50.000004 -1.000000
v 42.000004 48.000004 -1.000000
v 42.000004 50.000004 -1.000000
v 44.000004 48.000004 1.000000
v 44.000004 50.000004 1.000000
v 42.000004 48.000004 1.000000
v 42.000004 50.000004 1.000000
v 46.000004 48.000004 -1.000000
v 46.000004 50.000004 -1.000000
v 46.000004 48.000004 1.000000
v 46.000004 50.000004 1.000000
v 48.000004 48.000004 -1.000000
v 48.000004 50.000004 -1.000000
v 48.000004 48.000004 1.000000
v 48.000004 50.000004 1.000000
v -45.999996 48.000011 -0.999996
v -45.999996 50.000011 -0.999996
v -47.999996 48.000011 -0.999996
v -47.999996 50.000011 -0.999996
v -45.999996 48.000011 1.000004
v -45.999996 50.000011 1.000004
v -47.999996 48.000011 1.000004
v -47.999996 50.000011 1.000004
v -43.999996 48.000011 -0.999996
v -43.999996 50.000011 -0.999996
v -43.999996 48.000011 1.000004
v -43.999996 50.000011 1.000004
v -41.999996 48.000011 -0.999997
v -41.999996 50.000011 -0.999997
v -41.999996 48.000011 1.000004
v -41.999996 50.000011 1.000004
v -48.000000 44.000011 -0.999996
v -49.999996 44.000011 -0.999996
v -48.000000 42.000011 -0.999996
v -50.000000 42.000011 -0.999996
v -48.000000 44.000011 1.000004
v -49.999996 44.000011 1.000004
v -48.000000 42.000011 1.000004
v -50.000000 42.000011 1.000004
v -47.999996 46.000011 -0.999996
v -49.999996 46.000011 -0.999996
v -47.999996 46.000011 1.000004
v -49.999996 46.000011 1.000004
v -47.999996 48.000011 -0.999996
v -49.999996 48.000011 -0.999996
v -47.999996 48.000011 1.000004
v -49.999996 48.000011 1.000004
vt 0.625000 0.500000
vt 0.875000 0.500000
vt 0.875000 0.750000
vt 0.625000 0.750000
vt 0.375000 0.750000
vt 0.625000 1.000000
vt 0.375000 1.000000
vt 0.375000 0.000000
vt 0.625000 0.000000
vt 0.625000 0.250000
vt 0.375000 0.250000
vt 0.125000 0.500000
vt 0.375000 0.500000
vt 0.125000 0.750000
vt 0.125000 0.500000
vt 0.375000 0.500000
vt 0.125000 0.500000
vt 0.375000 0.500000
vt 0.625000 0.500000
vt 0.875000 0.500000
vt 0.625000 0.250000
vt 0.375000 0.250000
vt 0.375000 0.250000
vt 0.625000 0.250000
vt 0.625000 0.500000
vt 0.875000 0.500000
vt 0.625000 0.500000
vt 0.875000 0.500000
vt 0.875000 0.750000
vt 0.625000 0.750000
vt 0.375000 0.750000
vt 0.625000 1.000000
vt 0.375000 1.000000
vt 0.375000 0.000000
vt 0.625000 0.000000
vt 0.625000 0.250000
vt 0.375000 0.250000
vt 0.125000 0.500000
vt 0.375000 0.500000
vt 0.125000 0.750000
vt 0.125000 0.500000
vt 0.375000 0.500000
vt 0.125000 0.500000
vt 0.375000 0.500000
vt 0.625000 0.500000
vt 0.875000 0.500000
vt 0.625000 0.250000
vt 0.375000 0.250000
vt 0.375000 0.250000
vt 0.625000 0.250000
vt 0.625000 0.500000
vt 0.875000 0.500000
vt 0.625000 0.500000
vt 0.875000 0.500000
vt 0.875000 0.750000
vt 0.625000 0.750000
vt 0.375000 0.750000
vt 0.625000 1.000000
vt 0.375000 1.000000
vt 0.375000 0.000000
vt 0.625000 0.000000
vt 0.625000 0.250000
vt 0.375000 0.250000
vt 0.125000 0.500000
vt 0.375000 0.500000
vt 0.125000 0.750000
vt 0.125000 0.500000
vt 0.375000 0.500000
vt 0.125000 0.500000
vt 0.375000 0.500000
vt 0.625000 0.500000
vt 0.875000 0.500000
vt 0.625000 0.250000
vt 0.375000 0.250000
vt 0.375000 0.250000
vt 0.625000 0.250000
vt 0.625000 0.500000
vt 0.875000 0.500000
vt 0.625000 0.500000
vt 0.875000 0.500000
vt 0.875000 0.750000
vt 0.625000 0.750000
vt 0.375000 0.750000
vt 0.625000 1.000000
vt 0.375000 1.000000
vt 0.375000 0.000000
vt 0.625000 0.000000
vt 0.625000 0.250000
vt 0.375000 0.250000
vt 0.125000 0.500000
vt 0.375000 0.500000
vt 0.125000 0.750000
vt 0.125000 0.500000
vt 0.375000 0.500000
vt 0.125000 0.500000
vt 0.375000 0.500000
vt 0.625000 0.500000
vt 0.875000 0.500000
vt 0.625000 0.250000
vt 0.375000 0.250000
vt 0.375000 0.250000
vt 0.625000 0.250000
vt 0.625000 0.500000
vt 0.875000 0.500000
vt 0.625000 0.500000
vt 0.875000 0.500000
vt 0.875000 0.750000
vt 0.625000 0.750000
vt 0.375000 0.750000
vt 0.625000 1.000000
vt 0.375000 1.000000
vt 0.375000 0.000000
vt 0.625000 0.000000
vt 0.625000 0.250000
vt 0.375000 0.250000
vt 0.125000 0.500000
vt 0.375000 0.500000
vt 0.125000 0.750000
vt 0.125000 0.500000
vt 0.375000 0.500000
vt 0.125000 0.500000
vt 0.375000 0.500000
vt 0.625000 0.500000
vt 0.875000 0.500000
vt 0.625000 0.250000
vt 0.375000 0.250000
vt 0.375000 0.250000
vt 0.625000 0.250000
vt 0.625000 0.500000
vt 0.875000 0.500000
vt 0.625000 0.500000
vt 0.875000 0.500000
vt 0.875000 0.750000
vt 0.625000 0.750000
vt 0.375000 0.750000
vt 0.625000 1.000000
vt 0.375000 1.000000
vt 0.375000 0.000000
vt 0.625000 0.000000
vt 0.625000 0.250000
vt 0.375000 0.250000
vt 0.125000 0.500000
vt 0.375000 0.500000
vt 0.125000 0.750000
vt 0.125000 0.500000
vt 0.375000 0.500000
vt 0.125000 0.500000
vt 0.375000 0.500000
vt 0.625000 0.500000
vt 0.875000 0.500000
vt 0.625000 0.250000
vt 0.375000 0.250000
vt 0.375000 0.250000
vt 0.625000 0.250000
vt 0.625000 0.500000
vt 0.875000 0.500000
vt 0.625000 0.500000
vt 0.875000 0.500000
vt 0.875000 0.750000
vt 0.625000 0.750000
vt 0.375000 0.750000
vt 0.625000 1.000000
vt 0.375000 1.000000
vt 0.375000 0.000000
vt 0.625000 0.000000
vt 0.625000 0.250000
vt 0.375000 0.250000
vt 0.125000 0.500000
vt 0.375000 0.500000
vt 0.125000 0.750000
vt 0.125000 0.500000
vt 0.375000 0.500000
vt 0.125000 0.500000
vt 0.375000 0.500000
vt 0.625000 0.500000
vt 0.875000 0.500000
vt 0.625000 0.250000
vt 0.375000 0.250000
vt 0.375000 0.250000
vt 0.625000 0.250000
vt 0.625000 0.500000
vt 0.875000 0.500000
vt 0.625000 0.500000
vt 0.875000 0.500000
vt 0.875000 0.750000
vt 0.625000 0.750000
vt 0.375000 0.750000
vt 0.625000 1.000000
vt 0.375000 1.000000
vt 0.375000 0.000000
vt 0.625000 0.000000
vt 0.625000 0.250000
vt 0.375000 0.250000
vt 0.125000 0.500000
vt 0.375000 0.500000
vt 0.125000 0.750000
vt 0.125000 0.500000
vt 0.375000 0.500000
vt 0.125000 0.500000
vt 0.375000 0.500000
vt 0.625000 0.500000
vt 0.875000 0.500000
vt 0.625000 0.250000
vt 0.375000 0.250000
vt 0.375000 0.250000
vt 0.625000 0.250000
vt 0.625000 0.500000
vt 0.875000 0.500000
vn 1.0000 0.0000 0.0000
vn 0.0000 -1.0000 0.0000
vn 0.0000 0.0000 1.0000
vn -1.0000 0.0000 0.0000
vn -0.0000 0.0000 -1.0000
vn 0.0000 1.0000 0.0000
usemtl Material
s off
f 1/1/1 5/2/1 7/3/1 3/4/1
f 4/5/2 3/4/2 7/6/2 8/7/2
f 8/8/3 7/9/3 5/10/3 6/11/3
f 6/12/4 2/13/4 4/5/4 8/14/4
f 2/13/5 1/1/5 3/4/5 4/5/5
f 2/13/4 6/12/4 12/15/4 10/16/4
f 10/16/4 12/15/4 16/17/4 14/18/4
f 5/2/1 1/1/1 9/19/1 11/20/1
f 1/1/5 2/13/5 10/16/5 9/19/5
f 6/11/3 5/10/3 11/21/3 12/22/3
f 16/23/6 15/24/6 13/25/6 14/18/6
f 11/20/1 9/19/1 13/25/1 15/26/1
f 9/19/5 10/16/5 14/18/5 13/25/5
f 12/22/3 11/21/3 15/24/3 16/23/3
f 17/27/6 21/28/6 23/29/6 19/30/6
f 20/31/1 19/30/1 23/32/1 24/33/1
f 24/34/3 23/35/3 21/36/3 22/37/3
f 22/38/2 18/39/2 20/31/2 24/40/2
f 18/39/5 17/27/5 19/30/5 20/31/5
f 18/39/2 22/38/2 28/41/2 26/42/2
f 26/42/2 28/41/2 32/43/2 30/44/2
f 21/28/6 17/27/6 25/45/6 27/46/6
f 17/27/5 18/39/5 26/42/5 25/45/5
f 22/37/3 21/36/3 27/47/3 28/48/3
f 32/49/4 31/50/4 29/51/4 30/44/4
f 27/46/6 25/45/6 29/51/6 31/52/6
f 25/45/5 26/42/5 30/44/5 29/51/5
f 28/48/3 27/47/3 31/50/3 32/49/3
f 33/53/6 37/54/6 39/55/6 35/56/6
f 36/57/1 35/56/1 39/58/1 40/59/1
f 40/60/3 39/61/3 37/62/3 38/63/3
f 38/64/2 34/65/2 36/57/2 40/66/2
f 34/65/5 33/53/5 35/56/5 36/57/5
f 34/65/2 38/64/2 44/67/2 42/68/2
f 42/68/2 44/67/2 48/69/2 46/70/2
f 37/54/6 33/53/6 41/71/6 43/72/6
f 33/53/5 34/65/5 42/68/5 41/71/5
f 38/63/3 37/62/3 43/73/3 44/74/3
f 48/75/4 47/76/4 45/77/4 46/70/4
f 43/72/6 41/71/6 45/77/6 47/78/6
f 41/71/5 42/68/5 46/70/5 45/77/5
f 44/74/3 43/73/3 47/76/3 48/75/3
f 49/79/4 53/80/4 55/81/4 51/82/4
f 52/83/6 51/82/6 55/84/6 56/85/6
f 56/86/3 55/87/3 53/88/3 54/89/3
f 54/90/1 50/91/1 52/83/1 56/92/1
f 50/91/5 49/79/5 51/82/5 52/83/5
f 50/91/1 54/90/1 60/93/1 58/94/1
f 58/94/1 60/93/1 64/95/1 62/96/1
f 53/80/4 49/79/4 57/97/4 59/98/4
f 49/79/5 50/91/5 58/94/5 57/97/5
f 54/89/3 53/88/3 59/99/3 60/100/3
f 64/101/2 63/102/2 61/103/2 62/96/2
f 59/98/4 57/97/4 61/103/4 63/104/4
f 57/97/5 58/94/5 62/96/5 61/103/5
f 60/100/3 59/99/3 63/102/3 64/101/3
f 65/105/4 69/106/4 71/107/4 67/108/4
f 68/109/6 67/108/6 71/110/6 72/111/6
f 72/112/3 71/113/3 69/114/3 70/115/3
f 70/116/1 66/117/1 68/109/1 72/118/1
f 66/117/5 65/105/5 67/108/5 68/109/5
f 66/117/1 70/116/1 76/119/1 74/120/1
f 74/120/1 76/119/1 80/121/1 78/122/1
f 69/106/4 65/105/4 73/123/4 75/124/4
f 65/105/5 66/117/5 74/120/5 73/123/5
f 70/115/3 69/114/3 75/125/3 76/126/3
f 80/127/2 79/128/2 77/129/2 78/122/2
f 75/124/4 73/123/4 77/129/4 79/130/4
f 73/123/5 74/120/5 78/122/5 77/129/5
f 76/126/3 75/125/3 79/128/3 80/127/3
f 81/131/2 85/132/2 87/133/2 83/134/2
f 84/135/4 83/134/4 87/136/4 88/137/4
f 88/138/3 87/139/3 85/140/3 86/141/3
f 86/142/6 82/143/6 84/135/6 88/144/6
f 82/143/5 81/131/5 83/134/5 84/135/5
f 82/143/6 86/142/6 92/145/6 90/146/6
f 90/146/6 92/145/6 96/147/6 94/148/6
f 85/132/2 81/131/2 89/149/2 91/150/2
f 81/131/5 82/143/5 90/146/5 89/149/5
f 86/141/3 85/140/3 91/151/3 92/152/3
f 96/153/1 95/154/1 93/155/1 94/148/1
f 91/150/2 89/149/2 93/155/2 95/156/2
f 89/149/5 90/146/5 94/148/5 93/155/5
f 92/152/3 91/151/3 95/154/3 96/153/3
f 97/157/2 101/158/2 103/159/2 99/160/2
f 100/161/4 99/160/4 103/162/4 104/163/4
f 104/164/3 103/165/3 101/166/3 102/167/3
f 102/168/6 98/169/6 100/161/6 104/170/6
f 98/169/5 97/157/5 99/160/5 100/161/5
f 98/169/6 102/168/6 108/171/6 106/172/6
f 106/172/6 108/171/6 112/173/6 110/174/6
f 101/158/2 97/157/2 105/175/2 107/176/2
f 97/157/5 98/169/5 106/172/5 105/175/5
f 102/167/3 101/166/3 107/177/3 108/178/3
f 112/179/1 111/180/1 109/181/1 110/174/1
f 107/176/2 105/175/2 109/181/2 111/182/2
f 105/175/5 106/172/5 110/174/5 109/181/5
f 108/178/3 107/177/3 111/180/3 112/179/3
f 113/183/1 117/184/1 119/185/1 115/186/1
f 116/187/2 115/186/2 119/188/2 120/189/2
f 120/190/3 119/191/3 117/192/3 118/193/3
f 118/194/4 114/195/4 116/187/4 120/196/4
f 114/195/5 113/183/5 115/186/5 116/187/5
f 114/195/4 118/194/4 124/197/4 122/198/4
f 122/198/4 124/197/4 128/199/4 126/200/4
f 117/184/1 113/183/1 121/201/1 123/202/1
f 113/183/5 114/195/5 122/198/5 121/201/5
f 118/193/3 117/192/3 123/203/3 124/204/3
f 128/205/6 127/206/6 125/207/6 126/200/6
f 123/202/1 121/201/1 125/207/1 127/208/1
f 121/201/5 122/198/5 126/200/5 125/207/5
f 124/204/3 123/203/3 127/206/3 128/205/3
