{
    "asset" : {
        "generator" : "Khronos glTF Blender I/O v1.4.40",
        "version" : "2.0"
    },
    "scene" : 0,
    "scenes" : [
        {
            "name" : "Scene",
            "nodes" : [
                0
            ]
        }
    ],
    "nodes" : [
        {
            "mesh" : 0,
            "name" : "Cube.001_Cube.011",
            "rotation" : [
                0.7071068286895752,
                0,
                0,
                0.7071067094802856
            ],
            "scale" : [
                0.004015887156128883,
                0.004015887156128883,
                0.004015887156128883
            ]
        }
    ],
    "meshes" : [
        {
            "name" : "Cube.001_Cube.011",
            "primitives" : [
                {
                    "attributes" : {
                        "POSITION" : 0,
                        "NORMAL" : 1,
                        "TEXCOORD_0" : 2
                    },
                    "indices" : 3
                }
            ]
        }
    ],
    "accessors" : [
        {
            "bufferView" : 0,
            "componentType" : 5126,
            "count" : 1368,
            "max" : [
                219.05337524414062,
                55.35601806640625,
                205.36370849609375
            ],
            "min" : [
                -219.05337524414062,
                -55.35601806640625,
                -205.36370849609375
            ],
            "type" : "VEC3"
        },
        {
            "bufferView" : 1,
            "componentType" : 5126,
            "count" : 1368,
            "type" : "VEC3"
        },
        {
            "bufferView" : 2,
            "componentType" : 5126,
            "count" : 1368,
            "type" : "VEC2"
        },
        {
            "bufferView" : 3,
            "componentType" : 5123,
            "count" : 6720,
            "type" : "SCALAR"
        }
    ],
    "bufferViews" : [
        {
            "buffer" : 0,
            "byteLength" : 16416,
            "byteOffset" : 0
        },
        {
            "buffer" : 0,
            "byteLength" : 16416,
            "byteOffset" : 16416
        },
        {
            "buffer" : 0,
            "byteLength" : 10944,
            "byteOffset" : 32832
        },
        {
            "buffer" : 0,
            "byteLength" : 13440,
            "byteOffset" : 43776
        }
    ],
    "buffers" : [
        {
            "byteLength" : 57216,
            "uri" : "data:application/octet-stream;base64,"
        }
    ]
}
