# Blender v3.1.2 OBJ File: 'wall_lamp.blend'
# www.blender.org
o 円柱.014
v 0.000000 0.541232 -1.863506
v 0.000000 1.612566 -1.863506
v 0.457139 0.541232 -1.599576
v 0.457139 1.612566 -1.599576
v 0.457139 0.541232 -1.071718
v 0.457139 1.612566 -1.071718
v -0.000000 0.541232 -0.807789
v -0.000000 1.612566 -0.807789
v -0.457139 0.541232 -1.071718
v -0.457139 1.612566 -1.071718
v -0.457139 0.541232 -1.599576
v -0.457139 1.612566 -1.599576
v 0.000518 1.088370 -1.563926
v 0.000518 0.891326 -1.589868
v 0.000518 0.828698 -1.563926
v 0.048041 1.209358 -1.386567
v 0.092326 1.183417 -1.430851
v 0.130354 1.142150 -1.468879
v 0.159534 1.088370 -1.498060
v 0.177878 1.025742 -1.516403
v 0.184134 0.958534 -1.522659
v 0.177878 0.891326 -1.516403
v 0.159534 0.828698 -1.498060
v 0.130354 0.774918 -1.468879
v 0.092326 0.733651 -1.430851
v 0.048041 0.707709 -1.386567
v 0.067726 1.209358 -1.339043
v 0.130354 1.183417 -1.339043
v 0.184134 1.142150 -1.339043
v 0.225401 1.088370 -1.339043
v 0.251343 1.025742 -1.339043
v 0.260191 0.958534 -1.339043
v 0.251343 0.891326 -1.339043
v 0.225401 0.828698 -1.339043
v 0.184134 0.774918 -1.339043
v 0.130354 0.733651 -1.339043
v 0.067726 0.707709 -1.339043
v 0.048041 1.209358 -1.291520
v 0.092326 1.183417 -1.247235
v 0.130354 1.142150 -1.209207
v 0.159534 1.088370 -1.180027
v 0.177878 1.025742 -1.161683
v 0.184134 0.958534 -1.155427
v 0.177878 0.891326 -1.161683
v 0.159534 0.828698 -1.180027
v 0.130354 0.774918 -1.209207
v 0.092326 0.733651 -1.247235
v 0.048041 0.707709 -1.291520
v 0.000518 1.209358 -1.271835
v 0.000518 1.183417 -1.209207
v 0.000518 1.142150 -1.155427
v 0.000518 1.088370 -1.114160
v 0.000518 1.025742 -1.088219
v 0.000518 0.958534 -1.079370
v 0.000518 0.891326 -1.088219
v 0.000518 0.828698 -1.114160
v 0.000518 0.774918 -1.155427
v 0.000518 0.733651 -1.209207
v 0.000518 0.707709 -1.271835
v -0.047005 1.209358 -1.291520
v -0.091290 1.183417 -1.247235
v -0.129318 1.142150 -1.209207
v -0.158498 1.088370 -1.180027
v -0.176842 1.025742 -1.161683
v -0.183098 0.958534 -1.155427
v -0.176842 0.891326 -1.161683
v -0.158498 0.828698 -1.180027
v -0.129318 0.774918 -1.209207
v -0.091290 0.733651 -1.247235
v -0.047005 0.707709 -1.291520
v 0.000518 0.698861 -1.339043
v 0.000518 1.218207 -1.339043
v -0.066690 1.209358 -1.339043
v -0.129318 1.183417 -1.339043
v -0.183098 1.142150 -1.339043
v -0.224365 1.088370 -1.339043
v -0.250307 1.025742 -1.339043
v -0.259155 0.958534 -1.339043
v -0.250307 0.891326 -1.339043
v -0.224365 0.828698 -1.339043
v -0.183098 0.774918 -1.339043
v -0.129318 0.733651 -1.339043
v -0.066690 0.707709 -1.339043
v -0.047005 1.209358 -1.386567
v -0.091290 1.183417 -1.430851
v -0.129318 1.142150 -1.468879
v -0.158498 1.088370 -1.498060
v -0.176842 1.025742 -1.516403
v -0.183098 0.958534 -1.522659
v -0.176842 0.891326 -1.516403
v -0.158498 0.828698 -1.498060
v -0.129318 0.774918 -1.468879
v -0.091290 0.733651 -1.430851
v -0.047005 0.707709 -1.386567
v 0.000518 1.209358 -1.406251
v 0.000518 1.183417 -1.468879
v 0.000518 1.142150 -1.522659
v 0.000518 1.025742 -1.589868
v 0.000518 0.958534 -1.598716
v 0.000518 0.774918 -1.522659
v 0.000518 0.733651 -1.468879
v 0.000518 0.707709 -1.406251
vt 1.000000 0.500000
vt 1.000000 1.000000
vt 0.833333 1.000000
vt 0.833333 0.500000
vt 0.666667 1.000000
vt 0.666667 0.500000
vt 0.500000 1.000000
vt 0.500000 0.500000
vt 0.333333 1.000000
vt 0.333333 0.500000
vt 0.166667 1.000000
vt 0.166667 0.500000
vt -0.000000 1.000000
vt -0.000000 0.500000
vt 0.750000 0.083333
vt 0.750000 0.166667
vt 0.625000 0.166667
vt 0.625000 0.083333
vt 0.750000 0.916667
vt 0.687500 1.000000
vt 0.625000 0.916667
vt 0.750000 0.333333
vt 0.750000 0.416667
vt 0.625000 0.416667
vt 0.625000 0.333333
vt 0.750000 0.583333
vt 0.750000 0.666667
vt 0.625000 0.666667
vt 0.625000 0.583333
vt 0.687500 0.000000
vt 0.750000 0.833333
vt 0.625000 0.833333
vt 0.750000 0.250000
vt 0.625000 0.250000
vt 0.750000 0.500000
vt 0.625000 0.500000
vt 0.750000 0.750000
vt 0.625000 0.750000
vt 0.500000 0.583333
vt 0.500000 0.500000
vt 0.500000 0.833333
vt 0.500000 0.750000
vt 0.500000 0.250000
vt 0.500000 0.166667
vt 0.500000 0.416667
vt 0.500000 0.666667
vt 0.500000 0.083333
vt 0.562500 1.000000
vt 0.500000 0.916667
vt 0.500000 0.333333
vt 0.562500 0.000000
vt 0.375000 0.416667
vt 0.375000 0.333333
vt 0.375000 0.666667
vt 0.375000 0.583333
vt 0.437500 0.000000
vt 0.375000 0.083333
vt 0.375000 0.916667
vt 0.375000 0.833333
vt 0.375000 0.250000
vt 0.375000 0.500000
vt 0.375000 0.750000
vt 0.375000 0.166667
vt 0.437500 1.000000
vt 0.250000 0.500000
vt 0.250000 0.416667
vt 0.250000 0.750000
vt 0.250000 0.666667
vt 0.250000 0.166667
vt 0.250000 0.083334
vt 0.312500 1.000000
vt 0.250000 0.916667
vt 0.250000 0.333333
vt 0.250000 0.583333
vt 0.312500 0.000000
vt 0.250000 0.833333
vt 0.250000 0.250000
vt 0.125000 0.333333
vt 0.125000 0.250000
vt 0.125000 0.583333
vt 0.125000 0.500000
vt 0.125000 0.833333
vt 0.125000 0.750000
vt 0.125000 0.166667
vt 0.125000 0.416667
vt 0.125000 0.666667
vt 0.125000 0.083333
vt 0.187500 1.000000
vt 0.125000 0.916667
vt 0.187500 0.000000
vt 0.062500 1.000000
vt 0.000000 0.916667
vt 0.000000 0.416667
vt 0.000000 0.333333
vt 0.000000 0.666667
vt 0.000000 0.583333
vt 0.062500 0.000000
vt 0.000000 0.083333
vt 0.000000 0.833333
vt 0.000000 0.250000
vt 0.000000 0.500000
vt 0.000000 0.750000
vt 0.000000 0.166667
vt 1.000000 0.166667
vt 1.000000 0.250000
vt 0.875000 0.250000
vt 0.875000 0.166667
vt 1.000000 0.416667
vt 1.000000 0.500000
vt 0.875000 0.500000
vt 0.875000 0.416667
vt 1.000000 0.666667
vt 1.000000 0.750000
vt 0.875000 0.750000
vt 0.875000 0.666667
vt 1.000000 0.083333
vt 0.875000 0.083333
vt 1.000000 0.916667
vt 0.937500 1.000000
vt 0.875000 0.916667
vt 1.000000 0.333333
vt 0.875000 0.333333
vt 1.000000 0.583333
vt 0.875000 0.583333
vt 0.937500 0.000000
vt 1.000000 0.833333
vt 0.875000 0.833333
vt 0.812500 1.000000
vt 0.812500 0.000000
vn 0.5000 0.0000 -0.8660
vn 1.0000 0.0000 0.0000
vn 0.5000 0.0000 0.8660
vn -0.5000 0.0000 0.8660
vn -1.0000 0.0000 0.0000
vn -0.5000 0.0000 -0.8660
vn 0.1566 -0.9125 -0.3780
vn 0.0540 0.9900 -0.1303
vn 0.3574 -0.3574 -0.8629
vn 0.3574 0.3574 -0.8629
vn 0.0540 -0.9900 -0.1303
vn 0.1566 0.9125 -0.3780
vn 0.3122 -0.5783 -0.7537
vn 0.3799 0.1207 -0.9171
vn 0.2445 0.7693 -0.5903
vn 0.2445 -0.7693 -0.5903
vn 0.3799 -0.1207 -0.9171
vn 0.3122 0.5783 -0.7537
vn 0.9171 0.1207 -0.3799
vn 0.5903 0.7693 -0.2445
vn 0.5903 -0.7693 -0.2445
vn 0.9171 -0.1207 -0.3799
vn 0.7537 0.5783 -0.3122
vn 0.3780 -0.9125 -0.1566
vn 0.1303 0.9900 -0.0540
vn 0.8629 -0.3574 -0.3574
vn 0.8629 0.3574 -0.3574
vn 0.1303 -0.9900 -0.0540
vn 0.3780 0.9125 -0.1566
vn 0.7537 -0.5783 -0.3122
vn 0.8629 -0.3574 0.3574
vn 0.8629 0.3574 0.3574
vn 0.1303 -0.9900 0.0540
vn 0.3780 0.9125 0.1566
vn 0.7537 -0.5783 0.3122
vn 0.9171 0.1207 0.3799
vn 0.5903 0.7693 0.2445
vn 0.5903 -0.7693 0.2445
vn 0.9171 -0.1207 0.3799
vn 0.7537 0.5783 0.3122
vn 0.3780 -0.9125 0.1566
vn 0.1303 0.9900 0.0540
vn 0.3799 -0.1207 0.9171
vn 0.3122 0.5783 0.7537
vn 0.1566 -0.9125 0.3780
vn 0.0540 0.9900 0.1303
vn 0.3574 -0.3574 0.8629
vn 0.3574 0.3574 0.8629
vn 0.0540 -0.9900 0.1303
vn 0.1566 0.9125 0.3780
vn 0.3122 -0.5783 0.7537
vn 0.3799 0.1207 0.9171
vn 0.2445 0.7693 0.5903
vn 0.2445 -0.7693 0.5903
vn -0.3122 -0.5783 0.7537
vn -0.3799 0.1207 0.9171
vn -0.2445 0.7693 0.5903
vn -0.2445 -0.7693 0.5903
vn -0.3799 -0.1207 0.9171
vn -0.3122 0.5783 0.7537
vn -0.1566 -0.9125 0.3780
vn -0.0540 0.9900 0.1303
vn -0.3574 -0.3574 0.8629
vn -0.3574 0.3574 0.8629
vn -0.0540 -0.9900 0.1303
vn -0.1566 0.9125 0.3780
vn -0.1303 0.9900 0.0540
vn -0.8629 -0.3574 0.3574
vn -0.8629 0.3574 0.3574
vn -0.1303 -0.9900 0.0540
vn -0.3780 0.9125 0.1566
vn -0.7537 -0.5783 0.3122
vn -0.9171 0.1207 0.3799
vn -0.5903 0.7693 0.2445
vn -0.5903 -0.7693 0.2445
vn -0.9171 -0.1207 0.3799
vn -0.7537 0.5783 0.3122
vn -0.3780 -0.9125 0.1566
vn -0.5903 -0.7693 -0.2445
vn -0.9171 -0.1207 -0.3799
vn -0.7537 0.5783 -0.3122
vn -0.3780 -0.9125 -0.1566
vn -0.1303 0.9900 -0.0540
vn -0.8629 -0.3574 -0.3574
vn -0.8629 0.3574 -0.3574
vn -0.1303 -0.9900 -0.0540
vn -0.3780 0.9125 -0.1566
vn -0.7537 -0.5783 -0.3122
vn -0.9171 0.1207 -0.3799
vn -0.5903 0.7693 -0.2445
vn -0.1566 0.9125 -0.3780
vn -0.3122 -0.5783 -0.7537
vn -0.3799 0.1207 -0.9171
vn -0.2445 0.7693 -0.5903
vn -0.2445 -0.7693 -0.5903
vn -0.3799 -0.1207 -0.9171
vn -0.3122 0.5783 -0.7537
vn -0.1566 -0.9125 -0.3780
vn -0.0540 0.9900 -0.1303
vn -0.3574 -0.3574 -0.8629
vn -0.3574 0.3574 -0.8629
vn -0.0540 -0.9900 -0.1303
s off
f 1/1/1 2/2/1 4/3/1 3/4/1
f 3/4/2 4/3/2 6/5/2 5/6/2
f 5/6/3 6/5/3 8/7/3 7/8/3
f 7/8/4 8/7/4 10/9/4 9/10/4
f 9/10/5 10/9/5 12/11/5 11/12/5
f 11/12/6 12/11/6 2/13/6 1/14/6
f 102/15/7 101/16/7 25/17/7 26/18/7
f 95/19/8 72/20/8 16/21/8
f 15/22/9 14/23/9 22/24/9 23/25/9
f 98/26/10 13/27/10 19/28/10 20/29/10
f 71/30/11 102/15/11 26/18/11
f 96/31/12 95/19/12 16/21/12 17/32/12
f 100/33/13 15/22/13 23/25/13 24/34/13
f 99/35/14 98/26/14 20/29/14 21/36/14
f 97/37/15 96/31/15 17/32/15 18/38/15
f 101/16/16 100/33/16 24/34/16 25/17/16
f 14/23/17 99/35/17 21/36/17 22/24/17
f 13/27/18 97/37/18 18/38/18 19/28/18
f 21/36/19 20/29/19 31/39/19 32/40/19
f 18/38/20 17/32/20 28/41/20 29/42/20
f 25/17/21 24/34/21 35/43/21 36/44/21
f 22/24/22 21/36/22 32/40/22 33/45/22
f 19/28/23 18/38/23 29/42/23 30/46/23
f 26/18/24 25/17/24 36/44/24 37/47/24
f 16/21/25 72/48/25 27/49/25
f 23/25/26 22/24/26 33/45/26 34/50/26
f 20/29/27 19/28/27 30/46/27 31/39/27
f 71/51/28 26/18/28 37/47/28
f 17/32/29 16/21/29 27/49/29 28/41/29
f 24/34/30 23/25/30 34/50/30 35/43/30
f 34/50/31 33/45/31 44/52/31 45/53/31
f 31/39/32 30/46/32 41/54/32 42/55/32
f 71/56/33 37/47/33 48/57/33
f 28/41/34 27/49/34 38/58/34 39/59/34
f 35/43/35 34/50/35 45/53/35 46/60/35
f 32/40/36 31/39/36 42/55/36 43/61/36
f 29/42/37 28/41/37 39/59/37 40/62/37
f 36/44/38 35/43/38 46/60/38 47/63/38
f 33/45/39 32/40/39 43/61/39 44/52/39
f 30/46/40 29/42/40 40/62/40 41/54/40
f 37/47/41 36/44/41 47/63/41 48/57/41
f 27/49/42 72/64/42 38/58/42
f 44/52/43 43/61/43 54/65/43 55/66/43
f 41/54/44 40/62/44 51/67/44 52/68/44
f 48/57/45 47/63/45 58/69/45 59/70/45
f 38/58/46 72/71/46 49/72/46
f 45/53/47 44/52/47 55/66/47 56/73/47
f 42/55/48 41/54/48 52/68/48 53/74/48
f 71/75/49 48/57/49 59/70/49
f 39/59/50 38/58/50 49/72/50 50/76/50
f 46/60/51 45/53/51 56/73/51 57/77/51
f 43/61/52 42/55/52 53/74/52 54/65/52
f 40/62/53 39/59/53 50/76/53 51/67/53
f 47/63/54 46/60/54 57/77/54 58/69/54
f 57/77/55 56/73/55 67/78/55 68/79/55
f 54/65/56 53/74/56 64/80/56 65/81/56
f 51/67/57 50/76/57 61/82/57 62/83/57
f 58/69/58 57/77/58 68/79/58 69/84/58
f 55/66/59 54/65/59 65/81/59 66/85/59
f 52/68/60 51/67/60 62/83/60 63/86/60
f 59/70/61 58/69/61 69/84/61 70/87/61
f 49/72/62 72/88/62 60/89/62
f 56/73/63 55/66/63 66/85/63 67/78/63
f 53/74/64 52/68/64 63/86/64 64/80/64
f 71/90/65 59/70/65 70/87/65
f 50/76/66 49/72/66 60/89/66 61/82/66
f 60/89/67 72/91/67 73/92/67
f 67/78/68 66/85/68 79/93/68 80/94/68
f 64/80/69 63/86/69 76/95/69 77/96/69
f 71/97/70 70/87/70 83/98/70
f 61/82/71 60/89/71 73/92/71 74/99/71
f 68/79/72 67/78/72 80/94/72 81/100/72
f 65/81/73 64/80/73 77/96/73 78/101/73
f 62/83/74 61/82/74 74/99/74 75/102/74
f 69/84/75 68/79/75 81/100/75 82/103/75
f 66/85/76 65/81/76 78/101/76 79/93/76
f 63/86/77 62/83/77 75/102/77 76/95/77
f 70/87/78 69/84/78 82/103/78 83/98/78
f 82/104/79 81/105/79 92/106/79 93/107/79
f 79/108/80 78/109/80 89/110/80 90/111/80
f 76/112/81 75/113/81 86/114/81 87/115/81
f 83/116/82 82/104/82 93/107/82 94/117/82
f 73/118/83 72/119/83 84/120/83
f 80/121/84 79/108/84 90/111/84 91/122/84
f 77/123/85 76/112/85 87/115/85 88/124/85
f 71/125/86 83/116/86 94/117/86
f 74/126/87 73/118/87 84/120/87 85/127/87
f 81/105/88 80/121/88 91/122/88 92/106/88
f 78/109/89 77/123/89 88/124/89 89/110/89
f 75/113/90 74/126/90 85/127/90 86/114/90
f 85/127/91 84/120/91 95/19/91 96/31/91
f 92/106/92 91/122/92 15/22/92 100/33/92
f 89/110/93 88/124/93 98/26/93 99/35/93
f 86/114/94 85/127/94 96/31/94 97/37/94
f 93/107/95 92/106/95 100/33/95 101/16/95
f 90/111/96 89/110/96 99/35/96 14/23/96
f 87/115/97 86/114/97 97/37/97 13/27/97
f 94/117/98 93/107/98 101/16/98 102/15/98
f 84/120/99 72/128/99 95/19/99
f 91/122/100 90/111/100 14/23/100 15/22/100
f 88/124/101 87/115/101 13/27/101 98/26/101
f 71/129/102 94/117/102 102/15/102
