<svg viewBox="0 0 67.22 54.55" xmlns="http://www.w3.org/2000/svg"><path d="m66.58 34.07c-2 11.99-14.77 19.98-32.97 19.98s-30.97-8-32.97-19.98c-.47-2.83.3-15.53 2.02-17.99 4.89-7.01 6.64 19.82 30.96 19.82 26.48 0 26.08-26.82 30.97-19.82 1.72 2.46 2.47 15.16 2 17.99z" fill="#ff901f" stroke="#dc7710"/><path d="m33.61.5c-17.84 0-32.31 8.77-32.31 19.58s14.46 19.58 32.31 19.58 32.31-8.77 32.31-19.58-14.47-19.58-32.31-19.58zm0 25.57c-6.07 0-10.99-1.34-10.99-3s4.92-3 10.99-3 10.99 1.34 10.99 3c0 1.65-4.92 3-10.99 3z" fill="#341155" stroke="#0d011c"/><path d="m2.3 17c-1.25 2-1.76 10.51.92 14.49 4.08 6.08 6.08 3 9.08 3.91 4.47 1.37 4.8 4.9 8.33 6.66 4 2 6.32 1.42 11.99 0 7.99-2 13.07 2.08 17.98 0 4.03-1.71 6.33-7.91 8.58-8.66 7.13-2.38 8.63-13.62 3.33-18.24-1.66 3.5-9.83 16.07-15.07 16.65-5.25.58-20.98 1.91-27.64-1.5s-13.4-7.66-14.24-8.83c-.83-1.17-3.25-4.5-3.25-4.5z" fill="#341155"/><path d="m33.61 15.58c-7.17 0-12.99 2.35-12.99 5.24 0 1.13.89 2.17 2.38 3.02-.24-.25-.38-.51-.38-.77 0-1.66 4.92-3 10.99-3s10.99 1.34 10.99 3c0 .27-.14.52-.38.77 1.49-.86 2.38-1.89 2.38-3.02 0-2.9-5.81-5.24-12.99-5.24z" fill="#e27513"/><path d="m7.47 23.74c-.72 0-1.41-.39-1.77-1.06-.52-.98-.14-2.19.83-2.7l4.41-2.33c.97-.52 2.18-.14 2.7.83.52.98.14 2.19-.83 2.7l-4.41 2.33c-.3.16-.62.23-.93.23zm22.73 14.9c-.78 0-1.53-.46-1.85-1.24l-1.42-3.41c-.42-1.02.06-2.19 1.08-2.61s2.19.06 2.61 1.08l1.42 3.42c.42 1.02-.06 2.19-1.08 2.61-.25.1-.51.15-.76.15z" fill="#f985b5"/><path d="m52.84 30.65c-.35 0-.69-.09-1.01-.28-.95-.56-1.27-1.79-.7-2.73l2.16-3.67c.56-.95 1.79-1.27 2.74-.7.95.56 1.27 1.79.7 2.74l-2.17 3.66c-.37.63-1.04.98-1.72.98z" fill="#3dc2d8"/><path d="m56.17 15.81c-1.07 0-1.96-.92-1.99-2-.04-1.1.82-2.06 1.93-2.1l2.33-.1c1.12-.01 2.03.82 2.07 1.92s-.82 2.1-1.93 2.14l-2.33.15h-.07zm-19.31-7.88c-.85 0-1.63-.55-1.91-1.4-.33-1.05.25-2.17 1.3-2.51l1.58-.5c1.06-.33 2.18.25 2.51 1.3s-.25 2.17-1.3 2.51l-1.58.5c-.2.06-.4.09-.6.09z" fill="#ff2975"/><path d="m25.78 11.17c-.3 0-.6-.07-.89-.21l-1.5-.75c-.99-.49-1.39-1.69-.9-2.68s1.69-1.39 2.68-.89l1.5.75c.99.49 1.39 1.69.9 2.68-.35.7-1.06 1.11-1.79 1.11zm17.41 25.39c-.3 0-.6-.07-.89-.21l-1.5-.75c-.99-.49-1.39-1.69-.9-2.68s1.69-1.39 2.68-.9l1.5.75c.99.49 1.39 1.69.9 2.68-.35.7-1.06 1.11-1.79 1.11z" fill="#6be4f7"/><path d="m17.04 32.15c-.26 0-.53-.05-.79-.16-1.01-.44-1.48-1.61-1.05-2.62l.75-1.75c.44-1.01 1.61-1.49 2.63-1.05 1.01.43 1.48 1.61 1.05 2.62l-.75 1.75c-.32.76-1.06 1.21-1.84 1.21zm29.81-18.9c-.77 0-1.51-.45-1.83-1.2-.44-1.01.02-2.19 1.03-2.63l1.33-.58c1.01-.44 2.19.02 2.63 1.03s-.02 2.19-1.03 2.63l-1.33.58c-.26.11-.53.17-.8.17zm-32.47-.08c-.15 0-.3-.02-.45-.05l-1.08-.25c-1.07-.25-1.75-1.32-1.5-2.39.25-1.08 1.32-1.75 2.4-1.5l1.08.25c1.07.25 1.75 1.32 1.5 2.39-.22.92-1.04 1.55-1.95 1.55z" fill="#4eddf4"/></svg>